<svg id="Lag_9" data-name="Lag 9" xmlns="http://www.w3.org/2000/svg" viewBox="0 0 56.97 126.34"><defs><style>.cls-1{fill:none;stroke:#f39204;stroke-miterlimit:10;}</style></defs><path class="cls-1" d="M683.7,147q-.24,34.43-.47,68.86a5,5,0,0,1-1.35,3,4.86,4.86,0,0,1-2.91,1.39A5.8,5.8,0,0,1,672,214c.19-4.34.49-31.18.92-68.16" transform="translate(-665.8 -95.46)"/><path class="cls-1" d="M704.61,161.38l-.48,52.92a8.68,8.68,0,0,0,1.38,3.21,9,9,0,0,0,5,3.44,8.92,8.92,0,0,0,6.65-.69s2.79-1.68,3.9-6.19c2.43-9.81.34-111.73.21-118.09" transform="translate(-665.8 -95.46)"/><line class="cls-1" x1="16.55" y1="0.75" x2="16.36" y2="25.15"/><line class="cls-1" x1="8.53" y1="1.21" x2="8.92" y2="25.74"/><line class="cls-1" x1="0.5" y1="25.27" x2="24.81" y2="25.08"/><line class="cls-1" x1="38.73" y1="75.04" x2="56.33" y2="75.05"/><line class="cls-1" x1="56.47" y1="65.92" x2="33.52" y2="65.92"/><path class="cls-1" d="M666.3,96.9v41.19a9.18,9.18,0,0,0,1.15,3.94,12.16,12.16,0,0,0,3.44,3.47l2.06,1.39" transform="translate(-665.8 -95.46)"/><path class="cls-1" d="M690.38,96.9l.22,38.47a17.84,17.84,0,0,1-1.54,4.53,19,19,0,0,1-3.34,4.75,20.28,20.28,0,0,1-2.57,2.27" transform="translate(-665.8 -95.46)"/><path class="cls-1" d="M721.31,96a20.46,20.46,0,0,0-7.23.94,19.91,19.91,0,0,0-6.73,3.75,22.9,22.9,0,0,0-5.73,7,25.05,25.05,0,0,0-2.74,11.24c-.24,7.51-.43,22.79,0,42.86" transform="translate(-665.8 -95.46)"/></svg>