<svg id="Lag_4" data-name="Lag 4" xmlns="http://www.w3.org/2000/svg" viewBox="0 0 112.1 125.04"><defs><style>.cls-1,.cls-2{fill:none;stroke:#f39200;stroke-miterlimit:10;}.cls-2{stroke-width:1.5px;}</style></defs><line class="cls-1" x1="92.12" y1="23.55" x2="45.8" y2="82.86"/><line class="cls-1" x1="0.4" y1="23.55" x2="45.8" y2="82.86"/><line class="cls-1" x1="92.12" y1="23.55" x2="0.4" y2="23.55"/><path class="cls-1" d="M673.93,138.88a21.83,21.83,0,0,1,3.24-12.53c6.08-9.56,17.69-10,19.15-10a22.68,22.68,0,0,1,13.8,4.08c8.85,6.37,9.26,17,9.29,18.45,0,.7.09,13.87-10.42,20.41-7.29,4.55-15.13,3.07-17,2.68a24.63,24.63,0,0,1-7.61-3" transform="translate(-607.81 -115.84)"/><line class="cls-1" x1="45.8" y1="82.86" x2="46.26" y2="123.68"/><line class="cls-2" x1="17.67" y1="124.29" x2="74.69" y2="124.14"/><path class="cls-1" d="M680.49,164.33c-8.76,10-18.2,5.39-26.86-2.46-8.92-8.09-17.47-4.68-26.36,2" transform="translate(-607.81 -115.84)"/></svg>