<svg id="pærer" xmlns="http://www.w3.org/2000/svg" viewBox="0 0 83.7 92.29"><defs><style>.cls-1,.cls-2{fill:none;stroke:#f39204;stroke-miterlimit:10;}.cls-2{stroke-linecap:round;}</style></defs><rect class="cls-1" x="27.48" y="65.48" width="28.43" height="6.65" rx="1.32"/><rect class="cls-1" x="27.77" y="72.13" width="27.86" height="6.19" rx="1.32"/><path class="cls-1" d="M401.22,312.46H422a1.43,1.43,0,0,1,1.49,1.36v3.35a1.43,1.43,0,0,1-1.49,1.37H401.22a1.63,1.63,0,0,1-1.06-.4,1.31,1.31,0,0,1-.43-1v-3.35A1.43,1.43,0,0,1,401.22,312.46Z" transform="translate(-369.84 -234.14)"/><path class="cls-1" d="M419.16,318.83a6.55,6.55,0,0,1-.87,3.35,6.76,6.76,0,0,1-2.36,2.35,8,8,0,0,1-5.95,1.24,7.7,7.7,0,0,1-3.72-2,6.67,6.67,0,0,1-1.74-2.36,6.22,6.22,0,0,1-.49-2.6" transform="translate(-369.84 -234.14)"/><path class="cls-1" d="M423,290.56v0Z" transform="translate(-369.84 -234.14)"/><polyline class="cls-2" points="38.26 65.48 37.8 51.56 33.96 46.58 33.96 30.74"/><polyline class="cls-2" points="46.17 65.48 45.6 51.38 49.15 46.85 49.15 30.74"/><line class="cls-2" x1="51.44" y1="32.99" x2="32.01" y2="32.99"/><path class="cls-2" d="M421.55,242a15.15,15.15,0,0,1,4.28,2,19.11,19.11,0,0,1,3.51,3.21,19.4,19.4,0,0,1,2.45,3.06,16.9,16.9,0,0,1,1.68,3.52,16.59,16.59,0,0,1,.77,3.21" transform="translate(-369.84 -234.14)"/><line class="cls-2" x1="8.3" y1="19.5" x2="2.64" y2="16.75"/><line class="cls-2" x1="6.61" y1="27.91" x2="0.5" y2="27.91"/><line class="cls-2" x1="8.3" y1="36.63" x2="2.64" y2="38.92"/><line class="cls-2" x1="81.21" y1="16.75" x2="76.2" y2="19.13"/><line class="cls-2" x1="83.2" y1="27.91" x2="77.24" y2="27.91"/><line class="cls-2" x1="80.22" y1="38.92" x2="75.4" y2="36.63"/><path class="cls-1" d="M423,299.62v-9.75a4.9,4.9,0,0,0,0,.69,3.91,3.91,0,0,1,.69-2.64,2.48,2.48,0,0,1,1.49-.68c2.44-.42,5.21-3.6,7.57-6.31a28.42,28.42,0,0,0,4.81-7,26.93,26.93,0,0,0,2.29-8,28.93,28.93,0,0,0,0-6.76,26.19,26.19,0,0,0-1.83-7.46,33.2,33.2,0,0,0-10.89-13.3,24.12,24.12,0,0,0-6.31-2.86,26.53,26.53,0,0,0-9.4-.8,29.28,29.28,0,0,0-9.86,1.72,26.63,26.63,0,0,0-10.66,7.68,25.67,25.67,0,0,0-5.28,8.83,27.26,27.26,0,0,0-1.26,6.3,28.63,28.63,0,0,0,.46,10.66,27,27,0,0,0,3,7.11,34.66,34.66,0,0,0,3.33,4.7,16.52,16.52,0,0,0,2.29,2.52c1.4,1.2,1.73,1,3.9,2.53s2.85,2.48,3,3.55a3,3,0,0,1,0,.69,69.22,69.22,0,0,0,0,8.6" transform="translate(-369.84 -234.14)"/></svg>