<?xml version="1.0" encoding="utf-8"?>
<!-- Generator: Adobe Illustrator 25.2.1, SVG Export Plug-In . SVG Version: 6.00 Build 0)  -->
<svg version="1.1" id="Lag_1" xmlns="http://www.w3.org/2000/svg" xmlns:xlink="http://www.w3.org/1999/xlink" x="0px" y="0px"
	 viewBox="0 0 411.9 288.3" style="enable-background:new 0 0 411.9 288.3;" xml:space="preserve">
<style type="text/css">
	.st0{display:none;}
	.st1{fill:none;stroke:#E79B00;stroke-miterlimit:10;}
</style>
<g id="Lag_1_1_" class="st0">
</g>
<g id="Lag_2_1_">
	<polyline class="st1" points="24.1,136 23.7,13.4 395,12.4 395.7,272.5 23.6,273.5 23.4,202.7 	"/>
	<path class="st1" d="M24.1,141.8l53.5-0.1c-0.1,2.1-0.2,4.9-0.8,8.2c-0.8,4.7-3.7,21.9-18.8,34.6C43.6,196.6,27.2,197,22.6,197"/>
	<path class="st1" d="M24.1,135.4l63.4-1.2c-0.6-4.5-1-11.5,0.8-19.8c1.3-6,4.7-16.7,13.9-26.4c3.2-3.4,15-14.9,32.9-16.6
		c3.4-0.3,6.2-0.2,8.2,0l1,55.2h16.6L160.5,13"/>
	<polyline class="st1" points="183.8,272.5 183.7,226.3 23.5,226.7 	"/>
	<path class="st1" d="M80.7,13.7l0.1,45.7c0,0,2.5,11-9,11.1s-47.7,0.1-47.7,0.1"/>
	<polyline class="st1" points="146.9,13.6 147,38.7 112.4,38.8 112.3,13.7 	"/>
	<polygon class="st1" points="143.5,36.7 141.5,22.1 118.9,21.2 113.9,36.6 	"/>
	<circle class="st1" cx="128.6" cy="28.3" r="2.2"/>
	<path class="st1" d="M73.7,104.9c-0.1-2-0.7-3.4-0.8-3.7c-1-2.1-2.9-3.8-7-5.5c-2.7-1.1-5.7-1.9-13.2-2.6c-8.3-0.8-12.5-1.2-17.3,0
		c-3.5,0.9-6.1,2.2-7.8,3.1v16.9c0.3,0.5,0.7,1.2,1.4,1.8c0.3,0.3,1.1,1,2.5,1.4c3.4,1.2,9.8,1,11.5,1c4.6-0.1,3.5,0.3,7.8,0.2
		c5.3-0.1,9.5-0.3,14.2-2.1c2.7-1.1,5.3-2.1,7-4.8C73.7,108.1,73.7,105.3,73.7,104.9z"/>
	<line class="st1" x1="41.1" y1="94.5" x2="41" y2="114.7"/>
</g>
</svg>
