<svg id="broken_window" data-name="broken window" xmlns="http://www.w3.org/2000/svg" viewBox="0 0 74.68 98.38"><defs><style>.cls-1{fill:none;stroke:#f39204;stroke-linecap:round;stroke-miterlimit:10;}</style></defs><rect class="cls-1" x="0.5" y="0.5" width="73.68" height="97.38"/><polygon class="cls-1" points="6.92 7.68 67.45 7.68 67.45 91.15 6.92 90.69 6.92 7.68"/><polyline class="cls-1" points="33.83 7.68 33.83 45.29 6.92 45.29"/><polyline class="cls-1" points="6.92 51.71 33.83 51.71 33.83 90.89"/><polyline class="cls-1" points="40.55 7.68 40.55 45.29 67.45 45.29"/><polyline class="cls-1" points="40.55 90.23 40.55 51.71 67.45 51.71"/><polyline class="cls-1" points="21.14 75.56 14.72 70.36 17.93 61.8 14.72 52.32"/><polyline class="cls-1" points="32.91 51.71 27.25 60.88 17.93 61.8"/><polyline class="cls-1" points="33.83 67.91 26.03 69.75 27.25 75.56"/><polyline class="cls-1" points="40.55 61.8 48.19 63.94 55.38 58.59 59.35 58.59"/><polyline class="cls-1" points="52.17 80.6 54 72.65 48.19 63.94"/></svg>