<svg xmlns="http://www.w3.org/2000/svg" viewBox="0 0 332.61 311.56"><defs><style>.cls-1,.cls-2,.cls-3,.cls-5,.cls-6{fill:none;}.cls-1,.cls-2{stroke:#f39200;}.cls-1,.cls-2,.cls-3,.cls-4,.cls-5,.cls-6{stroke-miterlimit:10;}.cls-2,.cls-3,.cls-4,.cls-6{stroke-linecap:round;}.cls-3,.cls-4{stroke:#f39207;}.cls-4{fill:#f39209;}.cls-5,.cls-6{stroke:#f39204;}.cls-7{fill:#f39200;}</style></defs><g id="Lag_2" data-name="Lag 2"><circle class="cls-1" cx="156.22" cy="38.55" r="18.02"/><line class="cls-2" x1="175.21" y1="6.2" x2="168.53" y2="17.75"/><line class="cls-2" x1="188.98" y1="19.7" x2="177.43" y2="26.52"/><line class="cls-2" x1="194.27" y1="38.55" x2="180.22" y2="38.55"/><line class="cls-2" x1="189.12" y1="57.54" x2="177.3" y2="50.72"/><line class="cls-2" x1="175.49" y1="71.31" x2="168.39" y2="59.49"/><line class="cls-2" x1="156.22" y1="76.32" x2="156.22" y2="62.69"/><line class="cls-2" x1="137.51" y1="71.04" x2="144.32" y2="59.49"/><line class="cls-2" x1="123.59" y1="57.4" x2="135.14" y2="50.72"/><line class="cls-2" x1="118.72" y1="38.55" x2="132.36" y2="38.55"/><line class="cls-2" x1="123.73" y1="19.62" x2="135.25" y2="26.56"/><line class="cls-2" x1="137.23" y1="5.51" x2="144.18" y2="17.47"/><line class="cls-2" x1="156.22" y1="0.5" x2="156.22" y2="14.41"/></g><g id="Lag_3" data-name="Lag 3"><circle class="cls-1" cx="28.78" cy="137.56" r="28.28"/><path class="cls-1" d="M156.91,227.18h38.58a17.6,17.6,0,0,1-.6,4.24,18.38,18.38,0,0,1-5.46,8.68,20.22,20.22,0,0,1-18.18,4.65c-1-.25-9.79-2.55-13.12-10.71A17,17,0,0,1,156.91,227.18Z" transform="translate(-147.53 -88.16)"/><path class="cls-1" d="M189.23,239.7a16.5,16.5,0,0,0-4.23-2.59,22.26,22.26,0,0,0-6.45-1.55,20.23,20.23,0,0,0-6.9,0,16.6,16.6,0,0,0-6.67,3.11,16.32,16.32,0,0,0-2,1.72" transform="translate(-147.53 -88.16)"/><path class="cls-1" d="M193,220a7,7,0,0,0-1.41-4,5.86,5.86,0,0,0-3-2.22,6,6,0,0,0-4.44.6,8,8,0,0,0-3.84,5.66" transform="translate(-147.53 -88.16)"/><path class="cls-1" d="M171.71,220a7,7,0,0,0-1.41-4,5.91,5.91,0,0,0-3-2.22,6.07,6.07,0,0,0-4.45.6A8,8,0,0,0,159,220" transform="translate(-147.53 -88.16)"/></g><g id="Lag_4" data-name="Lag 4"><path class="cls-3" d="M383.35,385.77a28.14,28.14,0,0,1-2.76-4.87,31.1,31.1,0,0,1-1.45-4.08,37.89,37.89,0,0,1-1.58-7,35.08,35.08,0,0,1-.13-6c.54-6.74,4.32-12.41,5.92-14.61" transform="translate(-147.53 -88.16)"/><path class="cls-3" d="M390.2,343.13a28.08,28.08,0,0,1,7.63-4.35,30.64,30.64,0,0,1,12.24-1.71,30.42,30.42,0,0,1,19.21,8.29,27.13,27.13,0,0,1,5.27,6.19,29.87,29.87,0,0,1,2.76,6.19,36,36,0,0,1,1.19,4.34,30.06,30.06,0,0,1,.66,6.84,28.77,28.77,0,0,1-.79,6.06,30.73,30.73,0,0,1-5.8,11.45" transform="translate(-147.53 -88.16)"/><path class="cls-3" d="M426.92,391.69a32.37,32.37,0,0,1-3.56,2.63,17.24,17.24,0,0,1-6.32,2.9,13.62,13.62,0,0,1-4.87,0,4.19,4.19,0,0,1-2.23-.79,4,4,0,0,1-1.32-2.24c-.9-3.28-.33-9.66-.26-10.39" transform="translate(-147.53 -88.16)"/><circle class="cls-3" cx="238.85" cy="300.38" r="3.82"/><circle class="cls-4" cx="239.24" cy="257.83" r="0.72"/><circle class="cls-4" cx="282.45" cy="301.03" r="0.72"/><rect class="cls-3" x="257.87" y="291.43" width="5.99" height="3.89" rx="0.96"/><path class="cls-3" d="M411.39,379.45a12,12,0,0,0,2.36-1.18,12.77,12.77,0,0,0,2.18-1.78,11.68,11.68,0,0,0,1.9-2.63,11.39,11.39,0,0,0,1.19-3.49" transform="translate(-147.53 -88.16)"/><path class="cls-3" d="M405.27,379.65c-.49-.25-1.13-.59-1.85-1a16.43,16.43,0,0,1-1.91-1.39,15.94,15.94,0,0,1-1.77-1.77,12.14,12.14,0,0,1-1.19-1.52,8.1,8.1,0,0,1-1.12-3.09" transform="translate(-147.53 -88.16)"/><line class="cls-3" x1="249.91" y1="275.17" x2="249.91" y2="282.68"/><line class="cls-3" x1="271.49" y1="275.17" x2="271.49" y2="282.22"/><path class="cls-3" d="M396.84,362.87a4.16,4.16,0,0,1-1.58-1.12,4.45,4.45,0,0,1-.92-1.91,3.67,3.67,0,0,1,1.25-4.21,5.5,5.5,0,0,1,2.37-1.25" transform="translate(-147.53 -88.16)"/><path class="cls-3" d="M419.35,363a5.35,5.35,0,0,0,1.84-1.18,4.1,4.1,0,0,0,1.25-2,3.86,3.86,0,0,0-.07-2,4.59,4.59,0,0,0-1.25-2.24,4.64,4.64,0,0,0-2.56-1.25" transform="translate(-147.53 -88.16)"/><line class="cls-3" x1="249.64" y1="274.85" x2="271.82" y2="274.85"/><line class="cls-3" x1="250.66" y1="266.22" x2="271.03" y2="266.22"/><line class="cls-3" x1="262.46" y1="277.52" x2="258.9" y2="281.95"/><line class="cls-3" x1="259.49" y1="286.91" x2="262.53" y2="282.03"/><line class="cls-3" x1="258.76" y1="282.13" x2="262.53" y2="282.03"/><path class="cls-3" d="M405.17,346.58a3.55,3.55,0,0,0-3.85-3.18,4.34,4.34,0,0,0-1.24.27,3,3,0,0,0-1.13.64,3.27,3.27,0,0,0-.84,1.51,4.21,4.21,0,0,0-.12.49" transform="translate(-147.53 -88.16)"/><path class="cls-3" d="M418.56,346.74a3.47,3.47,0,0,0-.47-1.48,3.62,3.62,0,0,0-3.38-1.7,4.41,4.41,0,0,0-1.24.27,3,3,0,0,0-1.13.64,3.37,3.37,0,0,0-.84,1.51,4.21,4.21,0,0,0-.12.49" transform="translate(-147.53 -88.16)"/><line class="cls-3" x1="257.64" y1="258.43" x2="257.64" y2="265.81"/><line class="cls-3" x1="250.46" y1="258.16" x2="250.43" y2="265.81"/><line class="cls-3" x1="263.85" y1="258.32" x2="263.85" y2="265.68"/><line class="cls-3" x1="271.03" y1="258.43" x2="271.03" y2="266.08"/></g><g id="Lag_5" data-name="Lag 5"><circle class="cls-5" cx="213.01" cy="367.02" r="13.9" transform="translate(-358.79 287.25) rotate(-61)"/><circle class="cls-5" cx="65.48" cy="279.3" r="17.77"/><circle class="cls-5" cx="63.17" cy="244.79" r="2.75"/><circle class="cls-5" cx="72.51" cy="244.79" r="2.75"/><line class="cls-6" x1="91.26" y1="244.79" x2="87.82" y2="244.79"/><line class="cls-6" x1="83.8" y1="244.79" x2="80.02" y2="244.79"/><line class="cls-6" x1="36.45" y1="252.7" x2="94.58" y2="252.47"/><line class="cls-6" x1="38.75" y1="311.06" x2="92.17" y2="311.06"/><line class="cls-6" x1="38.75" y1="306.7" x2="38.75" y2="311.06"/><line class="cls-6" x1="92.17" y1="306.7" x2="92.17" y2="311.06"/><rect class="cls-6" x="35.31" y="238.37" width="60.76" height="67.64" rx="2.46"/><rect class="cls-6" x="40.24" y="242.61" width="15.25" height="5.16" rx="0.92"/><path class="cls-5" d="M200.25,372a15.16,15.16,0,0,1,3.2-1.37,17.32,17.32,0,0,1,4.18-.69,11.83,11.83,0,0,1,5.18.57c1,.38.87.54,2.09,1a11.26,11.26,0,0,0,7.76.46,15.42,15.42,0,0,0,3.94-1.6" transform="translate(-147.53 -88.16)"/></g><g id="Lag_6" data-name="Lag 6"><line class="cls-2" x1="247.04" y1="121.94" x2="236.84" y2="151.52"/><line class="cls-2" x1="311.82" y1="122.63" x2="247.04" y2="121.94"/><line class="cls-2" x1="302.5" y1="151.21" x2="311.76" y2="122.86"/><line class="cls-2" x1="236.84" y1="151.52" x2="301.96" y2="151.41"/><line class="cls-2" x1="236.84" y1="151.52" x2="236.84" y2="158.75"/><line class="cls-2" x1="332.11" y1="158.75" x2="236.84" y2="158.75"/><line class="cls-2" x1="302.5" y1="151.21" x2="302.65" y2="158.75"/><line class="cls-2" x1="311.82" y1="122.63" x2="312.05" y2="158.17"/><line class="cls-2" x1="262.98" y1="122.29" x2="253.69" y2="151.49"/><line class="cls-2" x1="279.43" y1="122.29" x2="270.77" y2="151.46"/><line class="cls-2" x1="295.57" y1="122.91" x2="286.36" y2="151.52"/><line class="cls-2" x1="243.73" y1="131.54" x2="308.7" y2="132.25"/><line class="cls-2" x1="240.41" y1="141.17" x2="305.54" y2="141.9"/><line class="cls-2" x1="332.11" y1="158.75" x2="332.11" y2="132.83"/><line class="cls-2" x1="312.62" y1="132.83" x2="332.11" y2="132.83"/><rect class="cls-2" x="323.05" y="125.15" width="7.57" height="7.57" rx="0.38"/><path class="cls-2" d="M474.48,212.66c0-.36-.06-.93-.08-1.64a6.55,6.55,0,0,0-.15-2,2.68,2.68,0,0,0-1-1.46,3,3,0,0,0-1.56-.45,3,3,0,0,0-1.49.11,3.21,3.21,0,0,0-1.42,1.41,11.49,11.49,0,0,0-1.14,2.41c-.45,1.18-.41,1.39-.77,1.8a3.39,3.39,0,0,1-1.64,1,7,7,0,0,1-2.45.23c-.68,0-1.74,0-3.09,0" transform="translate(-147.53 -88.16)"/><line class="cls-2" x1="322.36" y1="138.45" x2="318.7" y2="145.79"/><line class="cls-2" x1="326.03" y1="145.79" x2="322.36" y2="153.01"/><line class="cls-2" x1="318.7" y1="145.79" x2="326.03" y2="145.79"/></g><g id="Lag_7" data-name="Lag 7"><line class="cls-1" x1="139.65" y1="299.86" x2="131.81" y2="302.98"/><line class="cls-1" x1="139.07" y1="308.88" x2="131.81" y2="302.98"/><line class="cls-1" x1="275.09" y1="220.95" x2="276.18" y2="229.31"/><line class="cls-1" x1="283.69" y1="223.73" x2="276.18" y2="229.31"/><line class="cls-1" x1="250.78" y1="85.58" x2="258.33" y2="88.63"/><line class="cls-1" x1="258.33" y1="80.69" x2="258.33" y2="88.63"/></g><g id="Lag_8" data-name="Lag 8"><path class="cls-1" d="M362.31,141.79a132.51,132.51,0,0,1,43.15,33.93" transform="translate(-147.53 -88.16)"/><path class="cls-1" d="M436.11,268.6a131.63,131.63,0,0,1-12,47.91" transform="translate(-147.53 -88.16)"/><path class="cls-1" d="M351.89,384.37a133.15,133.15,0,0,1-72.55,6.76" transform="translate(-147.53 -88.16)"/><path class="cls-1" d="M180.66,310.18a131.78,131.78,0,0,1-7-23.88c-.74-3.8-1.28-7.43-1.66-10.87" transform="translate(-147.53 -88.16)"/><path class="cls-1" d="M198.82,179.7a133.2,133.2,0,0,1,43.49-36.45" transform="translate(-147.53 -88.16)"/><line class="cls-1" x1="28.91" y1="193.46" x2="24.48" y2="186.29"/><line class="cls-1" x1="20.14" y1="194.1" x2="24.48" y2="186.29"/><line class="cls-1" x1="90.96" y1="61.43" x2="95.76" y2="55.06"/><line class="cls-1" x1="87.84" y1="53.13" x2="95.76" y2="55.06"/></g><g id="Lag_9" data-name="Lag 9"><path class="cls-7" d="M272.25,208.76v-.53c.76,0,1.46.05,2.09.05s1.18,0,1.85-.05v.53a4,4,0,0,0-.83.12.24.24,0,0,0-.14.21,8.55,8.55,0,0,0,.51,1.5l1.7,4.38,1.36-3.54a11.18,11.18,0,0,0,.75-2.35.21.21,0,0,0-.13-.21,3.59,3.59,0,0,0-.87-.11v-.53l1.47.05,1.4-.05v.53a1.79,1.79,0,0,0-.7.16,6.66,6.66,0,0,0-.7,1.46l-1.85,4.67a22.9,22.9,0,0,0-.81,2.21h-.88l-2.12-5.38c-.49-1.23-.84-2.06-1-2.5a1.31,1.31,0,0,0-.29-.47A2.86,2.86,0,0,0,272.25,208.76Z" transform="translate(-147.53 -88.16)"/><path class="cls-7" d="M282.13,217.14v-.52a2.84,2.84,0,0,0,.78-.09.49.49,0,0,0,.14-.36c0-.27.05-.85.05-1.77,0-.39,0-.75,0-1.09l0-.74a.83.83,0,0,0-.08-.46.67.67,0,0,0-.4-.1l-.45,0v-.48a7.2,7.2,0,0,0,2.39-.55l.15.13c-.06.81-.09,2-.09,3.53,0,.9,0,1.44,0,1.63s.05.21.11.25a2.76,2.76,0,0,0,.78.12v.52c-.72,0-1.28,0-1.68,0Zm1.67-9.21a.84.84,0,0,1,.66.29,1,1,0,0,1,0,1.39.9.9,0,0,1-.67.29.91.91,0,0,1-.66-.29,1,1,0,0,1,0-1.39A.88.88,0,0,1,283.8,207.93Z" transform="translate(-147.53 -88.16)"/><path class="cls-7" d="M290.74,211.23v-1.09a8.4,8.4,0,0,0,0-1.19.23.23,0,0,0-.12-.16,2.74,2.74,0,0,0-.81-.07v-.46a7.92,7.92,0,0,0,2.41-.61l.15.16c0,.68-.06,1.32-.07,1.93l0,5c0,.83,0,1.34,0,1.52a.34.34,0,0,0,.12.24,2.23,2.23,0,0,0,.74.13v.52c-.49,0-1,0-1.44,0a9.31,9.31,0,0,0-.94,0l-.11-.08c.06-.43.09-.77.11-1-.27.21-.71.58-1.3,1.11a1.79,1.79,0,0,1-.65.13,2.09,2.09,0,0,1-1.66-.78,3.16,3.16,0,0,1-.67-2.09,4.61,4.61,0,0,1,.14-1.16,2.47,2.47,0,0,1,.32-.77,3.19,3.19,0,0,1,.74-.67,6.58,6.58,0,0,1,1.09-.7,2.1,2.1,0,0,1,.76-.14,2.46,2.46,0,0,1,.6.07A3.06,3.06,0,0,1,290.74,211.23Zm0,1.36a2,2,0,0,0-.64-.63,1.57,1.57,0,0,0-.8-.21,1.09,1.09,0,0,0-.95.46,3.83,3.83,0,0,0,.07,3.26,1.22,1.22,0,0,0,1,.56,1.27,1.27,0,0,0,.79-.26,1,1,0,0,0,.43-.48,11.16,11.16,0,0,0,.06-1.64Z" transform="translate(-147.53 -88.16)"/><path class="cls-7" d="M294.47,215.08a4.91,4.91,0,0,0,.07.91,1.13,1.13,0,0,0,.5.46,1.74,1.74,0,0,0,.84.2,1.3,1.3,0,0,0,.88-.26.84.84,0,0,0,.29-.68.77.77,0,0,0-.21-.57,1.93,1.93,0,0,0-.9-.37,6,6,0,0,1-1.36-.42,1.25,1.25,0,0,1-.5-.54,1.75,1.75,0,0,1-.19-.85,1.93,1.93,0,0,1,.28-1,1.81,1.81,0,0,1,.79-.7,3.16,3.16,0,0,1,1.37-.26,4.49,4.49,0,0,1,1.66.3,12.8,12.8,0,0,0-.11,1.61h-.48a3,3,0,0,0-.1-.81.74.74,0,0,0-.34-.31,1.75,1.75,0,0,0-.75-.17,1.14,1.14,0,0,0-.78.24.75.75,0,0,0-.28.6.63.63,0,0,0,.25.53,3.35,3.35,0,0,0,1.2.38,5.7,5.7,0,0,1,.91.24,1.4,1.4,0,0,1,.64.56,1.72,1.72,0,0,1,.22.92,1.9,1.9,0,0,1-.79,1.65,3.1,3.1,0,0,1-1.87.57,4,4,0,0,1-.8-.09,7.23,7.23,0,0,1-1-.26l-.1-.1c.05-.37.08-.95.1-1.74Z" transform="translate(-147.53 -88.16)"/><path class="cls-7" d="M299,212l.81-.55c0-.75,0-1.4-.07-2a9.81,9.81,0,0,0,1.56-.64l.18.14a22.48,22.48,0,0,0-.18,2.47,3.29,3.29,0,0,0,.54.05,6,6,0,0,0,1.1-.09l.06,0-.06.23c-.06.24-.1.45-.13.65-.47,0-.81-.05-1-.05a3.64,3.64,0,0,0-.48,0c0,.43,0,.8,0,1.13a11,11,0,0,0,.13,2.43.55.55,0,0,0,.57.29l.28,0,.33-.09.1.24c-.24.28-.47.58-.7.88l-.41.06-.34,0a1.81,1.81,0,0,1-.85-.18,1.19,1.19,0,0,1-.49-.48,2,2,0,0,1-.16-.87c0-.21,0-.74,0-1.6s0-1.36,0-1.8l-.31,0c-.13,0-.29,0-.5,0Z" transform="translate(-147.53 -88.16)"/><path class="cls-7" d="M308.32,215.91l.18.18-.27.61a3.57,3.57,0,0,1-.93.43,4.05,4.05,0,0,1-1.06.14,2.74,2.74,0,0,1-2.07-.8,3.19,3.19,0,0,1-.75-2.26,4.42,4.42,0,0,1,.22-1.53,1.83,1.83,0,0,1,.59-.81,7.8,7.8,0,0,1,.95-.62,2.52,2.52,0,0,1,1.19-.29,2.34,2.34,0,0,1,1.63.58,2.42,2.42,0,0,1,.64,1.88c0,.1,0,.26,0,.48l-1,.19q-.45,0-1.32,0H305a2.59,2.59,0,0,0,.62,1.65,1.76,1.76,0,0,0,1.34.55,2.24,2.24,0,0,0,.68-.1A2.69,2.69,0,0,0,308.32,215.91ZM305,213.45c.36,0,.72.05,1.08.05s.65,0,1-.05v-.3a1.91,1.91,0,0,0-.27-1.14.88.88,0,0,0-.74-.36,1,1,0,0,0-.56.16,1.05,1.05,0,0,0-.34.48A4.54,4.54,0,0,0,305,213.45Z" transform="translate(-147.53 -88.16)"/><path class="cls-7" d="M317.08,211.23v-1.09a8.4,8.4,0,0,0,0-1.19.23.23,0,0,0-.12-.16,2.74,2.74,0,0,0-.81-.07v-.46a7.77,7.77,0,0,0,2.4-.61l.16.16c0,.68-.06,1.32-.07,1.93l0,5c0,.83,0,1.34,0,1.52a.34.34,0,0,0,.12.24,2.23,2.23,0,0,0,.74.13v.52c-.49,0-1,0-1.44,0a9.31,9.31,0,0,0-.94,0l-.11-.08c0-.43.09-.77.11-1-.27.21-.71.58-1.3,1.11a1.79,1.79,0,0,1-.65.13,2.09,2.09,0,0,1-1.66-.78,3.16,3.16,0,0,1-.67-2.09,4.61,4.61,0,0,1,.14-1.16,2.47,2.47,0,0,1,.32-.77,3.19,3.19,0,0,1,.74-.67,6.58,6.58,0,0,1,1.09-.7,2.1,2.1,0,0,1,.76-.14,2.52,2.52,0,0,1,.6.07A3.27,3.27,0,0,1,317.08,211.23Zm0,1.36a2,2,0,0,0-.64-.63,1.57,1.57,0,0,0-.8-.21,1.08,1.08,0,0,0-.95.46,3.83,3.83,0,0,0,.07,3.26,1.22,1.22,0,0,0,1,.56,1.29,1.29,0,0,0,.79-.26,1,1,0,0,0,.43-.48,11.16,11.16,0,0,0,.06-1.64Z" transform="translate(-147.53 -88.16)"/><path class="cls-7" d="M320,212v-.49a8.44,8.44,0,0,0,1.8-.36l.6-.22c.07,0,.1,0,.1.14l0,.38c-.07,1-.1,1.91-.1,2.82a5.53,5.53,0,0,0,.08,1.16.78.78,0,0,0,.31.45.93.93,0,0,0,.58.16,1.15,1.15,0,0,0,.75-.25,1,1,0,0,0,.4-.54,10.92,10.92,0,0,0,.07-1.71c0-.75,0-1.19,0-1.31a.21.21,0,0,0-.09-.14,2.91,2.91,0,0,0-.82-.09v-.49a9.75,9.75,0,0,0,1.81-.34l.64-.24c.07,0,.1,0,.1.13v.17c-.07.74-.1,2.08-.1,4a7.84,7.84,0,0,0,.05,1.12.24.24,0,0,0,.1.15,3,3,0,0,0,.75.11v.52c-.46,0-.92,0-1.37,0s-.71,0-1,0l0-.12c0-.21,0-.54,0-1a11.66,11.66,0,0,0-1.08,1,2,2,0,0,1-.84.2,1.85,1.85,0,0,1-1-.24,1.44,1.44,0,0,1-.61-.61,2.36,2.36,0,0,1-.19-1.06v-.7c0-.42,0-.77,0-1a10.38,10.38,0,0,0-.05-1.35.31.31,0,0,0-.12-.21A2.63,2.63,0,0,0,320,212Z" transform="translate(-147.53 -88.16)"/><path class="cls-7" d="M328.15,210.57l-.38,0-.06-.1a12.86,12.86,0,0,0,.4-1.68,2.7,2.7,0,0,1,.87-.48,3,3,0,0,1,1-.15,2.37,2.37,0,0,1,1.68.57,1.87,1.87,0,0,1,.61,1.43,2.2,2.2,0,0,1-.27,1.06,4.43,4.43,0,0,1-1,1.13,7.39,7.39,0,0,0-1.13,1,1,1,0,0,0-.2.57,1.32,1.32,0,0,0,.14.5l-.42.2a1.86,1.86,0,0,1-.32-1,1.53,1.53,0,0,1,.15-.64,5.61,5.61,0,0,1,.66-1,5.17,5.17,0,0,0,.62-.95,1.57,1.57,0,0,0,.15-.65,1,1,0,0,0-.31-.77,1.18,1.18,0,0,0-.86-.3,1.33,1.33,0,0,0-.47.07,1.23,1.23,0,0,0-.42.26Q328.41,209.93,328.15,210.57Zm1.4,4.67a.92.92,0,0,1,.68.29,1.07,1.07,0,0,1,0,1.44.91.91,0,0,1-.68.3.9.9,0,0,1-.68-.3,1,1,0,0,1-.28-.72,1,1,0,0,1,.28-.71A.9.9,0,0,1,329.55,215.24Z" transform="translate(-147.53 -88.16)"/><path d="M239.15,228.72h-3.21l-.38.94a4.93,4.93,0,0,0-.37,1.15.24.24,0,0,0,.07.2.85.85,0,0,0,.35.09l.53.06v.37c-.35,0-.75,0-1.2,0s-1,0-1.4,0v-.37h.16a1.2,1.2,0,0,0,.51-.09,1,1,0,0,0,.24-.36c.26-.56.53-1.17.8-1.82l1.53-3.65c.41-1,.69-1.67.83-2.11H238l2.81,6.9a6.64,6.64,0,0,0,.38.84.49.49,0,0,0,.22.21,1.6,1.6,0,0,0,.55.08v.37c-.49,0-.94,0-1.38,0s-.95,0-1.63,0v-.37l.55,0a.93.93,0,0,0,.35-.07.17.17,0,0,0,.08-.16,2.37,2.37,0,0,0-.16-.55Zm-3-.48h2.8l-1.4-3.52Z" transform="translate(-147.53 -88.16)"/><path d="M244.23,226.93v2.3a6.55,6.55,0,0,0,.06,1.15.68.68,0,0,0,.22.39.74.74,0,0,0,.75.07,1,1,0,0,0,.3-.2l.16.21-.54.67-.34.09a1.29,1.29,0,0,1-.33,0,1.39,1.39,0,0,1-.7-.16.93.93,0,0,1-.41-.4,1.8,1.8,0,0,1-.13-.75l0-1.13V227c-.29,0-.58,0-.89,0v-.25a8.19,8.19,0,0,0,.89-.41c0-.55,0-1.16-.05-1.81a10,10,0,0,0,.93-.46l.15.11c0,.31-.06,1-.1,2.16h1.11l.44,0-.06.61h-1.49Z" transform="translate(-147.53 -88.16)"/><path d="M252.74,226.32V226c.38,0,.72.05,1,.05s.73,0,1.12-.05v.34h-.17a.54.54,0,0,0-.25.06.3.3,0,0,0-.14.1,8.79,8.79,0,0,0-.4.82c-.42.91-.74,1.63-1,2.15s-.51,1.24-.85,2.14h-.58q-.72-1.93-1.5-3.75c-.18-.45-.3-.73-.34-.86a1.13,1.13,0,0,0-.28-.52.56.56,0,0,0-.39-.14h-.18V226c.54,0,1,.05,1.36.05s.82,0,1.28-.05v.34h-.25a1,1,0,0,0-.47.08.19.19,0,0,0-.1.18,1.55,1.55,0,0,0,.1.4c.07.2.52,1.38,1.35,3.55l1-2.54a10,10,0,0,0,.42-1.21,1.37,1.37,0,0,0,0-.16.19.19,0,0,0-.07-.17,1.26,1.26,0,0,0-.37-.09Z" transform="translate(-147.53 -88.16)"/><path d="M257.25,225.84l.14.09c0,.29-.05.62-.06,1q0,1.71,0,2.52a12.25,12.25,0,0,0,.05,1.3.53.53,0,0,0,.1.3.89.89,0,0,0,.4.12l.38.05v.34c-.54,0-1,0-1.48,0s-.88,0-1.32,0v-.34l.48-.05c.18,0,.3,0,.34-.11a1.47,1.47,0,0,0,.08-.57c0-.49,0-1.18,0-2.05q0-.91,0-1.41a.34.34,0,0,0-.1-.25.6.6,0,0,0-.38-.08h-.42v-.34a10.14,10.14,0,0,0,1-.19A7.39,7.39,0,0,0,257.25,225.84Zm-.44-2.59a.59.59,0,0,1,.44.19.68.68,0,0,1,.18.48.63.63,0,0,1-.18.46.6.6,0,0,1-.89,0,.63.63,0,0,1-.18-.46.68.68,0,0,1,.18-.48A.6.6,0,0,1,256.81,223.25Z" transform="translate(-147.53 -88.16)"/><path d="M263.46,227.05l.77-.73a1.63,1.63,0,0,1,.5-.34,2.24,2.24,0,0,1,.77-.11,2.08,2.08,0,0,1,1.59.64,2.32,2.32,0,0,1,.61,1.67,3.76,3.76,0,0,1-.13,1,3.46,3.46,0,0,1-.34.81,2.59,2.59,0,0,1-.45.52l-.68.47-.22.17a3.13,3.13,0,0,1-.68.4,1.55,1.55,0,0,1-.59.1,2.22,2.22,0,0,1-.55-.08,3.48,3.48,0,0,1-.6-.23v.83c0,.84,0,1.44,0,1.79a.46.46,0,0,0,.14.33.84.84,0,0,0,.51.1h.3v.33c-.7,0-1.21,0-1.54,0s-.82,0-1.37,0v-.33h.4c.29,0,.46-.06.51-.19a12.78,12.78,0,0,0,.08-2.06v-3.6c0-.63,0-1.11,0-1.45a.46.46,0,0,0-.11-.32c-.05-.06-.19-.08-.4-.08h-.43v-.37a7.38,7.38,0,0,0,1.52-.33l.34-.14c.06,0,.09.05.09.16l0,.62Zm0,3.22a2.25,2.25,0,0,0,.71.6,1.64,1.64,0,0,0,.76.18,1.53,1.53,0,0,0,1.34-.7,2.94,2.94,0,0,0,.47-1.66,2.45,2.45,0,0,0-.22-1.1,1.62,1.62,0,0,0-.62-.72,1.56,1.56,0,0,0-.88-.26,1.49,1.49,0,0,0-.65.14,1.57,1.57,0,0,0-.56.39,1.07,1.07,0,0,0-.3.46,3.42,3.42,0,0,0-.05.83Z" transform="translate(-147.53 -88.16)"/><path d="M268.93,227.46v-.8l.61-.36a3.25,3.25,0,0,1,.72-.34,2.27,2.27,0,0,1,.65-.09,2,2,0,0,1,1.24.36,1.43,1.43,0,0,1,.56.92,17.74,17.74,0,0,1,.09,2.09,13.57,13.57,0,0,0,.06,1.74.26.26,0,0,0,.28.17h.43v.38l-.88,0c-.21,0-.48,0-.83,0v-1l-1.15.93a1.07,1.07,0,0,1-.31.17,1.47,1.47,0,0,1-.41.05,1.49,1.49,0,0,1-1.1-.37,1.35,1.35,0,0,1-.38-1,1.93,1.93,0,0,1,.27-1,1.59,1.59,0,0,1,.77-.65,13.81,13.81,0,0,1,2.31-.55,1.82,1.82,0,0,0-.31-1.12,1.3,1.3,0,0,0-1.08-.46,1.63,1.63,0,0,0-.5.07,1.32,1.32,0,0,0-.43.21c-.11.28-.21.54-.3.8Zm2.93.93a6.63,6.63,0,0,0-2,.66,1.09,1.09,0,0,0-.42.95,1,1,0,0,0,.24.69.77.77,0,0,0,.62.26,1.46,1.46,0,0,0,.79-.24,2.8,2.8,0,0,0,.73-.73v-1.59Zm-.88-5.63a1.09,1.09,0,0,1,.82.36,1.2,1.2,0,0,1,.34.85,1.23,1.23,0,0,1-.34.86,1.11,1.11,0,0,1-1.64,0,1.22,1.22,0,0,1-.33-.86,1.19,1.19,0,0,1,.33-.85A1.09,1.09,0,0,1,271,222.76Zm0,.6a.49.49,0,0,0-.38.18.61.61,0,0,0-.16.44.59.59,0,0,0,.16.43.49.49,0,0,0,.38.18.48.48,0,0,0,.38-.18.59.59,0,0,0,.16-.43.61.61,0,0,0-.16-.44A.48.48,0,0,0,271,223.36Z" transform="translate(-147.53 -88.16)"/><path d="M277.9,231q.09-.91.09-3.18v-1.7c0-.69,0-1.29-.07-1.8a1.23,1.23,0,0,0-.1-.51,1.15,1.15,0,0,0-.46-.13l-.44-.07v-.36l1.23,0h1.49l1.22,0a6.61,6.61,0,0,1,1.51.15,3.41,3.41,0,0,1,1.4.66,3.25,3.25,0,0,1,1,1.24,4.27,4.27,0,0,1,.33,1.73,4.46,4.46,0,0,1-1.27,3.27,4.38,4.38,0,0,1-3.3,1.3l-.68,0-1.27,0a11,11,0,0,0-1.15.07v-.28Zm1.2,0a8.35,8.35,0,0,0,1.32.11,3.33,3.33,0,0,0,2.42-.84,4,4,0,0,0,1-3,3.57,3.57,0,0,0-.87-2.6,3.34,3.34,0,0,0-2.53-.9,9.42,9.42,0,0,0-1.38.12,12,12,0,0,0-.07,1.28v3.83C279,229.64,279.06,230.3,279.1,230.92Z" transform="translate(-147.53 -88.16)"/><path d="M286.26,227.46v-.8l.61-.36a3.25,3.25,0,0,1,.72-.34,2.29,2.29,0,0,1,.66-.09,2,2,0,0,1,1.23.36,1.44,1.44,0,0,1,.57.92c0,.29.07,1,.08,2.09a12.5,12.5,0,0,0,.07,1.74.25.25,0,0,0,.27.17h.44v.38l-.89,0-.83,0V231c0-.17,0-.34,0-.51l-1.15.93a.92.92,0,0,1-.3.17,1.5,1.5,0,0,1-.42.05,1.47,1.47,0,0,1-1.09-.37,1.31,1.31,0,0,1-.38-1,1.93,1.93,0,0,1,.27-1,1.56,1.56,0,0,1,.76-.65,13.81,13.81,0,0,1,2.31-.55,1.82,1.82,0,0,0-.31-1.12,1.3,1.3,0,0,0-1.08-.46,1.63,1.63,0,0,0-.5.07,1.43,1.43,0,0,0-.43.21c-.11.28-.21.54-.29.8Zm2.93.93a6.63,6.63,0,0,0-2,.66,1.09,1.09,0,0,0-.42.95,1,1,0,0,0,.24.69.79.79,0,0,0,.62.26,1.49,1.49,0,0,0,.8-.24,2.94,2.94,0,0,0,.72-.73v-1.59Z" transform="translate(-147.53 -88.16)"/><path d="M293.3,226.92l.74-.71a1.11,1.11,0,0,1,.38-.24,1.63,1.63,0,0,1,.57-.1,2,2,0,0,1,1,.23,2.17,2.17,0,0,1,.69.86l.72-.69a1.13,1.13,0,0,1,.45-.27,1.9,1.9,0,0,1,.68-.13,1.77,1.77,0,0,1,.91.24,1.6,1.6,0,0,1,.6.64,2.43,2.43,0,0,1,.2,1.07l0,2.29a2.53,2.53,0,0,0,.08.91c.06.09.2.14.43.16h.41v.34h-.27l-.88,0c-.23,0-.5,0-.82,0,.05-.72.08-1.56.08-2.53a7.7,7.7,0,0,0-.1-1.61,1.1,1.1,0,0,0-.38-.61,1.18,1.18,0,0,0-.71-.22,1.32,1.32,0,0,0-.83.28,1.08,1.08,0,0,0-.42.66,17.6,17.6,0,0,0-.06,2.09c0,.72,0,1.13,0,1.23a.34.34,0,0,0,.09.22,1.48,1.48,0,0,0,.48.11l.37,0v.34l-1.44,0-1.42,0v-.34h.37a.63.63,0,0,0,.43-.1.72.72,0,0,0,.12-.47c0-.64,0-1.31,0-2a4.67,4.67,0,0,0-.12-1.29,1.1,1.1,0,0,0-.4-.56,1.13,1.13,0,0,0-.69-.21,1.33,1.33,0,0,0-.78.26,1.21,1.21,0,0,0-.47.61,5.91,5.91,0,0,0-.09,1.39q0,1.26,0,1.86a.54.54,0,0,0,.08.35,1,1,0,0,0,.48.12l.38,0v.34c-.46,0-.9,0-1.31,0s-1,0-1.52,0v-.34h.42c.24,0,.38-.06.43-.2a15.38,15.38,0,0,0,.07-2.21c0-1,0-1.55,0-1.73s0-.29-.1-.33a.86.86,0,0,0-.47-.07h-.34v-.33a6.75,6.75,0,0,0,1.4-.32l.41-.16c.06,0,.1,0,.1.14v.21C293.3,226.41,293.29,226.65,293.3,226.92Z" transform="translate(-147.53 -88.16)"/><path d="M302,227.46v-.8l.61-.36a3.25,3.25,0,0,1,.72-.34,2.27,2.27,0,0,1,.65-.09,2,2,0,0,1,1.24.36,1.43,1.43,0,0,1,.56.92,17.74,17.74,0,0,1,.09,2.09,13.57,13.57,0,0,0,.06,1.74.26.26,0,0,0,.28.17h.44v.38l-.89,0c-.21,0-.48,0-.83,0v-1l-1.15.93a1,1,0,0,1-.31.17,1.42,1.42,0,0,1-.41.05,1.49,1.49,0,0,1-1.1-.37,1.34,1.34,0,0,1-.37-1,2,2,0,0,1,.26-1,1.59,1.59,0,0,1,.77-.65,13.81,13.81,0,0,1,2.31-.55,1.82,1.82,0,0,0-.31-1.12,1.3,1.3,0,0,0-1.08-.46,1.63,1.63,0,0,0-.5.07,1.32,1.32,0,0,0-.43.21c-.11.28-.21.54-.3.8Zm2.93.93a6.63,6.63,0,0,0-2,.66,1.09,1.09,0,0,0-.42.95,1,1,0,0,0,.24.69.79.79,0,0,0,.62.26,1.46,1.46,0,0,0,.79-.24,2.8,2.8,0,0,0,.73-.73v-1.59Z" transform="translate(-147.53 -88.16)"/><path d="M311.86,227a2.09,2.09,0,0,1,.12.61,1.88,1.88,0,0,1-.3,1,2.22,2.22,0,0,1-.85.78,2.48,2.48,0,0,1-1.2.3h-.26a2.34,2.34,0,0,0-.47.43.48.48,0,0,0-.09.27.38.38,0,0,0,.21.35,2,2,0,0,0,.89.13l.73,0,1,0a1.26,1.26,0,0,1,.67.15,1.11,1.11,0,0,1,.4.52,2.07,2.07,0,0,1,.17.84,2.35,2.35,0,0,1-.38,1.26,2.66,2.66,0,0,1-1.1,1,3.56,3.56,0,0,1-1.66.37,2.64,2.64,0,0,1-1.76-.53,1.64,1.64,0,0,1-.62-1.29,1.8,1.8,0,0,1,.32-1,5.64,5.64,0,0,0,1-.58,1.59,1.59,0,0,1-.58-.29.44.44,0,0,1-.13-.33,1,1,0,0,1,.13-.49,1.18,1.18,0,0,1,.36-.36l.54-.4a2,2,0,0,1-1-.5,1.6,1.6,0,0,1-.39-1.11,2.13,2.13,0,0,1,.29-1.08,2,2,0,0,1,.85-.76,3.09,3.09,0,0,1,1.38-.36,1.89,1.89,0,0,1,1.4.51H312a8.41,8.41,0,0,0,1.13,0l.06.12a4.68,4.68,0,0,0-.3.54Zm-2.36,4.65a1.11,1.11,0,0,0-.54.1,1.68,1.68,0,0,0-.56.51,1.49,1.49,0,0,0-.17.77,1.38,1.38,0,0,0,.45,1.06,1.79,1.79,0,0,0,1.25.41,2.32,2.32,0,0,0,1.08-.24,1.77,1.77,0,0,0,.72-.66,1.65,1.65,0,0,0,.26-.86,1.22,1.22,0,0,0-.18-.67.79.79,0,0,0-.43-.37,2.2,2.2,0,0,0-.58,0Zm1.52-3.73a1.83,1.83,0,0,0-.36-1.18,1.11,1.11,0,0,0-.9-.45,1.13,1.13,0,0,0-.86.37,1.49,1.49,0,0,0-.32,1,2,2,0,0,0,.35,1.23,1.16,1.16,0,0,0,1.76.07A1.54,1.54,0,0,0,311,227.88Z" transform="translate(-147.53 -88.16)"/><path d="M314.59,228.7a2.63,2.63,0,0,0,.56,1.75,1.77,1.77,0,0,0,1.39.6,2.38,2.38,0,0,0,.78-.14,3.29,3.29,0,0,0,.76-.4l.09.09-.18.49a3.63,3.63,0,0,1-.95.42,3.72,3.72,0,0,1-1,.14,2.36,2.36,0,0,1-1.82-.75,2.91,2.91,0,0,1-.69-2,3.54,3.54,0,0,1,.39-1.71,2.37,2.37,0,0,1,.94-.88,2.62,2.62,0,0,1,1.34-.4,2,2,0,0,1,1.56.61,2.38,2.38,0,0,1,.57,1.7v.35a4.67,4.67,0,0,1-.7.12c-.4,0-.94,0-1.65,0Zm0-.44c.57,0,1.21,0,1.9,0,.28,0,.54,0,.8,0v-.33a2.52,2.52,0,0,0-.19-1,1.09,1.09,0,0,0-.43-.48,1.36,1.36,0,0,0-.7-.19,1.2,1.2,0,0,0-1,.48A2.5,2.5,0,0,0,314.6,228.26Z" transform="translate(-147.53 -88.16)"/><path d="M320.76,227.2a5.66,5.66,0,0,0,.49-.59,2.1,2.1,0,0,1,.58-.58,1,1,0,0,1,.56-.16,1.19,1.19,0,0,1,.47.07.12.12,0,0,1,.07.11v.06a8.49,8.49,0,0,0-.1,1.33h-.25a1,1,0,0,0-.3-.42.74.74,0,0,0-.42-.12,1,1,0,0,0-.61.23,1.2,1.2,0,0,0-.37.66,9.61,9.61,0,0,0-.09,1.65,13,13,0,0,0,.06,1.37c0,.14,0,.23.11.26a1.28,1.28,0,0,0,.62.12h.33v.34c-.56,0-1.1,0-1.61,0s-1,0-1.46,0v-.34l.54,0a.56.56,0,0,0,.35-.12,1.12,1.12,0,0,0,.1-.56c0-.57,0-1.23,0-2a6.76,6.76,0,0,0-.11-1.66q-.08-.15-.45-.15h-.47v-.34a9.39,9.39,0,0,0,1-.17,4.38,4.38,0,0,0,.75-.26.27.27,0,0,1,.13,0s.07,0,.08,0a.3.3,0,0,1,0,.16Z" transform="translate(-147.53 -88.16)"/><path d="M329.49,226.92l3.79,3.72.35.34a.46.46,0,0,0,.21.15,1.48,1.48,0,0,0,.36,0v.37c-.31,0-.57,0-.8,0s-.51,0-.79,0l-3.83-3.83c-.13-.13-.21-.19-.24-.19s-.11.07-.11.23v1.78a8.39,8.39,0,0,0,.05,1.43q.07.21.6.21h.42v.37c-.61,0-1.14,0-1.61,0s-1,0-1.58,0v-.37h.45c.3,0,.48,0,.53-.17a6,6,0,0,0,.09-1.49v-3.92a8.76,8.76,0,0,0-.09-1.81c-.05-.14-.23-.21-.53-.21h-.45v-.36l1.48,0,1.71,0v.36l-.44,0a.87.87,0,0,0-.48.11.55.55,0,0,0-.13.36c0,.18,0,.7,0,1.55v1.59h.08l.78-.72q.33-.33,1.08-1.14l1.57-1.72v-.41c.41,0,.75,0,1,0s.59,0,.93,0v.36h-.3a1.29,1.29,0,0,0-.68.17,9.25,9.25,0,0,0-1.28,1.13Z" transform="translate(-147.53 -88.16)"/><path d="M334.65,228.72a3,3,0,0,1,.36-1.46,2.56,2.56,0,0,1,1-1,2.86,2.86,0,0,1,1.46-.37,2.5,2.5,0,0,1,1.9.74,2.71,2.71,0,0,1,.71,2,3,3,0,0,1-.93,2.31,2.81,2.81,0,0,1-2,.77,2.29,2.29,0,0,1-1.81-.79A3.08,3.08,0,0,1,334.65,228.72Zm1.05-.41a4.15,4.15,0,0,0,.47,2.06,1.45,1.45,0,0,0,1.35.86,1.28,1.28,0,0,0,1.08-.54,2.63,2.63,0,0,0,.42-1.63,4.25,4.25,0,0,0-.25-1.54,2,2,0,0,0-.64-.94,1.47,1.47,0,0,0-.89-.3,1.42,1.42,0,0,0-1.32.87A2.92,2.92,0,0,0,335.7,228.31Z" transform="translate(-147.53 -88.16)"/><path d="M342.68,222.83c-.06,1.15-.1,2.18-.1,3.11v3a13,13,0,0,0,.08,2c0,.08.14.14.36.16l.47.05v.34c-.4,0-.79,0-1.15,0s-.95,0-1.61,0v-.34l.48,0c.21,0,.33-.07.36-.17a14.13,14.13,0,0,0,.07-2.08v-4.12l0-.76a.65.65,0,0,0-.06-.36.53.53,0,0,0-.37-.09h-.46v-.35a5.42,5.42,0,0,0,1.85-.46Z" transform="translate(-147.53 -88.16)"/><path d="M346,222.83c-.07,1.15-.1,2.18-.1,3.11v3a15.62,15.62,0,0,0,.07,2c0,.08.15.14.37.16l.47.05v.34c-.4,0-.79,0-1.15,0s-.95,0-1.61,0v-.34l.48,0c.21,0,.33-.07.36-.17a14.13,14.13,0,0,0,.07-2.08v-4.12l0-.76a.65.65,0,0,0-.06-.36.53.53,0,0,0-.37-.09H344v-.35a5.42,5.42,0,0,0,1.85-.46Z" transform="translate(-147.53 -88.16)"/><path d="M348.46,228.7a2.63,2.63,0,0,0,.56,1.75,1.77,1.77,0,0,0,1.4.6,2.32,2.32,0,0,0,.77-.14,3.1,3.1,0,0,0,.76-.4l.09.09-.18.49a3.49,3.49,0,0,1-.95.42,3.72,3.72,0,0,1-1,.14,2.36,2.36,0,0,1-1.82-.75,2.91,2.91,0,0,1-.69-2,3.54,3.54,0,0,1,.39-1.71,2.37,2.37,0,0,1,.94-.88,2.64,2.64,0,0,1,1.34-.4,2,2,0,0,1,1.56.61,2.38,2.38,0,0,1,.57,1.7v.35a4.67,4.67,0,0,1-.7.12c-.39,0-.94,0-1.64,0Zm0-.44c.57,0,1.21,0,1.9,0,.28,0,.55,0,.8,0v-.33a2.52,2.52,0,0,0-.19-1,1,1,0,0,0-.43-.48,1.36,1.36,0,0,0-.7-.19,1.2,1.2,0,0,0-1,.48A2.57,2.57,0,0,0,348.47,228.26Z" transform="translate(-147.53 -88.16)"/><path d="M357.5,227a1.85,1.85,0,0,1,.13.61,1.88,1.88,0,0,1-.3,1,2.25,2.25,0,0,1-.86.78,2.48,2.48,0,0,1-1.2.3H355a2.2,2.2,0,0,0-.46.43.43.43,0,0,0-.1.27.38.38,0,0,0,.22.35,1.9,1.9,0,0,0,.88.13l.73,0,1,0a1.27,1.27,0,0,1,.68.15,1.16,1.16,0,0,1,.39.52,1.91,1.91,0,0,1,.17.84,2.26,2.26,0,0,1-.38,1.26,2.6,2.6,0,0,1-1.1,1,3.53,3.53,0,0,1-1.66.37,2.64,2.64,0,0,1-1.76-.53,1.63,1.63,0,0,1-.61-1.29,1.72,1.72,0,0,1,.32-1,6.06,6.06,0,0,0,1-.58,1.5,1.5,0,0,1-.58-.29.45.45,0,0,1-.14-.33,1.09,1.09,0,0,1,.13-.49,1.25,1.25,0,0,1,.37-.36l.54-.4a1.88,1.88,0,0,1-1-.5,1.6,1.6,0,0,1-.39-1.11,2,2,0,0,1,.29-1.08,1.92,1.92,0,0,1,.85-.76,3,3,0,0,1,1.38-.36,2.35,2.35,0,0,1,.74.11,2.44,2.44,0,0,1,.65.4h.47a8.25,8.25,0,0,0,1.12,0l.06.12a3.5,3.5,0,0,0-.29.54Zm-2.36,4.65a1,1,0,0,0-.53.1,1.86,1.86,0,0,0-.57.51,1.6,1.6,0,0,0-.17.77,1.38,1.38,0,0,0,.45,1.06,1.81,1.81,0,0,0,1.25.41,2.32,2.32,0,0,0,1.08-.24,1.87,1.87,0,0,0,.73-.66,1.64,1.64,0,0,0,.25-.86,1.22,1.22,0,0,0-.18-.67.76.76,0,0,0-.43-.37,2.09,2.09,0,0,0-.58,0Zm1.52-3.73a1.88,1.88,0,0,0-.35-1.18,1.15,1.15,0,0,0-1.76-.08,1.45,1.45,0,0,0-.33,1,1.92,1.92,0,0,0,.36,1.23,1.15,1.15,0,0,0,1.75.07A1.54,1.54,0,0,0,356.66,227.88Z" transform="translate(-147.53 -88.16)"/><path d="M361,225.84l.13.09c0,.29,0,.62,0,1,0,1.14,0,2,0,2.52s0,.94.05,1.3a.52.52,0,0,0,.11.3.89.89,0,0,0,.4.12l.38.05v.34c-.54,0-1,0-1.48,0s-.88,0-1.32,0v-.34l.48-.05c.18,0,.3,0,.34-.11a1.47,1.47,0,0,0,.08-.57c0-.49,0-1.18,0-2.05q0-.91,0-1.41a.34.34,0,0,0-.1-.25.65.65,0,0,0-.38-.08h-.42v-.34a10.14,10.14,0,0,0,1-.19A8.21,8.21,0,0,0,361,225.84Zm-.44-2.59a.59.59,0,0,1,.44.19.68.68,0,0,1,.18.48.63.63,0,0,1-.18.46.6.6,0,0,1-.44.2.59.59,0,0,1-.45-.2.63.63,0,0,1-.18-.46.68.68,0,0,1,.18-.48A.58.58,0,0,1,360.52,223.25Z" transform="translate(-147.53 -88.16)"/><path d="M363.54,228.7a2.69,2.69,0,0,0,.56,1.75,1.79,1.79,0,0,0,1.4.6,2.28,2.28,0,0,0,.77-.14,2.93,2.93,0,0,0,.76-.4l.09.09-.17.49a3.71,3.71,0,0,1-2,.56,2.36,2.36,0,0,1-1.82-.75,2.91,2.91,0,0,1-.69-2,3.54,3.54,0,0,1,.39-1.71,2.41,2.41,0,0,1,.95-.88,2.58,2.58,0,0,1,1.33-.4,2,2,0,0,1,1.56.61,2.38,2.38,0,0,1,.58,1.7v.35a4.89,4.89,0,0,1-.7.12c-.4,0-.95,0-1.65,0Zm0-.44c.58,0,1.21,0,1.9,0,.28,0,.55,0,.81,0v-.33a2.53,2.53,0,0,0-.2-1,1.07,1.07,0,0,0-.42-.48,1.39,1.39,0,0,0-.71-.19,1.19,1.19,0,0,0-1,.48A2.49,2.49,0,0,0,363.55,228.26Z" transform="translate(-147.53 -88.16)"/><path d="M369.68,226.93v2.3a6.55,6.55,0,0,0,.06,1.15.63.63,0,0,0,.22.39.67.67,0,0,0,.43.14.74.74,0,0,0,.32-.07,1,1,0,0,0,.3-.2l.16.21-.54.67-.35.09a1.22,1.22,0,0,1-.32,0,1.37,1.37,0,0,1-.7-.16.88.88,0,0,1-.41-.4,1.65,1.65,0,0,1-.13-.75l0-1.13V227c-.28,0-.58,0-.88,0v-.25a8,8,0,0,0,.88-.41c0-.55,0-1.16,0-1.81a10,10,0,0,0,.93-.46l.14.11c0,.31-.06,1-.09,2.16h1.11l.44,0-.06.61h-1.49Z" transform="translate(-147.53 -88.16)"/><path d="M234.09,241.38l.72-.67a1.42,1.42,0,0,1,.51-.35,1.7,1.7,0,0,1,.59-.09,2,2,0,0,1,1.07.26,1.4,1.4,0,0,1,.63.67,3.78,3.78,0,0,1,.17,1.38l0,1.74c0,.39,0,.69,0,.92a.35.35,0,0,0,.1.21.56.56,0,0,0,.32.1l.42,0v.34c-.36,0-.71,0-1,0s-.58,0-.87,0c.07-1,.1-1.94.1-2.89a5.17,5.17,0,0,0-.11-1.3,1.09,1.09,0,0,0-.41-.54,1.31,1.31,0,0,0-.74-.19,1.52,1.52,0,0,0-.84.23,1.25,1.25,0,0,0-.52.53,3.09,3.09,0,0,0-.1,1v1a9.1,9.1,0,0,0,.06,1.54c0,.1.19.16.44.19l.48,0v.34c-.57,0-1,0-1.39,0s-.85,0-1.44,0v-.34l.35,0a1.1,1.1,0,0,0,.41-.1c.06,0,.09-.12.11-.25a14.08,14.08,0,0,0,0-1.42v-3.95a8.44,8.44,0,0,0-.08-1.75c0-.09-.18-.13-.45-.13h-.38v-.36a7.09,7.09,0,0,0,1.38-.26l.45-.17q.09,0,.09.12v.24l0,1.06c0,.53,0,.94,0,1.23Z" transform="translate(-147.53 -88.16)"/><path d="M239.48,241.86v-.8l.61-.36a3.25,3.25,0,0,1,.72-.34,2.29,2.29,0,0,1,.66-.09,2,2,0,0,1,1.23.36,1.48,1.48,0,0,1,.57.92c0,.29.07,1,.08,2.09a12.5,12.5,0,0,0,.07,1.74.25.25,0,0,0,.27.17h.44v.38l-.89,0-.83,0v-.52c0-.17,0-.34,0-.51l-1.15.93a.92.92,0,0,1-.3.17,1.81,1.81,0,0,1-1.52-.32,1.34,1.34,0,0,1-.37-1,1.93,1.93,0,0,1,.27-1,1.56,1.56,0,0,1,.76-.65,13.81,13.81,0,0,1,2.31-.55,1.82,1.82,0,0,0-.31-1.12,1.3,1.3,0,0,0-1.08-.46,1.63,1.63,0,0,0-.5.07,1.43,1.43,0,0,0-.43.21c-.11.27-.21.54-.3.8Zm2.93.93a6.63,6.63,0,0,0-2,.66,1.09,1.09,0,0,0-.42,1,1,1,0,0,0,.24.69.79.79,0,0,0,.62.26,1.49,1.49,0,0,0,.8-.24,2.94,2.94,0,0,0,.72-.73v-1.59Z" transform="translate(-147.53 -88.16)"/><path d="M246.48,241.6A5.66,5.66,0,0,0,247,241a2.3,2.3,0,0,1,.57-.59,1.16,1.16,0,0,1,.57-.15,1.11,1.11,0,0,1,.46.07c.06,0,.08.06.08.11v.06a8.49,8.49,0,0,0-.1,1.33h-.25a1,1,0,0,0-.3-.42.74.74,0,0,0-.42-.12,1,1,0,0,0-.61.23,1.2,1.2,0,0,0-.37.66,8.38,8.38,0,0,0-.1,1.65,13,13,0,0,0,.06,1.37c0,.14.06.23.12.26a1.26,1.26,0,0,0,.62.12h.33v.34c-.57,0-1.1,0-1.61,0s-1,0-1.46,0v-.34l.53,0a.57.57,0,0,0,.36-.12,1.25,1.25,0,0,0,.1-.56c0-.57,0-1.23,0-2a6.76,6.76,0,0,0-.11-1.66q-.07-.15-.45-.15h-.47v-.34a9.39,9.39,0,0,0,1-.17,4.38,4.38,0,0,0,.75-.26.24.24,0,0,1,.13,0s.07,0,.08,0a.32.32,0,0,1,0,.16Z" transform="translate(-147.53 -88.16)"/><path d="M253.82,240.24l.13.09c0,.29,0,.62,0,1,0,1.14,0,2,0,2.52s0,.94,0,1.3a.52.52,0,0,0,.11.3.84.84,0,0,0,.4.12l.37.05v.34c-.54,0-1,0-1.47,0s-.88,0-1.32,0v-.34l.47-.05c.19,0,.3,0,.34-.11a1.38,1.38,0,0,0,.09-.57c0-.49,0-1.18,0-2.05,0-.61,0-1.08,0-1.41a.34.34,0,0,0-.1-.25.59.59,0,0,0-.39-.08H252v-.34a9.27,9.27,0,0,0,1-.19A7.44,7.44,0,0,0,253.82,240.24Zm-.45-2.59a.58.58,0,0,1,.44.19.69.69,0,0,1,.19.48.64.64,0,0,1-.19.46.58.58,0,0,1-.88,0,.63.63,0,0,1-.18-.46.68.68,0,0,1,.18-.48A.58.58,0,0,1,253.37,237.65Z" transform="translate(-147.53 -88.16)"/><path d="M257,241.39l.84-.79a1,1,0,0,1,.31-.2,2.14,2.14,0,0,1,.74-.13,2,2,0,0,1,1,.25,1.51,1.51,0,0,1,.62.66,3.18,3.18,0,0,1,.19,1.28l0,1.84a4.29,4.29,0,0,0,.07,1.11.44.44,0,0,0,.41.18h.4v.34c-.39,0-.74,0-1,0s-.59,0-.91,0c.07-.76.11-1.79.11-3.09a3.53,3.53,0,0,0-.13-1.11,1.19,1.19,0,0,0-.44-.53,1.38,1.38,0,0,0-.74-.19,1.48,1.48,0,0,0-.92.28,1.2,1.2,0,0,0-.47.63,8.78,8.78,0,0,0-.05,1.2c0,.72,0,1.38,0,2a.6.6,0,0,0,.07.35.67.67,0,0,0,.46.13h.4v.34l-1.5,0c-.39,0-.84,0-1.34,0v-.34h.4c.27,0,.44-.06.48-.2a18.24,18.24,0,0,0,.07-2.43c0-.67,0-1.19,0-1.57a.42.42,0,0,0-.09-.26.88.88,0,0,0-.44-.07h-.4v-.34a7.78,7.78,0,0,0,.85-.15,5.6,5.6,0,0,0,.85-.31l.1,0c.05,0,.08,0,.08.13v1Z" transform="translate(-147.53 -88.16)"/><path d="M262.49,244.14v.38a1.28,1.28,0,0,0,.07.57,1.43,1.43,0,0,0,.57.37,2.16,2.16,0,0,0,.86.17,1.32,1.32,0,0,0,.93-.32,1,1,0,0,0,.37-.78.74.74,0,0,0-.22-.57,1.57,1.57,0,0,0-.8-.35,7.48,7.48,0,0,1-1.46-.41,1.17,1.17,0,0,1-.53-.47,1.34,1.34,0,0,1-.18-.71,1.67,1.67,0,0,1,.53-1.27,2.23,2.23,0,0,1,1.53-.48,4.1,4.1,0,0,1,1.55.32c0,.27-.06.72-.08,1.34h-.33a1.75,1.75,0,0,0-.11-.68,1.15,1.15,0,0,0-.46-.39,1.54,1.54,0,0,0-.72-.18,1.13,1.13,0,0,0-.81.28.88.88,0,0,0-.3.68.72.72,0,0,0,.24.59,3.77,3.77,0,0,0,1.32.44,4.1,4.1,0,0,1,1.05.31,1.06,1.06,0,0,1,.41.45,1.37,1.37,0,0,1,.16.68,1.78,1.78,0,0,1-.64,1.37,2.49,2.49,0,0,1-1.71.57,6.12,6.12,0,0,1-1.54-.23q-.15,0-.15-.12l0-.08a2.7,2.7,0,0,0,0-.31c0-.38,0-.68,0-.89v-.28Z" transform="translate(-147.53 -88.16)"/><path d="M268.53,241.33v2.3a8.38,8.38,0,0,0,.05,1.15.69.69,0,0,0,.23.39.73.73,0,0,0,.74.07,1,1,0,0,0,.31-.2l.16.21-.54.67-.35.09a1.22,1.22,0,0,1-.32,0,1.37,1.37,0,0,1-.7-.16.88.88,0,0,1-.41-.4,1.65,1.65,0,0,1-.13-.75l0-1.13v-2.23c-.28,0-.58,0-.88,0v-.25a8,8,0,0,0,.88-.41c0-.55,0-1.16,0-1.81a10,10,0,0,0,.93-.46l.14.11q0,.47-.09,2.16h1.1l.45,0-.06.61h-1.49Z" transform="translate(-147.53 -88.16)"/><path d="M271,241.86v-.8l.6-.36a3.72,3.72,0,0,1,.72-.34,2.39,2.39,0,0,1,.66-.09,2,2,0,0,1,1.24.36,1.43,1.43,0,0,1,.56.92c0,.29.07,1,.08,2.09a12.5,12.5,0,0,0,.07,1.74.26.26,0,0,0,.28.17h.43v.38l-.88,0c-.21,0-.49,0-.84,0v-.52c0-.17,0-.34,0-.51l-1.15.93a.92.92,0,0,1-.3.17,1.5,1.5,0,0,1-.42.05,1.47,1.47,0,0,1-1.09-.37,1.35,1.35,0,0,1-.38-1,1.93,1.93,0,0,1,.27-1,1.54,1.54,0,0,1,.77-.65,13.87,13.87,0,0,1,2.3-.55,1.76,1.76,0,0,0-.31-1.12,1.3,1.3,0,0,0-1.07-.46,1.59,1.59,0,0,0-.5.07,1.48,1.48,0,0,0-.44.21c-.11.27-.2.54-.29.8Zm2.92.93a6.63,6.63,0,0,0-2,.66,1.11,1.11,0,0,0-.41,1,1,1,0,0,0,.24.69.75.75,0,0,0,.61.26,1.47,1.47,0,0,0,.8-.24,2.94,2.94,0,0,0,.72-.73v-1.59Z" transform="translate(-147.53 -88.16)"/><path d="M278.08,237.23c-.07,1.15-.1,2.18-.1,3.11v3a15.62,15.62,0,0,0,.07,2c0,.08.15.14.37.16l.47.05v.34c-.4,0-.79,0-1.16,0s-.94,0-1.6,0v-.34l.48,0c.21,0,.33-.07.36-.17a14.13,14.13,0,0,0,.07-2.08v-4.12l0-.76a.65.65,0,0,0-.06-.36.53.53,0,0,0-.37-.09h-.46v-.35a5.48,5.48,0,0,0,1.85-.46Z" transform="translate(-147.53 -88.16)"/><path d="M281.39,237.23c-.07,1.15-.1,2.18-.1,3.11v3a15.62,15.62,0,0,0,.07,2c0,.08.15.14.37.16l.47.05v.34c-.4,0-.79,0-1.16,0s-.94,0-1.6,0v-.34l.48,0c.21,0,.33-.07.36-.17a14.13,14.13,0,0,0,.07-2.08v-4.12l0-.76a.65.65,0,0,0-.06-.36.53.53,0,0,0-.37-.09h-.46v-.35a5.48,5.48,0,0,0,1.85-.46Z" transform="translate(-147.53 -88.16)"/><path d="M283.86,243.1a2.63,2.63,0,0,0,.56,1.75,1.77,1.77,0,0,0,1.39.6,2.38,2.38,0,0,0,.78-.14,3.29,3.29,0,0,0,.76-.4l.09.09-.18.49a4,4,0,0,1-.95.42,3.72,3.72,0,0,1-1,.14,2.36,2.36,0,0,1-1.82-.75,2.91,2.91,0,0,1-.69-2,3.54,3.54,0,0,1,.39-1.71,2.37,2.37,0,0,1,.94-.88,2.62,2.62,0,0,1,1.34-.4,2,2,0,0,1,1.56.61,2.38,2.38,0,0,1,.57,1.7v.35a4.67,4.67,0,0,1-.7.12c-.39,0-.94,0-1.65,0Zm0-.44c.57,0,1.21,0,1.9,0,.28,0,.54,0,.8,0v-.33a2.52,2.52,0,0,0-.19-1,1.09,1.09,0,0,0-.43-.48,1.36,1.36,0,0,0-.7-.19,1.2,1.2,0,0,0-1,.48A2.5,2.5,0,0,0,283.87,242.66Z" transform="translate(-147.53 -88.16)"/><path d="M290,241.6a5.66,5.66,0,0,0,.49-.59,2.31,2.31,0,0,1,.58-.59,1.09,1.09,0,0,1,.56-.15,1.19,1.19,0,0,1,.47.07.12.12,0,0,1,.07.11v.06a8.49,8.49,0,0,0-.1,1.33h-.25a1,1,0,0,0-.3-.42.74.74,0,0,0-.42-.12,1,1,0,0,0-.61.23,1.2,1.2,0,0,0-.37.66,9.61,9.61,0,0,0-.09,1.65,13,13,0,0,0,.06,1.37c0,.14.05.23.11.26a1.28,1.28,0,0,0,.62.12h.33v.34c-.56,0-1.1,0-1.61,0s-1,0-1.46,0v-.34l.53,0a.57.57,0,0,0,.36-.12,1.12,1.12,0,0,0,.1-.56c0-.57,0-1.23,0-2a6.76,6.76,0,0,0-.11-1.66c0-.1-.2-.15-.45-.15h-.47v-.34a9.39,9.39,0,0,0,1-.17,4.38,4.38,0,0,0,.75-.26.27.27,0,0,1,.13,0s.07,0,.08,0a.3.3,0,0,1,0,.16Z" transform="translate(-147.53 -88.16)"/><path d="M293.8,243.1a2.63,2.63,0,0,0,.56,1.75,1.77,1.77,0,0,0,1.4.6,2.37,2.37,0,0,0,.77-.14,3.29,3.29,0,0,0,.76-.4l.09.09-.18.49a3.83,3.83,0,0,1-.95.42,3.72,3.72,0,0,1-1,.14,2.36,2.36,0,0,1-1.82-.75,2.91,2.91,0,0,1-.69-2,3.54,3.54,0,0,1,.39-1.71,2.37,2.37,0,0,1,.94-.88,2.64,2.64,0,0,1,1.34-.4,2,2,0,0,1,1.56.61,2.38,2.38,0,0,1,.57,1.7v.35a4.67,4.67,0,0,1-.7.12c-.39,0-.94,0-1.65,0Zm0-.44c.57,0,1.21,0,1.9,0,.28,0,.54,0,.8,0v-.33a2.52,2.52,0,0,0-.19-1,1,1,0,0,0-.43-.48,1.36,1.36,0,0,0-.7-.19,1.2,1.2,0,0,0-1,.48A2.5,2.5,0,0,0,293.81,242.66Z" transform="translate(-147.53 -88.16)"/><path d="M299.93,241.33v2.3a6.55,6.55,0,0,0,.06,1.15.68.68,0,0,0,.22.39.74.74,0,0,0,.75.07,1,1,0,0,0,.3-.2l.16.21-.54.67-.34.09a1.29,1.29,0,0,1-.33,0,1.35,1.35,0,0,1-.69-.16,1,1,0,0,1-.42-.4,1.8,1.8,0,0,1-.13-.75l0-1.13v-2.23c-.29,0-.58,0-.89,0v-.25a8.19,8.19,0,0,0,.89-.41c0-.55,0-1.16-.05-1.81a10,10,0,0,0,.93-.46l.15.11c0,.31-.06,1-.1,2.16H301l.44,0-.06.61h-1.49Z" transform="translate(-147.53 -88.16)"/><path d="M305.27,244.14v.38a1.28,1.28,0,0,0,.07.57,1.43,1.43,0,0,0,.57.37,2.13,2.13,0,0,0,.86.17,1.32,1.32,0,0,0,.93-.32,1,1,0,0,0,.37-.78.74.74,0,0,0-.22-.57,1.57,1.57,0,0,0-.8-.35,7.48,7.48,0,0,1-1.46-.41,1.25,1.25,0,0,1-.54-.47,1.43,1.43,0,0,1-.17-.71,1.67,1.67,0,0,1,.53-1.27,2.23,2.23,0,0,1,1.53-.48,4.14,4.14,0,0,1,1.55.32c0,.27-.06.72-.08,1.34h-.33a1.75,1.75,0,0,0-.11-.68,1.15,1.15,0,0,0-.46-.39,1.54,1.54,0,0,0-.72-.18,1.13,1.13,0,0,0-.81.28.88.88,0,0,0-.3.68.72.72,0,0,0,.24.59,3.77,3.77,0,0,0,1.32.44,4.1,4.1,0,0,1,1.05.31,1.06,1.06,0,0,1,.41.45,1.37,1.37,0,0,1,.16.68,1.78,1.78,0,0,1-.64,1.37,2.5,2.5,0,0,1-1.72.57,6.11,6.11,0,0,1-1.53-.23q-.15,0-.15-.12l0-.08a2.7,2.7,0,0,0,0-.31c0-.38.05-.68.05-.89v-.28Z" transform="translate(-147.53 -88.16)"/><path d="M309.64,243.12a3,3,0,0,1,.36-1.46,2.5,2.5,0,0,1,1-1,2.86,2.86,0,0,1,1.46-.37,2.5,2.5,0,0,1,1.9.74,2.71,2.71,0,0,1,.71,2,3,3,0,0,1-.93,2.31,2.81,2.81,0,0,1-2,.77,2.29,2.29,0,0,1-1.81-.79A3.08,3.08,0,0,1,309.64,243.12Zm1.05-.41a4.15,4.15,0,0,0,.47,2.06,1.45,1.45,0,0,0,1.35.86,1.28,1.28,0,0,0,1.08-.54,2.63,2.63,0,0,0,.42-1.63,4.25,4.25,0,0,0-.25-1.54,2.06,2.06,0,0,0-.64-.94,1.48,1.48,0,0,0-.9-.3,1.39,1.39,0,0,0-.79.24,1.41,1.41,0,0,0-.52.63A2.92,2.92,0,0,0,310.69,242.71Z" transform="translate(-147.53 -88.16)"/><path d="M317.67,237.23c-.07,1.15-.1,2.18-.1,3.11v3a15.62,15.62,0,0,0,.07,2c0,.08.15.14.37.16l.47.05v.34c-.4,0-.79,0-1.15,0s-.95,0-1.61,0v-.34l.48,0c.21,0,.33-.07.36-.17a14.13,14.13,0,0,0,.07-2.08v-4.12l0-.76a.65.65,0,0,0-.06-.36.53.53,0,0,0-.37-.09h-.46v-.35a5.42,5.42,0,0,0,1.85-.46Z" transform="translate(-147.53 -88.16)"/><path d="M323.26,245.1l.15.14-.23.38a3.4,3.4,0,0,1-.77.32,3.24,3.24,0,0,1-.82.11,2.72,2.72,0,0,1-1.39-.33,2.19,2.19,0,0,1-.88-.95,3.69,3.69,0,0,1-.07-2.79,2.13,2.13,0,0,1,.67-.88,7.24,7.24,0,0,1,1.07-.62,2.45,2.45,0,0,1,1-.21,3.21,3.21,0,0,1,.74.07,3.32,3.32,0,0,1,.66.26,10.29,10.29,0,0,0-.15,1.55h-.35v-.29a1,1,0,0,0-.1-.53,1.11,1.11,0,0,0-.47-.31,2.11,2.11,0,0,0-.8-.15,1.44,1.44,0,0,0-1.16.48,2.22,2.22,0,0,0-.4,1.45,3,3,0,0,0,.6,2,1.7,1.7,0,0,0,1.39.68,2.37,2.37,0,0,0,.65-.09A3.18,3.18,0,0,0,323.26,245.1Z" transform="translate(-147.53 -88.16)"/><path d="M325.19,243.1a2.63,2.63,0,0,0,.56,1.75,1.77,1.77,0,0,0,1.39.6,2.38,2.38,0,0,0,.78-.14,3,3,0,0,0,.75-.4l.1.09-.18.49a4,4,0,0,1-.95.42,3.72,3.72,0,0,1-1,.14,2.35,2.35,0,0,1-1.82-.75,2.91,2.91,0,0,1-.69-2,3.66,3.66,0,0,1,.38-1.71,2.48,2.48,0,0,1,.95-.88,2.62,2.62,0,0,1,1.34-.4,2,2,0,0,1,1.56.61,2.38,2.38,0,0,1,.57,1.7v.35a4.89,4.89,0,0,1-.7.12c-.4,0-.94,0-1.65,0Zm0-.44c.57,0,1.21,0,1.9,0,.28,0,.54,0,.8,0v-.33a2.52,2.52,0,0,0-.19-1,1.09,1.09,0,0,0-.43-.48,1.36,1.36,0,0,0-.7-.19,1.2,1.2,0,0,0-1,.48A2.5,2.5,0,0,0,325.2,242.66Z" transform="translate(-147.53 -88.16)"/><path d="M331.47,237.23c-.06,1.15-.09,2.18-.09,3.11v3a13.8,13.8,0,0,0,.07,2c0,.08.15.14.37.16l.47.05v.34c-.4,0-.79,0-1.16,0s-.94,0-1.6,0v-.34l.48,0c.21,0,.33-.07.36-.17a14.13,14.13,0,0,0,.07-2.08v-4.12l0-.76a.65.65,0,0,0-.06-.36A.55.55,0,0,0,330,238h-.46v-.35a5.48,5.48,0,0,0,1.85-.46Z" transform="translate(-147.53 -88.16)"/><path d="M334.78,237.23c-.06,1.15-.09,2.18-.09,3.11v3a13.8,13.8,0,0,0,.07,2c0,.08.15.14.37.16l.47.05v.34c-.4,0-.79,0-1.16,0s-.94,0-1.6,0v-.34l.48,0c.21,0,.33-.07.36-.17a14.13,14.13,0,0,0,.07-2.08v-4.12l0-.76a.65.65,0,0,0-.06-.36.57.57,0,0,0-.38-.09h-.45v-.35a5.48,5.48,0,0,0,1.85-.46Z" transform="translate(-147.53 -88.16)"/><path d="M337.25,243.1a2.64,2.64,0,0,0,.57,1.75,1.77,1.77,0,0,0,1.39.6,2.28,2.28,0,0,0,.77-.14,2.93,2.93,0,0,0,.76-.4l.1.09-.18.49a4,4,0,0,1-1,.42,3.77,3.77,0,0,1-1,.14,2.35,2.35,0,0,1-1.82-.75,2.87,2.87,0,0,1-.7-2,3.54,3.54,0,0,1,.39-1.71,2.41,2.41,0,0,1,.95-.88,2.62,2.62,0,0,1,1.34-.4,2,2,0,0,1,1.55.61,2.34,2.34,0,0,1,.58,1.7v.35a4.89,4.89,0,0,1-.7.12c-.4,0-1,0-1.65,0Zm0-.44c.57,0,1.2,0,1.9,0,.27,0,.54,0,.8,0v-.33a2.52,2.52,0,0,0-.19-1,1.09,1.09,0,0,0-.43-.48,1.37,1.37,0,0,0-.71-.19,1.19,1.19,0,0,0-1,.48A2.43,2.43,0,0,0,337.27,242.66Z" transform="translate(-147.53 -88.16)"/><path d="M343.43,241.6a5.66,5.66,0,0,0,.49-.59,2.3,2.3,0,0,1,.57-.59,1.16,1.16,0,0,1,.57-.15,1.11,1.11,0,0,1,.46.07c.06,0,.08.06.08.11v.06a7.42,7.42,0,0,0-.1,1.33h-.25a1,1,0,0,0-.3-.42.74.74,0,0,0-.42-.12,1,1,0,0,0-.61.23,1.14,1.14,0,0,0-.37.66,8.38,8.38,0,0,0-.1,1.65,13,13,0,0,0,.06,1.37.37.37,0,0,0,.11.26,1.33,1.33,0,0,0,.63.12h.33v.34c-.57,0-1.1,0-1.61,0s-1,0-1.46,0v-.34l.53,0a.57.57,0,0,0,.36-.12,1.25,1.25,0,0,0,.1-.56c0-.57,0-1.23,0-2a6.76,6.76,0,0,0-.11-1.66q-.07-.15-.45-.15h-.47v-.34a9.39,9.39,0,0,0,1-.17,4.38,4.38,0,0,0,.75-.26.24.24,0,0,1,.13,0s.07,0,.08,0a.32.32,0,0,1,0,.16Z" transform="translate(-147.53 -88.16)"/><path d="M348,244.27l.16.18a11.17,11.17,0,0,1-.69,1.47,14.33,14.33,0,0,1-1,1.46l-.47.25-.16-.18a7.8,7.8,0,0,0,.71-1.42,6.58,6.58,0,0,0,.3-1.39A7.89,7.89,0,0,0,348,244.27Z" transform="translate(-147.53 -88.16)"/><path d="M352.35,244.14v.38a1.23,1.23,0,0,0,.08.57,1.31,1.31,0,0,0,.56.37,2.18,2.18,0,0,0,.87.17,1.32,1.32,0,0,0,.93-.32,1,1,0,0,0,.36-.78.77.77,0,0,0-.21-.57,1.62,1.62,0,0,0-.81-.35,7.71,7.71,0,0,1-1.46-.41,1.28,1.28,0,0,1-.53-.47A1.34,1.34,0,0,1,352,242a1.64,1.64,0,0,1,.54-1.27,2.2,2.2,0,0,1,1.52-.48,4.06,4.06,0,0,1,1.55.32c0,.27-.06.72-.08,1.34h-.33a1.58,1.58,0,0,0-.11-.68,1.15,1.15,0,0,0-.46-.39,1.54,1.54,0,0,0-.72-.18,1.13,1.13,0,0,0-.81.28.88.88,0,0,0-.3.68.72.72,0,0,0,.24.59,3.77,3.77,0,0,0,1.32.44,4.22,4.22,0,0,1,1.06.31,1.13,1.13,0,0,1,.41.45,1.48,1.48,0,0,1,.15.68,1.78,1.78,0,0,1-.64,1.37,2.49,2.49,0,0,1-1.71.57,6,6,0,0,1-1.53-.23q-.15,0-.15-.12v-.08a1.46,1.46,0,0,0,0-.31c0-.38.05-.68.05-.89v-.28Z" transform="translate(-147.53 -88.16)"/><path d="M356.73,243.12a3,3,0,0,1,.35-1.46,2.52,2.52,0,0,1,1-1,2.83,2.83,0,0,1,1.46-.37,2.46,2.46,0,0,1,1.89.74,2.71,2.71,0,0,1,.71,2,3,3,0,0,1-.93,2.31,2.81,2.81,0,0,1-2,.77,2.3,2.3,0,0,1-1.81-.79A3.13,3.13,0,0,1,356.73,243.12Zm1-.41a4.26,4.26,0,0,0,.47,2.06,1.45,1.45,0,0,0,1.35.86,1.31,1.31,0,0,0,1.09-.54,2.7,2.7,0,0,0,.41-1.63,4.49,4.49,0,0,0-.24-1.54,2.07,2.07,0,0,0-.65-.94,1.43,1.43,0,0,0-.89-.3,1.36,1.36,0,0,0-.79.24,1.29,1.29,0,0,0-.52.63A2.93,2.93,0,0,0,357.77,242.71Z" transform="translate(-147.53 -88.16)"/><path d="M364.67,241.32l.75-.71a1.17,1.17,0,0,1,.37-.24,1.73,1.73,0,0,1,.58-.1,2,2,0,0,1,1,.23,2.17,2.17,0,0,1,.69.86l.72-.69a1.13,1.13,0,0,1,.45-.27,1.86,1.86,0,0,1,.68-.13,1.79,1.79,0,0,1,.91.24,1.6,1.6,0,0,1,.6.64,2.43,2.43,0,0,1,.2,1.07l0,2.29a2.43,2.43,0,0,0,.09.91c.05.09.2.14.43.16h.41v.34h-.27l-.88,0c-.23,0-.51,0-.82,0,.05-.72.08-1.56.08-2.53a8.5,8.5,0,0,0-.1-1.61,1.16,1.16,0,0,0-.38-.61,1.18,1.18,0,0,0-.71-.22,1.3,1.3,0,0,0-.83.28,1.15,1.15,0,0,0-.43.66c0,.16-.05.86-.05,2.09,0,.72,0,1.13,0,1.23a.34.34,0,0,0,.09.22,1.48,1.48,0,0,0,.48.11l.37,0v.34l-1.44,0-1.43,0v-.34h.38a.63.63,0,0,0,.43-.1c.07-.06.1-.22.12-.47,0-.64,0-1.31,0-2a4.67,4.67,0,0,0-.12-1.29,1.1,1.1,0,0,0-.4-.56A1.15,1.15,0,0,0,366,241a1.31,1.31,0,0,0-.78.26,1.29,1.29,0,0,0-.48.61,6.89,6.89,0,0,0-.08,1.39c0,.84,0,1.46,0,1.86a.59.59,0,0,0,.09.35.93.93,0,0,0,.47.12l.39,0v.34c-.47,0-.9,0-1.31,0s-1,0-1.52,0v-.34h.42c.24,0,.38-.06.43-.2a15.38,15.38,0,0,0,.07-2.21c0-1,0-1.55,0-1.73a.57.57,0,0,0-.1-.33.86.86,0,0,0-.47-.07h-.34v-.33a6.75,6.75,0,0,0,1.4-.32l.41-.16c.06,0,.1,0,.1.14l0,.21C364.67,240.81,364.67,241.05,364.67,241.32Z" transform="translate(-147.53 -88.16)"/><path d="M248.68,255.76a1.85,1.85,0,0,1,.13.61,1.88,1.88,0,0,1-.3,1,2.18,2.18,0,0,1-.86.78,2.48,2.48,0,0,1-1.2.3h-.26a2.51,2.51,0,0,0-.46.43.5.5,0,0,0-.1.27.39.39,0,0,0,.22.35,1.93,1.93,0,0,0,.88.13l.74,0,1,0a1.26,1.26,0,0,1,.67.15,1.17,1.17,0,0,1,.4.52,2.06,2.06,0,0,1,.16.84,2.34,2.34,0,0,1-.37,1.26,2.82,2.82,0,0,1-1.1,1,3.71,3.71,0,0,1-1.66.36,2.62,2.62,0,0,1-1.76-.53,1.61,1.61,0,0,1-.62-1.29,1.8,1.8,0,0,1,.32-1,5.64,5.64,0,0,0,1-.58,1.5,1.5,0,0,1-.58-.29.44.44,0,0,1-.13-.33,1.07,1.07,0,0,1,.12-.49,1.14,1.14,0,0,1,.37-.35l.54-.41a1.81,1.81,0,0,1-1-.5,1.6,1.6,0,0,1-.39-1.11,2.13,2.13,0,0,1,.29-1.08,1.92,1.92,0,0,1,.85-.76,3.09,3.09,0,0,1,1.38-.36,2.09,2.09,0,0,1,.74.12,2.19,2.19,0,0,1,.66.39h.46a8.25,8.25,0,0,0,1.12-.05l.06.12a4.63,4.63,0,0,0-.29.54Zm-2.35,4.66a1.08,1.08,0,0,0-.54.09,1.86,1.86,0,0,0-.57.51,1.6,1.6,0,0,0-.16.77,1.38,1.38,0,0,0,.45,1.06,1.78,1.78,0,0,0,1.24.41,2.32,2.32,0,0,0,1.08-.24,1.74,1.74,0,0,0,.73-.66,1.65,1.65,0,0,0,.26-.86,1.22,1.22,0,0,0-.18-.67.79.79,0,0,0-.43-.37,2.41,2.41,0,0,0-.59,0Zm1.51-3.74a1.82,1.82,0,0,0-.35-1.18,1.11,1.11,0,0,0-.9-.45,1.13,1.13,0,0,0-.86.37,1.44,1.44,0,0,0-.32,1,1.91,1.91,0,0,0,.35,1.23,1.11,1.11,0,0,0,.89.44,1.09,1.09,0,0,0,.86-.37A1.54,1.54,0,0,0,247.84,256.68Z" transform="translate(-147.53 -88.16)"/><path d="M250.39,260.42l.71-.85a3.36,3.36,0,0,1-.6-1.95,2.89,2.89,0,0,1,.82-2.19,3,3,0,0,1,3.56-.3l.66-.78.34.31-.65.77a2.68,2.68,0,0,1,.52.86,3.53,3.53,0,0,1,.16,1.09,3,3,0,0,1-1,2.36,2.87,2.87,0,0,1-1.94.71,2.43,2.43,0,0,1-1.56-.54l-.69.83Zm4-4.69a1.56,1.56,0,0,0-1.25-.65,1.41,1.41,0,0,0-1.13.52,2.42,2.42,0,0,0-.42,1.54,4.93,4.93,0,0,0,.27,1.63ZM252,259.22a1.48,1.48,0,0,0,1.3.81,1.32,1.32,0,0,0,1.1-.54,2.66,2.66,0,0,0,.42-1.64,5.12,5.12,0,0,0-.28-1.66Z" transform="translate(-147.53 -88.16)"/><path d="M258.47,256a4.65,4.65,0,0,0,.48-.59,2.1,2.1,0,0,1,.58-.58,1.06,1.06,0,0,1,.56-.16,1.16,1.16,0,0,1,.47.07c.05,0,.08.06.08.11v.06a9.93,9.93,0,0,0-.1,1.33h-.25a.88.88,0,0,0-.3-.42.7.7,0,0,0-.42-.12,1,1,0,0,0-.6.23,1.21,1.21,0,0,0-.38.66,9.61,9.61,0,0,0-.09,1.65,13,13,0,0,0,.06,1.37c0,.14.05.23.11.26a1.3,1.3,0,0,0,.63.12h.33v.34c-.57,0-1.11,0-1.61,0s-1,0-1.46,0V260l.53,0a.65.65,0,0,0,.36-.11,1.36,1.36,0,0,0,.1-.57c0-.57,0-1.23,0-2a7,7,0,0,0-.1-1.66c-.05-.1-.2-.15-.46-.15h-.46v-.34a9.39,9.39,0,0,0,1-.17,4.38,4.38,0,0,0,.75-.26.24.24,0,0,1,.13,0,.1.1,0,0,1,.08,0,.51.51,0,0,1,0,.16Z" transform="translate(-147.53 -88.16)"/><path d="M268.44,255V252.9a.9.9,0,0,0-.08-.47q-.08-.09-.36-.09h-.47V252a6,6,0,0,0,1.85-.43l.1.07c0,.4-.05.88-.07,1.44l0,1.56v4a5,5,0,0,0,.05,1.09c.06.11.21.18.46.21l.4.05v.34c-.46,0-.86-.05-1.21-.05l-.7.05c0-.26,0-.64.06-1.12-.32.25-.72.61-1.21,1.08a2.52,2.52,0,0,1-.83.16,2,2,0,0,1-1.57-.74,3,3,0,0,1-.63-2,3.33,3.33,0,0,1,.24-1.33,2.06,2.06,0,0,1,.59-.8,10.12,10.12,0,0,1,1.05-.63,2.22,2.22,0,0,1,1-.28,2.54,2.54,0,0,1,.65.09A3.11,3.11,0,0,1,268.44,255Zm0,1a2.94,2.94,0,0,0-.8-.65,1.85,1.85,0,0,0-.86-.21,1.41,1.41,0,0,0-1.17.56,2.57,2.57,0,0,0-.44,1.64,2.71,2.71,0,0,0,.5,1.72,1.56,1.56,0,0,0,1.24.62,1.35,1.35,0,0,0,.81-.26,1.53,1.53,0,0,0,.55-.68,3.72,3.72,0,0,0,.17-1.3Z" transform="translate(-147.53 -88.16)"/><path d="M272,257.5a2.69,2.69,0,0,0,.56,1.75,1.8,1.8,0,0,0,1.4.6,2.28,2.28,0,0,0,.77-.14,2.93,2.93,0,0,0,.76-.4l.1.09-.18.49a3.63,3.63,0,0,1-.95.42,3.79,3.79,0,0,1-1,.14,2.34,2.34,0,0,1-1.81-.75,2.87,2.87,0,0,1-.7-2,3.54,3.54,0,0,1,.39-1.71,2.41,2.41,0,0,1,.95-.88,2.62,2.62,0,0,1,1.34-.4,2,2,0,0,1,1.55.61,2.34,2.34,0,0,1,.58,1.7v.35a4.89,4.89,0,0,1-.7.12c-.4,0-.95.05-1.65.05Zm0-.44c.57,0,1.2,0,1.9,0a7,7,0,0,0,.8,0v-.33a2.52,2.52,0,0,0-.19-1,1.16,1.16,0,0,0-.43-.48,1.37,1.37,0,0,0-.71-.19,1.19,1.19,0,0,0-1,.48A2.43,2.43,0,0,0,272,257.06Z" transform="translate(-147.53 -88.16)"/><path d="M278.16,255.73V258a6.55,6.55,0,0,0,.06,1.15.62.62,0,0,0,.65.53.74.74,0,0,0,.32-.07,1,1,0,0,0,.3-.2l.16.21-.54.67-.35.1-.32,0a1.48,1.48,0,0,1-.7-.15,1,1,0,0,1-.41-.41,1.65,1.65,0,0,1-.13-.75l0-1.13v-2.23c-.28,0-.58,0-.88,0v-.25c.32-.13.61-.26.88-.4,0-.56,0-1.17,0-1.82a10,10,0,0,0,.93-.46l.15.11c0,.31-.07,1-.1,2.17l1.11,0,.44,0-.06.61h-1.49Z" transform="translate(-147.53 -88.16)"/><path d="M284.79,255.72l.74-.71a1.21,1.21,0,0,1,.38-.24,1.63,1.63,0,0,1,.57-.1,2,2,0,0,1,1,.23,2.18,2.18,0,0,1,.7.86l.71-.69a1.29,1.29,0,0,1,.45-.27,1.9,1.9,0,0,1,.68-.13,1.74,1.74,0,0,1,.91.24,1.6,1.6,0,0,1,.6.64,2.46,2.46,0,0,1,.2,1.07l0,2.29a2.82,2.82,0,0,0,.08.91c.06.09.2.14.43.16h.41v.34h-.27l-.87,0c-.24,0-.51,0-.83,0,.06-.72.08-1.56.08-2.53a7.7,7.7,0,0,0-.1-1.61,1.05,1.05,0,0,0-.38-.61,1.18,1.18,0,0,0-.71-.22,1.32,1.32,0,0,0-.83.28,1.13,1.13,0,0,0-.42.66,17.6,17.6,0,0,0-.06,2.09c0,.72,0,1.13,0,1.23a.32.32,0,0,0,.09.22,1.48,1.48,0,0,0,.48.11l.37,0v.34l-1.44,0-1.42,0V260h.37c.22,0,.37,0,.43-.1a.72.72,0,0,0,.12-.47c0-.64,0-1.31,0-2a4.67,4.67,0,0,0-.12-1.29,1.1,1.1,0,0,0-.4-.56,1.13,1.13,0,0,0-.69-.21,1.28,1.28,0,0,0-.77.26,1.18,1.18,0,0,0-.48.61,5.91,5.91,0,0,0-.09,1.39q0,1.26,0,1.86a.54.54,0,0,0,.08.35,1,1,0,0,0,.48.12l.38,0v.34c-.46,0-.9,0-1.31,0s-1,0-1.52,0V260h.42c.24,0,.39-.06.43-.2a14.5,14.5,0,0,0,.08-2.21c0-1,0-1.55,0-1.73a.52.52,0,0,0-.09-.33.91.91,0,0,0-.48-.07h-.34v-.33a6.75,6.75,0,0,0,1.4-.32l.41-.16c.07,0,.1.05.1.14V255C284.79,255.21,284.78,255.45,284.79,255.72Z" transform="translate(-147.53 -88.16)"/><path d="M297.35,260.33l.07-1.05-.33.37a2.05,2.05,0,0,1-1.76.8,1.6,1.6,0,0,1-.86-.22,1.32,1.32,0,0,1-.52-.58,2.82,2.82,0,0,1-.17-1.12c0-.27,0-.58,0-.93l0-.94a4.74,4.74,0,0,0-.06-1.1c0-.08-.15-.11-.35-.11h-.49v-.33a5.61,5.61,0,0,0,1.4-.29l.46-.18q.09,0,.09.15l0,.59c-.05.83-.07,1.6-.07,2.31a6.31,6.31,0,0,0,.08,1.36.87.87,0,0,0,.35.5,1.06,1.06,0,0,0,.65.19,1.41,1.41,0,0,0,.94-.35,1.61,1.61,0,0,0,.56-.71,5.28,5.28,0,0,0,.08-1.23,11,11,0,0,0-.07-1.89c0-.08-.2-.12-.5-.12h-.43v-.33a8.51,8.51,0,0,0,1-.16,5.51,5.51,0,0,0,.84-.28l.1,0c.07,0,.1,0,.1.11l0,.55c0,1.33-.08,2.51-.08,3.52a3.12,3.12,0,0,0,.08,1,.62.62,0,0,0,.53.18h.32v.34c-.46,0-.85,0-1.17,0S297.6,260.31,297.35,260.33Z" transform="translate(-147.53 -88.16)"/><path d="M301.76,251.63c-.06,1.15-.09,2.18-.09,3.11v3a13.8,13.8,0,0,0,.07,2c0,.08.15.14.37.16l.47.05v.34c-.4,0-.79,0-1.16,0l-1.6,0V260l.48,0c.21,0,.33-.07.36-.17a14.13,14.13,0,0,0,.07-2.08v-4.12l0-.76a.65.65,0,0,0-.06-.36.55.55,0,0,0-.37-.09h-.46V252a5.48,5.48,0,0,0,1.85-.46Z" transform="translate(-147.53 -88.16)"/><path d="M305,254.64l.14.09a9.5,9.5,0,0,0-.05,1c0,1.14,0,2,0,2.52a12.14,12.14,0,0,0,.05,1.3.5.5,0,0,0,.1.3.89.89,0,0,0,.4.12l.38.05v.34c-.54,0-1,0-1.48,0s-.87,0-1.32,0V260l.48-.05c.18,0,.3-.05.34-.11a1.42,1.42,0,0,0,.08-.57c0-.49,0-1.18,0-2.05q0-.91,0-1.41a.34.34,0,0,0-.1-.25.6.6,0,0,0-.38-.08h-.42v-.34a9.58,9.58,0,0,0,1-.19A7.39,7.39,0,0,0,305,254.64Zm-.44-2.59a.58.58,0,0,1,.44.19.7.7,0,0,1,.18.48.63.63,0,0,1-.18.46.59.59,0,0,1-.44.2.61.61,0,0,1-.45-.2.63.63,0,0,1-.18-.46.7.7,0,0,1,.18-.48A.6.6,0,0,1,304.52,252.05Z" transform="translate(-147.53 -88.16)"/><path d="M311.14,255.76a2.16,2.16,0,0,1,.13.61,1.88,1.88,0,0,1-.3,1,2.25,2.25,0,0,1-.86.78,2.48,2.48,0,0,1-1.2.3h-.26a2.2,2.2,0,0,0-.46.43.43.43,0,0,0-.1.27.38.38,0,0,0,.22.35,1.9,1.9,0,0,0,.88.13l.73,0,1,0a1.23,1.23,0,0,1,.67.15,1.11,1.11,0,0,1,.4.52,2.07,2.07,0,0,1,.17.84,2.35,2.35,0,0,1-.38,1.26,2.76,2.76,0,0,1-1.1,1,3.65,3.65,0,0,1-1.66.36,2.64,2.64,0,0,1-1.76-.53,1.64,1.64,0,0,1-.62-1.29,1.73,1.73,0,0,1,.33-1,6.06,6.06,0,0,0,1-.58,1.57,1.57,0,0,1-.59-.29.49.49,0,0,1-.13-.33,1,1,0,0,1,.13-.49,1.14,1.14,0,0,1,.37-.35l.53-.41a1.89,1.89,0,0,1-1-.5,1.64,1.64,0,0,1-.38-1.11,2.12,2.12,0,0,1,.28-1.08A2,2,0,0,1,308,255a3.09,3.09,0,0,1,1.39-.36,2.09,2.09,0,0,1,.74.12,2.16,2.16,0,0,1,.65.39h.47a8.34,8.34,0,0,0,1.12-.05l.06.12a3.5,3.5,0,0,0-.29.54Zm-2.36,4.66a1.14,1.14,0,0,0-.54.09,1.79,1.79,0,0,0-.56.51,1.6,1.6,0,0,0-.17.77,1.38,1.38,0,0,0,.45,1.06,1.81,1.81,0,0,0,1.25.41,2.32,2.32,0,0,0,1.08-.24,1.77,1.77,0,0,0,.72-.66,1.57,1.57,0,0,0,.26-.86,1.22,1.22,0,0,0-.18-.67.76.76,0,0,0-.43-.37,2.31,2.31,0,0,0-.58,0Zm1.52-3.74a1.83,1.83,0,0,0-.36-1.18,1.08,1.08,0,0,0-.89-.45,1.1,1.1,0,0,0-.86.37,1.45,1.45,0,0,0-.33,1,2,2,0,0,0,.35,1.23,1.12,1.12,0,0,0,.89.44,1.1,1.1,0,0,0,.87-.37A1.54,1.54,0,0,0,310.3,256.68Z" transform="translate(-147.53 -88.16)"/><path d="M314.56,255.73V258a6.55,6.55,0,0,0,.06,1.15.63.63,0,0,0,.22.39.62.62,0,0,0,.43.14.67.67,0,0,0,.31-.07,1,1,0,0,0,.31-.2l.16.21-.54.67-.35.1-.32,0a1.48,1.48,0,0,1-.7-.15,1,1,0,0,1-.41-.41,1.65,1.65,0,0,1-.13-.75l0-1.13v-2.23c-.28,0-.58,0-.88,0v-.25c.32-.13.61-.26.88-.4,0-.56,0-1.17,0-1.82a10,10,0,0,0,.93-.46l.14.11c0,.31-.06,1-.09,2.17l1.11,0,.44,0-.06.61h-1.49Z" transform="translate(-147.53 -88.16)"/><path d="M321.1,255.69V258a8.88,8.88,0,0,0,.09,1.83c.06.13.25.19.56.19h.49v.34l-1.31,0-1.76,0V260h.38q.43,0,.51-.18a8.3,8.3,0,0,0,.1-1.84v-2.28l-.8.05v-.24l.8-.43v-.75a2.44,2.44,0,0,1,.15-.93,3.18,3.18,0,0,1,.59-.84,4.77,4.77,0,0,1,.92-.85,1,1,0,0,1,.55-.14,1.84,1.84,0,0,1,.48.08c0,.2,0,.36,0,.48s0,.29,0,.5l-.14.06a1.08,1.08,0,0,0-.75-.3.7.7,0,0,0-.66.33,4,4,0,0,0-.2,1.63v.78c.6,0,1.09,0,1.47-.05l0,.05-.09.57-.68,0C321.67,255.67,321.43,255.67,321.1,255.69Z" transform="translate(-147.53 -88.16)"/><path d="M323.23,257.52a3,3,0,0,1,.36-1.46,2.52,2.52,0,0,1,1-1,2.79,2.79,0,0,1,1.45-.37,2.5,2.5,0,0,1,1.9.74,2.71,2.71,0,0,1,.71,2,3,3,0,0,1-.93,2.31,2.81,2.81,0,0,1-2,.77,2.3,2.3,0,0,1-1.81-.79A3.13,3.13,0,0,1,323.23,257.52Zm1-.41a4.26,4.26,0,0,0,.47,2.06,1.45,1.45,0,0,0,1.35.86,1.31,1.31,0,0,0,1.09-.54,2.7,2.7,0,0,0,.41-1.63,4.49,4.49,0,0,0-.24-1.54,2.07,2.07,0,0,0-.65-.94,1.43,1.43,0,0,0-.89-.3,1.34,1.34,0,0,0-.79.24,1.29,1.29,0,0,0-.52.63A2.76,2.76,0,0,0,324.28,257.11Z" transform="translate(-147.53 -88.16)"/><path d="M331.15,256a4.65,4.65,0,0,0,.48-.59,2.1,2.1,0,0,1,.58-.58,1.06,1.06,0,0,1,.56-.16,1.16,1.16,0,0,1,.47.07c.05,0,.08.06.08.11v.06a9.93,9.93,0,0,0-.1,1.33H333a.88.88,0,0,0-.3-.42.69.69,0,0,0-.41-.12,1,1,0,0,0-.61.23,1.21,1.21,0,0,0-.38.66,9.61,9.61,0,0,0-.09,1.65,13,13,0,0,0,.06,1.37c0,.14,0,.23.11.26a1.28,1.28,0,0,0,.62.12h.34v.34c-.57,0-1.1,0-1.61,0s-1,0-1.46,0V260l.53,0a.65.65,0,0,0,.36-.11,1.36,1.36,0,0,0,.1-.57c0-.57,0-1.23,0-2a7,7,0,0,0-.1-1.66c0-.1-.2-.15-.46-.15h-.46v-.34a9.39,9.39,0,0,0,1-.17,4.38,4.38,0,0,0,.75-.26.24.24,0,0,1,.13,0,.1.1,0,0,1,.08,0,.51.51,0,0,1,0,.16Z" transform="translate(-147.53 -88.16)"/><path d="M340.4,255.12v-.34c.38,0,.72.05,1,.05s.72,0,1.12-.05v.34h-.17a.54.54,0,0,0-.25.06.4.4,0,0,0-.15.1c0,.05-.17.32-.4.82l-1,2.15c-.22.53-.5,1.24-.84,2.14h-.58q-.74-1.93-1.5-3.75c-.19-.45-.3-.73-.34-.86a1.23,1.23,0,0,0-.28-.52.56.56,0,0,0-.39-.14h-.18v-.34c.54,0,1,.05,1.36.05s.81,0,1.28-.05v.34h-.25a1.12,1.12,0,0,0-.48.08.2.2,0,0,0-.09.18,1.55,1.55,0,0,0,.1.4c.07.2.51,1.39,1.34,3.55l1-2.54a12.17,12.17,0,0,0,.42-1.21,1.37,1.37,0,0,0,0-.16.22.22,0,0,0-.07-.17,1.08,1.08,0,0,0-.38-.08Z" transform="translate(-147.53 -88.16)"/><path d="M343.21,257.52a3,3,0,0,1,.35-1.46,2.52,2.52,0,0,1,1-1,2.83,2.83,0,0,1,1.46-.37,2.48,2.48,0,0,1,1.89.74,2.71,2.71,0,0,1,.71,2,3,3,0,0,1-.93,2.31,2.81,2.81,0,0,1-2,.77,2.3,2.3,0,0,1-1.81-.79A3.13,3.13,0,0,1,343.21,257.52Zm1-.41a4.26,4.26,0,0,0,.47,2.06,1.45,1.45,0,0,0,1.35.86,1.31,1.31,0,0,0,1.09-.54,2.7,2.7,0,0,0,.41-1.63,4.49,4.49,0,0,0-.24-1.54,2.07,2.07,0,0,0-.65-.94,1.43,1.43,0,0,0-.89-.3,1.36,1.36,0,0,0-.79.24,1.29,1.29,0,0,0-.52.63A2.93,2.93,0,0,0,344.25,257.11Z" transform="translate(-147.53 -88.16)"/><path d="M351.12,256a4.65,4.65,0,0,0,.48-.59,2.1,2.1,0,0,1,.58-.58,1.07,1.07,0,0,1,.57-.16,1.11,1.11,0,0,1,.46.07c.05,0,.08.06.08.11v.06a7.42,7.42,0,0,0-.1,1.33h-.25a1,1,0,0,0-.31-.42.69.69,0,0,0-.41-.12,1,1,0,0,0-.61.23,1.14,1.14,0,0,0-.37.66,8.38,8.38,0,0,0-.1,1.65,13,13,0,0,0,.06,1.37c0,.14.05.23.11.26a1.3,1.3,0,0,0,.63.12h.33v.34c-.57,0-1.1,0-1.61,0s-1,0-1.46,0V260l.53,0a.65.65,0,0,0,.36-.11,1.36,1.36,0,0,0,.1-.57c0-.57,0-1.23,0-2a6.76,6.76,0,0,0-.11-1.66c-.05-.1-.2-.15-.46-.15h-.46v-.34a9.39,9.39,0,0,0,1-.17,4.38,4.38,0,0,0,.75-.26.24.24,0,0,1,.13,0,.1.1,0,0,1,.08,0,.51.51,0,0,1,0,.16Z" transform="translate(-147.53 -88.16)"/><path d="M354.88,257.5a2.64,2.64,0,0,0,.57,1.75,1.77,1.77,0,0,0,1.39.6,2.28,2.28,0,0,0,.77-.14,2.93,2.93,0,0,0,.76-.4l.1.09-.18.49a3.63,3.63,0,0,1-1,.42,3.79,3.79,0,0,1-1,.14,2.34,2.34,0,0,1-1.81-.75,2.87,2.87,0,0,1-.7-2,3.54,3.54,0,0,1,.39-1.71,2.41,2.41,0,0,1,1-.88,2.62,2.62,0,0,1,1.34-.4,2,2,0,0,1,1.55.61,2.34,2.34,0,0,1,.58,1.7v.35a4.89,4.89,0,0,1-.7.12c-.4,0-.95.05-1.65.05Zm0-.44c.57,0,1.2,0,1.9,0a7,7,0,0,0,.8,0v-.33a2.52,2.52,0,0,0-.19-1,1.09,1.09,0,0,0-.43-.48,1.37,1.37,0,0,0-.71-.19,1.19,1.19,0,0,0-1,.48A2.43,2.43,0,0,0,354.9,257.06Z" transform="translate(-147.53 -88.16)"/><path d="M359.8,258.54v.38a1.23,1.23,0,0,0,.08.57,1.31,1.31,0,0,0,.56.37,2.18,2.18,0,0,0,.87.17,1.32,1.32,0,0,0,.93-.32,1,1,0,0,0,.36-.78.77.77,0,0,0-.21-.57,1.62,1.62,0,0,0-.81-.35,7.71,7.71,0,0,1-1.46-.41,1.28,1.28,0,0,1-.53-.47,1.31,1.31,0,0,1-.18-.71,1.64,1.64,0,0,1,.54-1.27,2.2,2.2,0,0,1,1.52-.48A3.89,3.89,0,0,1,363,255c0,.26-.06.71-.08,1.33h-.33a1.58,1.58,0,0,0-.11-.68,1.15,1.15,0,0,0-.46-.39,1.54,1.54,0,0,0-.72-.18,1.13,1.13,0,0,0-.81.28.88.88,0,0,0-.3.68.72.72,0,0,0,.24.59,3.77,3.77,0,0,0,1.32.44,4.22,4.22,0,0,1,1.06.31,1.13,1.13,0,0,1,.41.45,1.51,1.51,0,0,1,.15.68,1.78,1.78,0,0,1-.64,1.37,2.49,2.49,0,0,1-1.71.57,5.94,5.94,0,0,1-1.53-.22c-.1,0-.15-.07-.15-.13V260a1.46,1.46,0,0,0,0-.31c0-.38,0-.68,0-.89v-.28Z" transform="translate(-147.53 -88.16)"/><path d="M238.57,266.73v-.33a7.75,7.75,0,0,0,1-.17,4.31,4.31,0,0,0,.75-.24l.11,0c.07,0,.11.08.11.22l0,.3c0,.22,0,.39-.05.5,0,.5,0,1.19,0,2.06v1.25l.67-.72a1.81,1.81,0,0,1,.57-.37,2.11,2.11,0,0,1,.75-.13,1.84,1.84,0,0,1,1.47.65,2.48,2.48,0,0,1,.58,1.73,3.52,3.52,0,0,1-.2,1.15,2.94,2.94,0,0,1-.5.9,5.25,5.25,0,0,1-.74.63,7.08,7.08,0,0,1-.78.56,1.81,1.81,0,0,1-.8.16,2.13,2.13,0,0,1-.74-.12,2.54,2.54,0,0,1-.7-.4l-.44.44-.19-.08a16.33,16.33,0,0,0,.11-1.9v-3.73c0-.57,0-1.16-.05-1.76a1,1,0,0,0-.1-.49c0-.06-.15-.08-.32-.08Zm1.89,6.09a3.12,3.12,0,0,0,0,.73,1.23,1.23,0,0,0,.48.44,1.53,1.53,0,0,0,.86.26,1.41,1.41,0,0,0,1.25-.69,3,3,0,0,0,.44-1.66,2.44,2.44,0,0,0-.43-1.56,1.38,1.38,0,0,0-1.15-.53,1.44,1.44,0,0,0-.89.29,1.48,1.48,0,0,0-.55.68,2.7,2.7,0,0,0,0,.71Z" transform="translate(-147.53 -88.16)"/><path d="M246.15,271.9a2.69,2.69,0,0,0,.56,1.75,1.79,1.79,0,0,0,1.4.6,2.28,2.28,0,0,0,.77-.14,2.93,2.93,0,0,0,.76-.4l.1.09-.18.49a3.71,3.71,0,0,1-2,.56,2.36,2.36,0,0,1-1.82-.75,2.91,2.91,0,0,1-.69-2,3.54,3.54,0,0,1,.39-1.71,2.41,2.41,0,0,1,1-.88,2.58,2.58,0,0,1,1.33-.4,2,2,0,0,1,1.56.61,2.38,2.38,0,0,1,.58,1.7v.35a4.89,4.89,0,0,1-.7.12c-.4,0-.95,0-1.65,0Zm0-.44c.58,0,1.21,0,1.9,0a7.09,7.09,0,0,0,.81,0v-.33a2.53,2.53,0,0,0-.2-1,1.07,1.07,0,0,0-.42-.48,1.39,1.39,0,0,0-.71-.19,1.19,1.19,0,0,0-1,.48A2.49,2.49,0,0,0,246.16,271.46Z" transform="translate(-147.53 -88.16)"/><path d="M250.31,266.73v-.33a7.75,7.75,0,0,0,1-.17,4.31,4.31,0,0,0,.75-.24l.11,0c.08,0,.11.08.11.22l0,.3c0,.22,0,.39,0,.5,0,.5,0,1.19,0,2.06v1.25l.67-.72a1.81,1.81,0,0,1,.57-.37,2.11,2.11,0,0,1,.75-.13,1.84,1.84,0,0,1,1.47.65,2.48,2.48,0,0,1,.58,1.73,3.52,3.52,0,0,1-.2,1.15,2.94,2.94,0,0,1-.5.9,4.68,4.68,0,0,1-.74.63,7.08,7.08,0,0,1-.78.56,1.81,1.81,0,0,1-.8.16,2.13,2.13,0,0,1-.74-.12,2.54,2.54,0,0,1-.7-.4l-.44.44-.19-.08a16.33,16.33,0,0,0,.11-1.9v-3.73c0-.57,0-1.16,0-1.76a1,1,0,0,0-.1-.49c0-.06-.15-.08-.32-.08Zm1.89,6.09a3.12,3.12,0,0,0,0,.73,1.23,1.23,0,0,0,.48.44,1.55,1.55,0,0,0,.86.26,1.41,1.41,0,0,0,1.25-.69,3,3,0,0,0,.44-1.66,2.44,2.44,0,0,0-.43-1.56,1.38,1.38,0,0,0-1.15-.53,1.44,1.44,0,0,0-.89.29,1.48,1.48,0,0,0-.55.68,2.7,2.7,0,0,0-.05.71Z" transform="translate(-147.53 -88.16)"/><path d="M256.92,271.92a3,3,0,0,1,.35-1.46,2.52,2.52,0,0,1,1-1,2.83,2.83,0,0,1,1.46-.37,2.48,2.48,0,0,1,1.89.74,2.71,2.71,0,0,1,.71,2,3,3,0,0,1-.93,2.31,2.81,2.81,0,0,1-2,.77,2.3,2.3,0,0,1-1.81-.79A3.13,3.13,0,0,1,256.92,271.92Zm1-.41a4.26,4.26,0,0,0,.47,2.06,1.45,1.45,0,0,0,1.35.86,1.31,1.31,0,0,0,1.09-.54,2.7,2.7,0,0,0,.41-1.63,4.49,4.49,0,0,0-.24-1.54,2.07,2.07,0,0,0-.65-.94,1.43,1.43,0,0,0-.89-.3,1.36,1.36,0,0,0-.79.24,1.29,1.29,0,0,0-.52.63A2.93,2.93,0,0,0,258,271.51Z" transform="translate(-147.53 -88.16)"/><path d="M264.1,271.9a2.69,2.69,0,0,0,.56,1.75,1.79,1.79,0,0,0,1.4.6,2.28,2.28,0,0,0,.77-.14,2.93,2.93,0,0,0,.76-.4l.09.09-.17.49a3.71,3.71,0,0,1-2,.56,2.36,2.36,0,0,1-1.82-.75,2.91,2.91,0,0,1-.69-2,3.54,3.54,0,0,1,.39-1.71,2.45,2.45,0,0,1,.94-.88,2.64,2.64,0,0,1,1.34-.4,2,2,0,0,1,1.56.61,2.38,2.38,0,0,1,.58,1.7l0,.35a4.55,4.55,0,0,1-.69.12c-.4,0-.95,0-1.65,0Zm0-.44c.58,0,1.21,0,1.9,0a7.09,7.09,0,0,0,.81,0v-.33a2.53,2.53,0,0,0-.2-1,1.07,1.07,0,0,0-.42-.48,1.39,1.39,0,0,0-.71-.19,1.18,1.18,0,0,0-1,.48A2.49,2.49,0,0,0,264.11,271.46Z" transform="translate(-147.53 -88.16)"/><path d="M270.28,270.4a4.65,4.65,0,0,0,.48-.59,2.1,2.1,0,0,1,.58-.58,1.06,1.06,0,0,1,.56-.16,1.16,1.16,0,0,1,.47.07c.05,0,.08.06.08.11v.06a9.93,9.93,0,0,0-.1,1.33h-.25a.88.88,0,0,0-.3-.42.7.7,0,0,0-.42-.12.94.94,0,0,0-.6.23,1.21,1.21,0,0,0-.38.66,9.61,9.61,0,0,0-.09,1.65,13,13,0,0,0,.06,1.37c0,.14.05.23.11.26a1.28,1.28,0,0,0,.62.12h.34v.34c-.57,0-1.11,0-1.61,0s-1,0-1.46,0v-.34l.53,0a.65.65,0,0,0,.36-.11,1.36,1.36,0,0,0,.1-.57c0-.57,0-1.23,0-2a7,7,0,0,0-.1-1.66c0-.1-.2-.15-.46-.15h-.46v-.34a9.39,9.39,0,0,0,1-.17,4.38,4.38,0,0,0,.75-.26.24.24,0,0,1,.12,0,.11.11,0,0,1,.09,0,.51.51,0,0,1,0,.16Z" transform="translate(-147.53 -88.16)"/><path d="M274,271.9a2.69,2.69,0,0,0,.56,1.75,1.79,1.79,0,0,0,1.4.6,2.28,2.28,0,0,0,.77-.14,2.93,2.93,0,0,0,.76-.4l.1.09-.18.49a3.71,3.71,0,0,1-2,.56,2.36,2.36,0,0,1-1.82-.75,2.91,2.91,0,0,1-.69-2,3.54,3.54,0,0,1,.39-1.71,2.41,2.41,0,0,1,.95-.88,2.58,2.58,0,0,1,1.33-.4,2,2,0,0,1,1.56.61,2.38,2.38,0,0,1,.58,1.7v.35a4.89,4.89,0,0,1-.7.12c-.4,0-.95,0-1.65,0Zm0-.44c.58,0,1.21,0,1.9,0a7.09,7.09,0,0,0,.81,0v-.33a2.53,2.53,0,0,0-.2-1,1.07,1.07,0,0,0-.42-.48,1.39,1.39,0,0,0-.71-.19,1.19,1.19,0,0,0-1,.48A2.49,2.49,0,0,0,274.05,271.46Z" transform="translate(-147.53 -88.16)"/><path d="M281.75,270.66v-.8l.61-.36a3.25,3.25,0,0,1,.72-.34,2.27,2.27,0,0,1,.65-.09,2,2,0,0,1,1.24.36,1.43,1.43,0,0,1,.56.92,17.74,17.74,0,0,1,.09,2.09,13.57,13.57,0,0,0,.06,1.74.26.26,0,0,0,.28.17h.43v.38l-.88,0c-.21,0-.48,0-.83,0v-1l-1.15.93a1,1,0,0,1-.31.17,1.47,1.47,0,0,1-.41.05,1.49,1.49,0,0,1-1.1-.37,1.35,1.35,0,0,1-.38-1,1.93,1.93,0,0,1,.27-1,1.59,1.59,0,0,1,.77-.65,13.81,13.81,0,0,1,2.31-.55,1.82,1.82,0,0,0-.31-1.12,1.3,1.3,0,0,0-1.08-.46,1.63,1.63,0,0,0-.5.07,1.32,1.32,0,0,0-.43.21c-.11.28-.21.54-.3.8Zm2.93.93a6.63,6.63,0,0,0-2,.66,1.09,1.09,0,0,0-.42.95,1,1,0,0,0,.24.69.77.77,0,0,0,.62.26,1.46,1.46,0,0,0,.79-.24,2.8,2.8,0,0,0,.73-.73v-1.59Z" transform="translate(-147.53 -88.16)"/><path d="M288.71,270.13v2.3a6.55,6.55,0,0,0,.06,1.15.63.63,0,0,0,.22.39.62.62,0,0,0,.43.14.74.74,0,0,0,.32-.07,1,1,0,0,0,.3-.2l.16.21-.54.67-.35.1-.32,0a1.48,1.48,0,0,1-.7-.15,1,1,0,0,1-.41-.41,1.65,1.65,0,0,1-.13-.75l0-1.13v-2.23c-.28,0-.58,0-.88,0V270c.32-.13.61-.26.88-.4,0-.56,0-1.17,0-1.82a10,10,0,0,0,.93-.46l.14.11c0,.31-.06,1-.09,2.17l1.11,0,.44,0-.06.61h-1.49Z" transform="translate(-147.53 -88.16)"/><path d="M297.22,269.52v-.34c.38,0,.72.05,1,.05s.72,0,1.12-.05v.34h-.17a.54.54,0,0,0-.25.06.4.4,0,0,0-.15.1,8.79,8.79,0,0,0-.4.82c-.42.91-.74,1.63-1,2.15s-.5,1.24-.84,2.14H296q-.74-1.94-1.5-3.75c-.19-.45-.3-.73-.34-.86a1.35,1.35,0,0,0-.28-.52.56.56,0,0,0-.39-.14h-.18v-.34c.54,0,1,.05,1.36.05s.81,0,1.27-.05v.34h-.24a1.09,1.09,0,0,0-.48.08.2.2,0,0,0-.09.18,1.55,1.55,0,0,0,.1.4c.06.2.51,1.39,1.34,3.55l1-2.54c.22-.58.36-1,.42-1.21a1.37,1.37,0,0,0,0-.16.22.22,0,0,0-.07-.17,1.15,1.15,0,0,0-.38-.08Z" transform="translate(-147.53 -88.16)"/><path d="M300.42,270.66v-.8l.6-.36a3.72,3.72,0,0,1,.72-.34,2.39,2.39,0,0,1,.66-.09,2,2,0,0,1,1.24.36,1.43,1.43,0,0,1,.56.92c0,.29.07,1,.08,2.09a12.5,12.5,0,0,0,.07,1.74.26.26,0,0,0,.28.17h.43v.38l-.88,0-.84,0v-.52c0-.17,0-.34,0-.51l-1.15.93a.92.92,0,0,1-.3.17,1.79,1.79,0,0,1-1.51-.32,1.35,1.35,0,0,1-.38-1,1.93,1.93,0,0,1,.27-1,1.59,1.59,0,0,1,.77-.65,13.87,13.87,0,0,1,2.3-.55,1.76,1.76,0,0,0-.31-1.12,1.3,1.3,0,0,0-1.07-.46,1.59,1.59,0,0,0-.5.07,1.48,1.48,0,0,0-.44.21c-.1.28-.2.54-.29.8Zm2.92.93a6.63,6.63,0,0,0-2,.66,1.11,1.11,0,0,0-.41.95,1,1,0,0,0,.24.69.77.77,0,0,0,.61.26,1.47,1.47,0,0,0,.8-.24,2.94,2.94,0,0,0,.72-.73v-1.59Z" transform="translate(-147.53 -88.16)"/><path d="M306.15,272.94v.38a1.23,1.23,0,0,0,.08.57,1.43,1.43,0,0,0,.57.37,2.13,2.13,0,0,0,.86.17,1.32,1.32,0,0,0,.93-.32,1,1,0,0,0,.36-.78.77.77,0,0,0-.21-.57,1.62,1.62,0,0,0-.8-.35,7.26,7.26,0,0,1-1.46-.41,1.25,1.25,0,0,1-.54-.47,1.41,1.41,0,0,1-.17-.71,1.63,1.63,0,0,1,.53-1.27,2.22,2.22,0,0,1,1.52-.48,4,4,0,0,1,1.56.33c0,.26-.06.71-.08,1.33H309a1.62,1.62,0,0,0-.1-.68,1.19,1.19,0,0,0-.47-.39,1.48,1.48,0,0,0-.72-.18,1.12,1.12,0,0,0-.8.28.88.88,0,0,0-.3.68.75.75,0,0,0,.23.59,3.77,3.77,0,0,0,1.33.44,4.1,4.1,0,0,1,1.05.31,1.06,1.06,0,0,1,.41.45,1.37,1.37,0,0,1,.16.68,1.81,1.81,0,0,1-.64,1.37,2.5,2.5,0,0,1-1.72.57,6.06,6.06,0,0,1-1.53-.22c-.1,0-.15-.07-.15-.13l0-.08c0-.06,0-.16,0-.31,0-.38.05-.68.05-.89v-.28Z" transform="translate(-147.53 -88.16)"/><path d="M312.25,271.8v.74a7.51,7.51,0,0,0,.09,1.67c.07.12.25.18.56.18h.34v.34h-.3l-1.06,0-1.48,0v-.34h.33c.29,0,.45-.05.51-.17a9,9,0,0,0,.07-1.67v-3.5a13.23,13.23,0,0,0-.08-2.18c0-.09-.18-.14-.43-.14h-.47v-.34a5.43,5.43,0,0,0,1.33-.24l.56-.19q.09,0,.09.12l0,.59c0,.14,0,1,0,2.45v2.35l.07,0c.34-.27.63-.5.86-.71s.4-.39.84-.82l.79-.8h1.12v.34h-.2a1,1,0,0,0-.49.2,18.05,18.05,0,0,0-2,1.59c.69.77,1.12,1.22,1.28,1.38.74.72,1.19,1.14,1.34,1.27a.9.9,0,0,0,.24.16,1.13,1.13,0,0,0,.28.07v.26a6.29,6.29,0,0,1-1.06.38c-.22-.19-.73-.71-1.55-1.57-.59-.63-1.08-1.12-1.45-1.46Z" transform="translate(-147.53 -88.16)"/><path d="M317.83,271.9a2.69,2.69,0,0,0,.56,1.75,1.79,1.79,0,0,0,1.4.6,2.28,2.28,0,0,0,.77-.14,2.93,2.93,0,0,0,.76-.4l.1.09-.18.49a3.71,3.71,0,0,1-2,.56,2.36,2.36,0,0,1-1.82-.75,2.91,2.91,0,0,1-.69-2,3.54,3.54,0,0,1,.39-1.71,2.41,2.41,0,0,1,.95-.88,2.58,2.58,0,0,1,1.33-.4,2,2,0,0,1,1.56.61,2.38,2.38,0,0,1,.58,1.7v.35a4.89,4.89,0,0,1-.7.12c-.4,0-.95,0-1.65,0Zm0-.44c.58,0,1.21,0,1.9,0a7.09,7.09,0,0,0,.81,0v-.33a2.53,2.53,0,0,0-.2-1,1.07,1.07,0,0,0-.42-.48,1.39,1.39,0,0,0-.71-.19,1.19,1.19,0,0,0-1,.48A2.49,2.49,0,0,0,317.84,271.46Z" transform="translate(-147.53 -88.16)"/><path d="M326.81,270.13v2.3a6.55,6.55,0,0,0,.06,1.15.68.68,0,0,0,.22.39.64.64,0,0,0,.43.14.71.71,0,0,0,.32-.07,1,1,0,0,0,.3-.2l.16.21-.54.67-.34.1-.33,0a1.51,1.51,0,0,1-.7-.15,1.08,1.08,0,0,1-.41-.41,1.8,1.8,0,0,1-.13-.75l0-1.13v-2.23c-.29,0-.58,0-.89,0V270c.32-.13.62-.26.89-.4,0-.56,0-1.17-.05-1.82a10,10,0,0,0,.93-.46l.15.11c0,.31-.06,1-.1,2.17l1.11,0,.44,0-.06.61h-1.49Z" transform="translate(-147.53 -88.16)"/><path d="M328.81,274.82l.71-.85a3.36,3.36,0,0,1-.6-2,2.89,2.89,0,0,1,.82-2.19,3,3,0,0,1,3.56-.3l.66-.78.33.31-.64.77a2.68,2.68,0,0,1,.52.86,3.53,3.53,0,0,1,.16,1.09,3,3,0,0,1-1,2.36,2.87,2.87,0,0,1-1.94.71,2.43,2.43,0,0,1-1.56-.54l-.69.83Zm4-4.69a1.56,1.56,0,0,0-1.25-.65,1.41,1.41,0,0,0-1.13.52,2.42,2.42,0,0,0-.42,1.54,4.93,4.93,0,0,0,.27,1.63Zm-2.31,3.49a1.48,1.48,0,0,0,1.3.81,1.32,1.32,0,0,0,1.1-.54,2.66,2.66,0,0,0,.42-1.64,5.12,5.12,0,0,0-.28-1.66Z" transform="translate(-147.53 -88.16)"/><path d="M334.76,269.86v-.34a6.1,6.1,0,0,0,1.38-.3l.49-.18c.06,0,.09,0,.09.11v.12c0,.07,0,.35,0,.86,0,1-.07,1.88-.07,2.57v1.51a7.72,7.72,0,0,1-.25,2.3,2.51,2.51,0,0,1-.75,1.15,1.55,1.55,0,0,1-1,.41h-.17l-.11-.41.28,0a.7.7,0,0,0,.44-.13,1.32,1.32,0,0,0,.41-.62,8,8,0,0,0,.18-1.87c0-1,.05-2,.05-3.13a13.66,13.66,0,0,0-.06-1.91c0-.11-.2-.17-.46-.17Zm1.34-3.42a.59.59,0,0,1,.44.2.68.68,0,0,1,0,.94.58.58,0,0,1-.44.19.61.61,0,0,1-.45-.19.7.7,0,0,1,0-.94A.62.62,0,0,1,336.1,266.44Z" transform="translate(-147.53 -88.16)"/><path d="M345,274.73l.06-1.05-.32.37a2.36,2.36,0,0,1-.78.62,2.38,2.38,0,0,1-1,.18,1.6,1.6,0,0,1-.86-.22,1.34,1.34,0,0,1-.53-.58,3,3,0,0,1-.16-1.12c0-.27,0-.58,0-.93v-.94a5.1,5.1,0,0,0-.05-1.1c0-.08-.15-.11-.35-.11h-.5v-.33a5.43,5.43,0,0,0,1.4-.29l.47-.18q.09,0,.09.15l0,.59c-.05.83-.08,1.6-.08,2.31a6.07,6.07,0,0,0,.09,1.36.87.87,0,0,0,.35.5,1,1,0,0,0,.64.19,1.43,1.43,0,0,0,.95-.35,1.69,1.69,0,0,0,.56-.71,5.56,5.56,0,0,0,.07-1.23A13.36,13.36,0,0,0,345,270c0-.08-.2-.12-.5-.12H344v-.33a8.72,8.72,0,0,0,1-.16,5.9,5.9,0,0,0,.84-.28l.1,0c.06,0,.09,0,.09.11l0,.55c-.05,1.33-.08,2.51-.08,3.52a3.12,3.12,0,0,0,.08,1c.08.12.26.18.53.18h.32v.34c-.46,0-.85,0-1.18,0S345.19,274.71,345,274.73Z" transform="translate(-147.53 -88.16)"/><path d="M351.88,269.42V267.3a.81.81,0,0,0-.08-.47.47.47,0,0,0-.35-.09H351v-.35a5.89,5.89,0,0,0,1.85-.43l.1.07c0,.4-.05.88-.07,1.44l0,1.56v4a4.68,4.68,0,0,0,.06,1.09c.05.11.21.18.46.21l.39.05v.34c-.45,0-.86-.05-1.21-.05l-.7.05c0-.26.05-.64.06-1.12q-.47.38-1.2,1.08a2.52,2.52,0,0,1-.83.16,2,2,0,0,1-1.57-.74,3,3,0,0,1-.63-2,3.33,3.33,0,0,1,.24-1.33,2,2,0,0,1,.58-.8,11.83,11.83,0,0,1,1.06-.63,2.18,2.18,0,0,1,1-.28,3,3,0,0,1,.65.08A3.28,3.28,0,0,1,351.88,269.42Zm0,1a2.9,2.9,0,0,0-.79-.65,1.92,1.92,0,0,0-.87-.21,1.38,1.38,0,0,0-1.16.56,2.56,2.56,0,0,0-.45,1.64,2.65,2.65,0,0,0,.51,1.72,1.55,1.55,0,0,0,1.23.62,1.36,1.36,0,0,0,.82-.26,1.45,1.45,0,0,0,.54-.68,3.52,3.52,0,0,0,.17-1.31Z" transform="translate(-147.53 -88.16)"/><path d="M355.47,271.9a2.69,2.69,0,0,0,.56,1.75,1.79,1.79,0,0,0,1.4.6,2.32,2.32,0,0,0,.77-.14,3.1,3.1,0,0,0,.76-.4l.09.09-.17.49a3.78,3.78,0,0,1-.95.42,3.85,3.85,0,0,1-1,.14,2.36,2.36,0,0,1-1.82-.75,2.91,2.91,0,0,1-.69-2,3.54,3.54,0,0,1,.39-1.71,2.37,2.37,0,0,1,.94-.88,2.64,2.64,0,0,1,1.34-.4,2,2,0,0,1,1.56.61,2.38,2.38,0,0,1,.57,1.7v.35a4.46,4.46,0,0,1-.7.12c-.39,0-.94,0-1.64,0Zm0-.44c.58,0,1.21,0,1.9,0a7.09,7.09,0,0,0,.81,0v-.33a2.53,2.53,0,0,0-.2-1,1,1,0,0,0-.43-.48,1.33,1.33,0,0,0-.7-.19,1.17,1.17,0,0,0-1,.48A2.49,2.49,0,0,0,355.48,271.46Z" transform="translate(-147.53 -88.16)"/><path d="M361.55,270.19l.84-.79a1,1,0,0,1,.31-.2,2.14,2.14,0,0,1,.74-.13,2,2,0,0,1,1,.25,1.51,1.51,0,0,1,.62.66,3.18,3.18,0,0,1,.19,1.28l0,1.84a4.29,4.29,0,0,0,.07,1.11.44.44,0,0,0,.41.18h.4v.34c-.39,0-.74,0-1,0s-.59,0-.91,0c.07-.76.11-1.79.11-3.08a3.56,3.56,0,0,0-.13-1.12,1.19,1.19,0,0,0-.44-.53,1.39,1.39,0,0,0-.75-.19,1.45,1.45,0,0,0-.91.28,1.18,1.18,0,0,0-.47.64,8.48,8.48,0,0,0-.05,1.19c0,.72,0,1.38,0,2a.6.6,0,0,0,.07.35.67.67,0,0,0,.46.13h.4v.34l-1.5,0c-.39,0-.84,0-1.34,0v-.34h.4c.27,0,.43-.06.48-.2a18.24,18.24,0,0,0,.07-2.43c0-.67,0-1.19,0-1.57a.42.42,0,0,0-.09-.26.88.88,0,0,0-.44-.07h-.4v-.34a5.94,5.94,0,0,0,.85-.15,6,6,0,0,0,.85-.31l.09,0c.06,0,.09,0,.09.13v1Z" transform="translate(-147.53 -88.16)"/><path d="M248.24,286.3a2.69,2.69,0,0,0,.56,1.75,1.79,1.79,0,0,0,1.4.6,2.32,2.32,0,0,0,.77-.14,3.1,3.1,0,0,0,.76-.4l.09.09-.17.49a3.78,3.78,0,0,1-1,.42,3.85,3.85,0,0,1-1,.14,2.36,2.36,0,0,1-1.82-.75,2.91,2.91,0,0,1-.69-2,3.54,3.54,0,0,1,.39-1.71,2.37,2.37,0,0,1,.94-.88,2.64,2.64,0,0,1,1.34-.4,2,2,0,0,1,1.56.61,2.38,2.38,0,0,1,.57,1.7v.35a4.46,4.46,0,0,1-.7.12c-.39,0-.94.05-1.64.05Zm0-.44c.58,0,1.21,0,1.9,0,.28,0,.55,0,.81,0v-.33a2.53,2.53,0,0,0-.2-1,1,1,0,0,0-.43-.48,1.33,1.33,0,0,0-.7-.19,1.17,1.17,0,0,0-1,.48A2.49,2.49,0,0,0,248.25,285.86Z" transform="translate(-147.53 -88.16)"/><path d="M254.43,286.2v.74a7.51,7.51,0,0,0,.09,1.67c.07.12.25.18.56.18h.34v.34h-.3l-1.06,0-1.48,0v-.34h.33c.29,0,.46-.05.51-.17a8.5,8.5,0,0,0,.08-1.67v-3.5a12.6,12.6,0,0,0-.09-2.18c0-.09-.18-.14-.43-.14h-.47v-.34a5.43,5.43,0,0,0,1.33-.24l.57-.19c.05,0,.08,0,.08.12l0,.59c0,.14,0,1,0,2.45v2.35l.08,0c.33-.27.62-.5.86-.71l.83-.82.8-.8h1.12v.34h-.2a1,1,0,0,0-.5.2,18.05,18.05,0,0,0-2,1.59c.69.77,1.12,1.22,1.28,1.38.74.72,1.19,1.14,1.34,1.27a.9.9,0,0,0,.24.16,1.13,1.13,0,0,0,.28.07v.26a6,6,0,0,1-1.06.38c-.22-.19-.73-.71-1.55-1.57-.59-.63-1.07-1.12-1.44-1.46Z" transform="translate(-147.53 -88.16)"/><path d="M259.48,287.34v.38a1.23,1.23,0,0,0,.08.57,1.38,1.38,0,0,0,.56.37,2.18,2.18,0,0,0,.87.17,1.32,1.32,0,0,0,.93-.32,1,1,0,0,0,.36-.78.77.77,0,0,0-.21-.57,1.62,1.62,0,0,0-.81-.35,7.71,7.71,0,0,1-1.46-.41,1.28,1.28,0,0,1-.53-.47,1.31,1.31,0,0,1-.18-.71,1.64,1.64,0,0,1,.54-1.27,2.2,2.2,0,0,1,1.52-.48,3.89,3.89,0,0,1,1.55.33c0,.26-.05.71-.08,1.33h-.33a1.81,1.81,0,0,0-.1-.68,1.19,1.19,0,0,0-.47-.39,1.48,1.48,0,0,0-.72-.18,1.14,1.14,0,0,0-.81.28.88.88,0,0,0-.3.68.72.72,0,0,0,.24.59,3.77,3.77,0,0,0,1.32.44,4.08,4.08,0,0,1,1.06.31,1.06,1.06,0,0,1,.41.45,1.48,1.48,0,0,1,.16.68,1.79,1.79,0,0,1-.65,1.37,2.45,2.45,0,0,1-1.71.57,6.48,6.48,0,0,1-1.53-.22c-.1,0-.15-.07-.15-.13v-.08a1.46,1.46,0,0,0,0-.31,8.54,8.54,0,0,0,.05-.89v-.28Z" transform="translate(-147.53 -88.16)"/><path d="M265.52,284.53v2.3a6.55,6.55,0,0,0,.06,1.15.68.68,0,0,0,.22.39.64.64,0,0,0,.43.14.71.71,0,0,0,.32-.07,1,1,0,0,0,.3-.2l.16.21-.54.67-.35.1a1.73,1.73,0,0,1-.32,0,1.39,1.39,0,0,1-.7-.16.93.93,0,0,1-.41-.4,1.8,1.8,0,0,1-.13-.75l0-1.13v-2.23c-.29,0-.58,0-.89,0v-.25c.32-.13.61-.26.89-.4,0-.56,0-1.17,0-1.82a10,10,0,0,0,.93-.46l.15.11c0,.31-.06,1-.1,2.17l1.11,0,.44,0-.06.61h-1.49Z" transform="translate(-147.53 -88.16)"/><path d="M269.27,284.8a5.66,5.66,0,0,0,.49-.59,2.1,2.1,0,0,1,.58-.58,1,1,0,0,1,.56-.16,1.19,1.19,0,0,1,.47.07.12.12,0,0,1,.07.11v.06a8.49,8.49,0,0,0-.1,1.33h-.25a1,1,0,0,0-.3-.42.74.74,0,0,0-.42-.12,1,1,0,0,0-.61.23,1.2,1.2,0,0,0-.37.66,9.28,9.28,0,0,0-.1,1.65,12.66,12.66,0,0,0,.07,1.37c0,.14.05.23.11.26a1.26,1.26,0,0,0,.62.12h.33v.34c-.56,0-1.1,0-1.61,0s-1,0-1.46,0v-.34l.53,0a.57.57,0,0,0,.36-.12,1.12,1.12,0,0,0,.1-.56c0-.57,0-1.23,0-2a6.76,6.76,0,0,0-.11-1.66c0-.1-.2-.15-.45-.15h-.47v-.34a9.39,9.39,0,0,0,1-.17,4.38,4.38,0,0,0,.75-.26.27.27,0,0,1,.13,0s.07,0,.08,0a.32.32,0,0,1,0,.16Z" transform="translate(-147.53 -88.16)"/><path d="M272.45,285.06v-.8l.61-.36a3.25,3.25,0,0,1,.72-.34,2.29,2.29,0,0,1,.66-.09,2,2,0,0,1,1.23.36,1.44,1.44,0,0,1,.57.92c0,.29.07,1,.08,2.09a12.5,12.5,0,0,0,.07,1.74.25.25,0,0,0,.27.17h.44v.38l-.89,0-.83,0v-.52c0-.17,0-.34,0-.51l-1.15.93a.92.92,0,0,1-.3.17,1.5,1.5,0,0,1-.42.05,1.47,1.47,0,0,1-1.09-.37,1.31,1.31,0,0,1-.38-1,1.93,1.93,0,0,1,.27-1,1.56,1.56,0,0,1,.76-.65,14.09,14.09,0,0,1,2.31-.55,1.82,1.82,0,0,0-.31-1.12,1.3,1.3,0,0,0-1.08-.46,1.68,1.68,0,0,0-.5.07,1.43,1.43,0,0,0-.43.21c-.11.28-.21.54-.29.8Zm2.93.93a6.63,6.63,0,0,0-2,.66,1.09,1.09,0,0,0-.42,1,1,1,0,0,0,.24.69.79.79,0,0,0,.62.26,1.49,1.49,0,0,0,.8-.24,2.94,2.94,0,0,0,.72-.73V286Z" transform="translate(-147.53 -88.16)"/><path d="M280.59,286.32a3,3,0,0,1,.36-1.46,2.5,2.5,0,0,1,1-1,2.86,2.86,0,0,1,1.46-.37,2.5,2.5,0,0,1,1.9.74,2.71,2.71,0,0,1,.71,2,3,3,0,0,1-.93,2.31,2.81,2.81,0,0,1-2,.77,2.29,2.29,0,0,1-1.81-.79A3.08,3.08,0,0,1,280.59,286.32Zm1.05-.41a4.26,4.26,0,0,0,.46,2.06,1.48,1.48,0,0,0,1.36.86,1.3,1.3,0,0,0,1.08-.54,2.63,2.63,0,0,0,.42-1.63,4.25,4.25,0,0,0-.25-1.54,2.06,2.06,0,0,0-.64-.94,1.48,1.48,0,0,0-.9-.3,1.39,1.39,0,0,0-.79.24,1.35,1.35,0,0,0-.52.63A2.92,2.92,0,0,0,281.64,285.91Z" transform="translate(-147.53 -88.16)"/><path d="M288.54,284.52l.74-.71a1.21,1.21,0,0,1,.38-.24,1.63,1.63,0,0,1,.57-.1,2,2,0,0,1,1,.23,2.18,2.18,0,0,1,.7.86l.71-.69a1.24,1.24,0,0,1,.46-.27,1.85,1.85,0,0,1,.67-.13,1.74,1.74,0,0,1,.91.24,1.6,1.6,0,0,1,.6.64,2.29,2.29,0,0,1,.2,1.07l0,2.29a2.82,2.82,0,0,0,.08.91c.06.09.2.14.43.16h.41v.34h-.27l-.87,0c-.24,0-.51,0-.82,0,.05-.72.07-1.56.07-2.53a7.7,7.7,0,0,0-.1-1.61,1.05,1.05,0,0,0-.38-.61,1.16,1.16,0,0,0-.71-.22,1.29,1.29,0,0,0-.82.28,1.1,1.1,0,0,0-.43.66,17.6,17.6,0,0,0-.06,2.09c0,.72,0,1.13,0,1.23a.34.34,0,0,0,.09.22,1.48,1.48,0,0,0,.48.11l.37,0v.34l-1.44,0-1.42,0v-.34h.37c.22,0,.37,0,.43-.1a.72.72,0,0,0,.12-.47c0-.64.05-1.31.05-2a4.67,4.67,0,0,0-.12-1.29,1.11,1.11,0,0,0-.41-.56,1.13,1.13,0,0,0-.69-.21,1.28,1.28,0,0,0-.77.26,1.18,1.18,0,0,0-.48.61,6.16,6.16,0,0,0-.08,1.39c0,.84,0,1.46,0,1.86a.61.61,0,0,0,.08.35,1,1,0,0,0,.48.12l.38,0v.34c-.46,0-.9,0-1.31,0s-1,0-1.52,0v-.34h.42c.24,0,.39-.06.44-.2a17.34,17.34,0,0,0,.07-2.21c0-1,0-1.55,0-1.73a.52.52,0,0,0-.09-.33c-.05-.05-.21-.07-.48-.07h-.34v-.33a7,7,0,0,0,1.41-.32l.4-.16c.07,0,.1.05.1.14v.21C288.54,284,288.53,284.25,288.54,284.52Z" transform="translate(-147.53 -88.16)"/><path d="M298.56,286.2v.74a7.51,7.51,0,0,0,.09,1.67c.07.12.25.18.56.18h.34v.34h-.3l-1.06,0-1.48,0v-.34H297c.29,0,.45-.05.51-.17a9,9,0,0,0,.07-1.67v-3.5a13.23,13.23,0,0,0-.08-2.18c0-.09-.18-.14-.43-.14h-.47v-.34a5.43,5.43,0,0,0,1.33-.24l.56-.19q.09,0,.09.12l0,.59c0,.14,0,1,0,2.45v2.35l.07,0c.34-.27.63-.5.86-.71s.4-.39.84-.82l.79-.8h1.13v.34H302a1,1,0,0,0-.49.2,18.05,18.05,0,0,0-2,1.59c.69.77,1.12,1.22,1.28,1.38.74.72,1.19,1.14,1.34,1.27a.9.9,0,0,0,.24.16,1.13,1.13,0,0,0,.28.07v.26a6.29,6.29,0,0,1-1.06.38c-.22-.19-.73-.71-1.55-1.57-.59-.63-1.08-1.12-1.45-1.46Z" transform="translate(-147.53 -88.16)"/><path d="M303.17,286.32a3.06,3.06,0,0,1,.35-1.46,2.52,2.52,0,0,1,1-1,2.83,2.83,0,0,1,1.46-.37,2.46,2.46,0,0,1,1.89.74,2.71,2.71,0,0,1,.71,2,3,3,0,0,1-.93,2.31,2.81,2.81,0,0,1-2,.77,2.3,2.3,0,0,1-1.81-.79A3.13,3.13,0,0,1,303.17,286.32Zm1-.41a4.26,4.26,0,0,0,.47,2.06,1.45,1.45,0,0,0,1.35.86,1.31,1.31,0,0,0,1.09-.54,2.7,2.7,0,0,0,.41-1.63,4.49,4.49,0,0,0-.24-1.54,2.07,2.07,0,0,0-.65-.94,1.43,1.43,0,0,0-.89-.3,1.36,1.36,0,0,0-.79.24,1.29,1.29,0,0,0-.52.63A2.93,2.93,0,0,0,304.21,285.91Z" transform="translate(-147.53 -88.16)"/><path d="M309.82,287.34v.38a1.23,1.23,0,0,0,.08.57,1.31,1.31,0,0,0,.56.37,2.18,2.18,0,0,0,.87.17,1.32,1.32,0,0,0,.93-.32,1,1,0,0,0,.36-.78.77.77,0,0,0-.21-.57,1.62,1.62,0,0,0-.81-.35,7.71,7.71,0,0,1-1.46-.41,1.28,1.28,0,0,1-.53-.47,1.31,1.31,0,0,1-.18-.71A1.64,1.64,0,0,1,310,284a2.2,2.2,0,0,1,1.52-.48,3.89,3.89,0,0,1,1.55.33c0,.26-.06.71-.08,1.33h-.33a1.58,1.58,0,0,0-.11-.68,1.15,1.15,0,0,0-.46-.39,1.54,1.54,0,0,0-.72-.18,1.13,1.13,0,0,0-.81.28.88.88,0,0,0-.3.68.72.72,0,0,0,.24.59,3.77,3.77,0,0,0,1.32.44,4.22,4.22,0,0,1,1.06.31,1.13,1.13,0,0,1,.41.45,1.48,1.48,0,0,1,.15.68,1.78,1.78,0,0,1-.64,1.37,2.49,2.49,0,0,1-1.71.57,6.41,6.41,0,0,1-1.53-.22c-.1,0-.15-.07-.15-.13v-.08a1.46,1.46,0,0,0,0-.31c0-.38.05-.68.05-.89v-.28Z" transform="translate(-147.53 -88.16)"/><path d="M315.86,284.53v2.3a6.55,6.55,0,0,0,.06,1.15.63.63,0,0,0,.22.39.62.62,0,0,0,.43.14.74.74,0,0,0,.32-.07,1,1,0,0,0,.3-.2l.16.21-.54.67-.35.1-.32,0a1.37,1.37,0,0,1-.7-.16.93.93,0,0,1-.41-.4,1.65,1.65,0,0,1-.13-.75l0-1.13v-2.23c-.28,0-.58,0-.88,0v-.25c.32-.13.61-.26.88-.4,0-.56,0-1.17,0-1.82a10,10,0,0,0,.93-.46l.15.11c0,.31-.06,1-.1,2.17l1.11,0,.44,0-.06.61h-1.49Z" transform="translate(-147.53 -88.16)"/><path d="M319.51,284.59l.84-.79a1,1,0,0,1,.32-.2,2.08,2.08,0,0,1,.73-.13,2,2,0,0,1,1,.25,1.46,1.46,0,0,1,.62.66,3.18,3.18,0,0,1,.19,1.28l0,1.84a4.07,4.07,0,0,0,.08,1.11.43.43,0,0,0,.41.18h.39v.34c-.39,0-.73,0-1,0s-.58,0-.9,0c.07-.76.1-1.79.1-3.08a3.28,3.28,0,0,0-.13-1.12,1.13,1.13,0,0,0-.44-.53,1.34,1.34,0,0,0-.74-.19,1.48,1.48,0,0,0-.92.28,1.16,1.16,0,0,0-.46.64,6.65,6.65,0,0,0-.06,1.19c0,.72,0,1.38,0,2a.52.52,0,0,0,.08.35.63.63,0,0,0,.46.13h.39v.34l-1.49,0c-.4,0-.84,0-1.35,0v-.34h.4c.28,0,.44-.06.49-.2a22.09,22.09,0,0,0,.06-2.43c0-.67,0-1.19,0-1.57a.37.37,0,0,0-.09-.26.85.85,0,0,0-.44-.07h-.4v-.34a8,8,0,0,0,.86-.15,5.93,5.93,0,0,0,.84-.31l.1,0c.06,0,.09,0,.09.13v1Z" transform="translate(-147.53 -88.16)"/><path d="M326.23,283.44l.13.09c0,.29,0,.62-.05,1q0,1.71,0,2.52a12.14,12.14,0,0,0,.05,1.3.5.5,0,0,0,.1.3.89.89,0,0,0,.4.12l.38.05v.34c-.54,0-1,0-1.48,0s-.88,0-1.32,0v-.34l.48-.05c.18,0,.3-.05.34-.11a1.47,1.47,0,0,0,.08-.57c0-.49,0-1.18,0-2.05q0-.92,0-1.41a.34.34,0,0,0-.1-.25.62.62,0,0,0-.38-.08h-.42v-.34a10.14,10.14,0,0,0,1-.19A8.21,8.21,0,0,0,326.23,283.44Zm-.44-2.59a.59.59,0,0,1,.44.19.68.68,0,0,1,.18.48.63.63,0,0,1-.18.46.6.6,0,0,1-.44.2.59.59,0,0,1-.45-.2.63.63,0,0,1-.18-.46.68.68,0,0,1,.18-.48A.58.58,0,0,1,325.79,280.85Z" transform="translate(-147.53 -88.16)"/><path d="M329.44,284.59l.84-.79a1,1,0,0,1,.32-.2,2.08,2.08,0,0,1,.73-.13,2,2,0,0,1,1,.25,1.46,1.46,0,0,1,.62.66,3.18,3.18,0,0,1,.19,1.28l0,1.84a4.07,4.07,0,0,0,.08,1.11.43.43,0,0,0,.41.18H334v.34c-.39,0-.73,0-1,0s-.58,0-.9,0c.07-.76.1-1.79.1-3.08a3.28,3.28,0,0,0-.13-1.12,1.13,1.13,0,0,0-.44-.53,1.34,1.34,0,0,0-.74-.19,1.48,1.48,0,0,0-.92.28,1.16,1.16,0,0,0-.46.64,6.65,6.65,0,0,0-.06,1.19c0,.72,0,1.38,0,2a.52.52,0,0,0,.08.35.63.63,0,0,0,.46.13h.39v.34l-1.49,0c-.4,0-.84,0-1.35,0v-.34h.4c.28,0,.44-.06.49-.2a22.09,22.09,0,0,0,.06-2.43c0-.67,0-1.19,0-1.57a.42.42,0,0,0-.09-.26.88.88,0,0,0-.44-.07h-.4v-.34a8,8,0,0,0,.86-.15,5.93,5.93,0,0,0,.84-.31l.1,0c.06,0,.09,0,.09.13v1Z" transform="translate(-147.53 -88.16)"/><path d="M339,284.56a2.09,2.09,0,0,1,.12.61,1.88,1.88,0,0,1-.3,1,2.22,2.22,0,0,1-.85.78,2.48,2.48,0,0,1-1.2.3h-.26a2.34,2.34,0,0,0-.47.43.48.48,0,0,0-.09.27.38.38,0,0,0,.21.35,2,2,0,0,0,.89.13l.73,0,1,0a1.23,1.23,0,0,1,.67.15,1.11,1.11,0,0,1,.4.52,2.07,2.07,0,0,1,.17.84,2.35,2.35,0,0,1-.38,1.26,2.66,2.66,0,0,1-1.1,1,3.56,3.56,0,0,1-1.66.37,2.64,2.64,0,0,1-1.76-.53,1.64,1.64,0,0,1-.62-1.29,1.8,1.8,0,0,1,.32-1,6.19,6.19,0,0,0,1-.58,1.57,1.57,0,0,1-.59-.29.44.44,0,0,1-.13-.33,1,1,0,0,1,.13-.49,1.32,1.32,0,0,1,.36-.36l.54-.4a2,2,0,0,1-1-.5,1.6,1.6,0,0,1-.39-1.11,2.13,2.13,0,0,1,.29-1.08,2,2,0,0,1,.85-.76,3.09,3.09,0,0,1,1.38-.36,1.89,1.89,0,0,1,1.4.51h.47a8.34,8.34,0,0,0,1.12-.05l.06.12a4.68,4.68,0,0,0-.3.54Zm-2.36,4.66a1.14,1.14,0,0,0-.54.09,1.68,1.68,0,0,0-.56.51,1.6,1.6,0,0,0-.17.77,1.38,1.38,0,0,0,.45,1.06,1.79,1.79,0,0,0,1.25.41,2.32,2.32,0,0,0,1.08-.24,1.77,1.77,0,0,0,.72-.66,1.65,1.65,0,0,0,.26-.86,1.22,1.22,0,0,0-.18-.67.76.76,0,0,0-.43-.37,2.37,2.37,0,0,0-.58,0Zm1.52-3.74a1.83,1.83,0,0,0-.36-1.18,1.14,1.14,0,0,0-1.75-.08,1.45,1.45,0,0,0-.33,1,2,2,0,0,0,.35,1.23,1.16,1.16,0,0,0,1.76.07A1.54,1.54,0,0,0,338.19,285.48Z" transform="translate(-147.53 -88.16)"/><path d="M341.76,286.3a2.63,2.63,0,0,0,.56,1.75,1.77,1.77,0,0,0,1.4.6,2.37,2.37,0,0,0,.77-.14,3.29,3.29,0,0,0,.76-.4l.09.09-.18.49a3.49,3.49,0,0,1-1,.42,3.72,3.72,0,0,1-1,.14,2.36,2.36,0,0,1-1.82-.75,2.91,2.91,0,0,1-.69-2,3.54,3.54,0,0,1,.39-1.71,2.37,2.37,0,0,1,.94-.88,2.64,2.64,0,0,1,1.34-.4,2,2,0,0,1,1.56.61,2.38,2.38,0,0,1,.57,1.7v.35a4.67,4.67,0,0,1-.7.12c-.39,0-.94.05-1.65.05Zm0-.44c.57,0,1.21,0,1.9,0,.28,0,.54,0,.8,0v-.33a2.52,2.52,0,0,0-.19-1,1,1,0,0,0-.43-.48,1.36,1.36,0,0,0-.7-.19,1.2,1.2,0,0,0-1,.48A2.5,2.5,0,0,0,341.77,285.86Z" transform="translate(-147.53 -88.16)"/><path d="M347.93,284.8a5.66,5.66,0,0,0,.49-.59,2.1,2.1,0,0,1,.58-.58,1,1,0,0,1,.56-.16,1.19,1.19,0,0,1,.47.07c.05,0,.08.06.08.11v.06A8.49,8.49,0,0,0,350,285h-.25a1,1,0,0,0-.3-.42.74.74,0,0,0-.42-.12,1,1,0,0,0-.61.23,1.2,1.2,0,0,0-.37.66A9.61,9.61,0,0,0,348,287a13,13,0,0,0,.06,1.37c0,.14.05.23.11.26a1.28,1.28,0,0,0,.62.12h.33v.34c-.56,0-1.1,0-1.61,0s-1,0-1.46,0v-.34l.54,0a.56.56,0,0,0,.35-.12,1.12,1.12,0,0,0,.1-.56c0-.57,0-1.23,0-2a6.76,6.76,0,0,0-.11-1.66c0-.1-.2-.15-.45-.15H346v-.34a9.39,9.39,0,0,0,1-.17,4.38,4.38,0,0,0,.75-.26.27.27,0,0,1,.13,0s.07,0,.08,0a.3.3,0,0,1,0,.16Z" transform="translate(-147.53 -88.16)"/><path d="M350.85,282.51l.43-1.4a2.92,2.92,0,0,1,.7-.32,2.29,2.29,0,0,1,.74-.11,2.18,2.18,0,0,1,1.55.54,1.86,1.86,0,0,1,.57,1.4,2.08,2.08,0,0,1-.11.66,1.94,1.94,0,0,1-.3.59,12.34,12.34,0,0,1-.87.93,8.59,8.59,0,0,0-.68.7,1.57,1.57,0,0,0-.29.48.87.87,0,0,0-.06.32,1,1,0,0,0,.25.6l-.24.19a1.31,1.31,0,0,1-.39-.45,1.15,1.15,0,0,1-.11-.5,1.24,1.24,0,0,1,.13-.56,4.41,4.41,0,0,1,.62-.89,6.14,6.14,0,0,0,.83-1.16,1.57,1.57,0,0,0,.17-.71,1.28,1.28,0,0,0-.39-.94,1.42,1.42,0,0,0-1-.38,1.1,1.1,0,0,0-.35.05,1.66,1.66,0,0,0-.38.15,4.79,4.79,0,0,0-.49.92l-.29,0Zm1.73,5.37a.61.61,0,0,1,.46.2.71.71,0,0,1,0,1,.62.62,0,0,1-.91,0,.71.71,0,0,1,0-1A.61.61,0,0,1,352.58,287.88Z" transform="translate(-147.53 -88.16)"/></g></svg>