<svg id="Lag_1" data-name="Lag 1" xmlns="http://www.w3.org/2000/svg" viewBox="0 0 624.42 77.1"><defs><style>.cls-1,.cls-2,.cls-3,.cls-5,.cls-6,.cls-7{fill:none;}.cls-1,.cls-2{stroke:#f39208;}.cls-1,.cls-2,.cls-3,.cls-4,.cls-5,.cls-6{stroke-miterlimit:10;}.cls-2,.cls-3,.cls-4,.cls-6{stroke-linecap:round;}.cls-3,.cls-4,.cls-5{stroke:#f3920a;}.cls-4{fill:#f3920d;}.cls-6{stroke:#f39204;}</style></defs><circle class="cls-1" cx="37.99" cy="38.55" r="18.02"/><line class="cls-2" x1="57.19" y1="6.32" x2="50.44" y2="17.83"/><line class="cls-2" x1="70.87" y1="19.9" x2="59.28" y2="26.65"/><line class="cls-2" x1="76.04" y1="38.79" x2="61.99" y2="38.7"/><line class="cls-2" x1="70.78" y1="57.75" x2="58.99" y2="50.85"/><line class="cls-2" x1="57.06" y1="71.43" x2="50.03" y2="59.56"/><line class="cls-2" x1="37.76" y1="76.32" x2="37.84" y2="62.69"/><line class="cls-2" x1="19.08" y1="70.92" x2="25.97" y2="59.41"/><line class="cls-2" x1="5.25" y1="57.2" x2="16.84" y2="50.59"/><line class="cls-2" x1="0.5" y1="38.31" x2="14.13" y2="38.4"/><line class="cls-2" x1="5.63" y1="19.42" x2="17.1" y2="26.43"/><line class="cls-2" x1="19.21" y1="5.39" x2="26.09" y2="17.4"/><line class="cls-2" x1="38.23" y1="0.5" x2="38.14" y2="14.41"/><circle class="cls-1" cx="595.64" cy="42.53" r="28.28"/><path class="cls-1" d="M668,348.16l38.57.24a16.84,16.84,0,0,1-.63,4.24,18.42,18.42,0,0,1-5.51,8.65,20.19,20.19,0,0,1-18.2,4.53c-1-.25-9.79-2.61-13.06-10.79A16.82,16.82,0,0,1,668,348.16Z" transform="translate(-91.73 -304.29)"/><path class="cls-1" d="M700.21,360.89a16.08,16.08,0,0,0-4.21-2.62,22.06,22.06,0,0,0-6.44-1.59,20.22,20.22,0,0,0-6.9-.05,18.47,18.47,0,0,0-8.71,4.78" transform="translate(-91.73 -304.29)"/><path class="cls-1" d="M704.1,341.2a7.07,7.07,0,0,0-1.39-4.05,5.8,5.8,0,0,0-3-2.24,6,6,0,0,0-4.45.58,8,8,0,0,0-3.87,5.63" transform="translate(-91.73 -304.29)"/><path class="cls-1" d="M682.82,341.06a7,7,0,0,0-1.39-4,5.8,5.8,0,0,0-3-2.24,6,6,0,0,0-4.45.57,8.09,8.09,0,0,0-3.88,5.63" transform="translate(-91.73 -304.29)"/><path class="cls-3" d="M403.87,365.11a28.09,28.09,0,0,1-2.73-4.88,31.33,31.33,0,0,1-1.42-4.09,38.55,38.55,0,0,1-1.54-7,35,35,0,0,1-.09-6c.59-6.74,4.4-12.38,6-14.57" transform="translate(-91.73 -304.29)"/><path class="cls-3" d="M411,322.51a28.41,28.41,0,0,1,7.67-4.29,30.35,30.35,0,0,1,12.25-1.63A30.35,30.35,0,0,1,450.06,325a26.49,26.49,0,0,1,5.22,6.22,30,30,0,0,1,2.73,6.2,35.61,35.61,0,0,1,1.16,4.35,30.23,30.23,0,0,1,.61,6.85,27.74,27.74,0,0,1-.83,6.05,28.78,28.78,0,0,1-2,5.38,31.3,31.3,0,0,1-3.86,6" transform="translate(-91.73 -304.29)"/><path class="cls-3" d="M447.4,371.31a30.78,30.78,0,0,1-3.57,2.61,17.31,17.31,0,0,1-6.34,2.85,13.09,13.09,0,0,1-4.87,0,4.19,4.19,0,0,1-2.23-.8,4,4,0,0,1-1.3-2.25c-.88-3.28-.27-9.66-.2-10.39" transform="translate(-91.73 -304.29)"/><circle class="cls-3" cx="315.15" cy="63.61" r="3.82"/><circle class="cls-4" cx="315.81" cy="21.07" r="0.72"/><circle class="cls-4" cx="358.74" cy="64.53" r="0.72"/><rect class="cls-3" x="425.94" y="359.08" width="5.99" height="3.89" rx="0.96" transform="translate(-89.46 -306.98) rotate(0.36)"/><path class="cls-3" d="M432,359a12.18,12.18,0,0,0,2.37-1.17A11.72,11.72,0,0,0,436.5,356a11.51,11.51,0,0,0,1.93-2.62,11.67,11.67,0,0,0,1.21-3.48" transform="translate(-91.73 -304.29)"/><path class="cls-3" d="M425.82,359.13c-.48-.25-1.12-.6-1.83-1.06a16.21,16.21,0,0,1-1.9-1.4,15.73,15.73,0,0,1-1.77-1.79,11.25,11.25,0,0,1-1.17-1.52,8,8,0,0,1-1.1-3.1" transform="translate(-91.73 -304.29)"/><line class="cls-3" x1="326.36" y1="38.47" x2="326.32" y2="45.97"/><line class="cls-3" x1="347.95" y1="38.61" x2="347.9" y2="45.65"/><path class="cls-3" d="M417.51,342.3a4.14,4.14,0,0,1-1.58-1.13,4.36,4.36,0,0,1-.9-1.91,4,4,0,0,1-.12-2.11,4.08,4.08,0,0,1,1.39-2.1,5.38,5.38,0,0,1,2.38-1.23" transform="translate(-91.73 -304.29)"/><path class="cls-3" d="M440,342.57a5.22,5.22,0,0,0,1.85-1.17,4.07,4.07,0,0,0,1.26-2,3.79,3.79,0,0,0-.05-2,4.52,4.52,0,0,0-3.79-3.51" transform="translate(-91.73 -304.29)"/><line class="cls-3" x1="326.1" y1="38.14" x2="348.28" y2="38.28"/><line class="cls-3" x1="327.17" y1="29.53" x2="347.54" y2="29.66"/><line class="cls-3" x1="338.9" y1="40.9" x2="335.31" y2="45.31"/><line class="cls-3" x1="335.87" y1="50.27" x2="338.94" y2="45.4"/><line class="cls-3" x1="335.17" y1="45.48" x2="338.94" y2="45.4"/><path class="cls-3" d="M425.93,326.06a3.29,3.29,0,0,0-.46-1.48,3.49,3.49,0,0,0-1.35-1.29,3.65,3.65,0,0,0-2-.43,3.87,3.87,0,0,0-1.23.26,3,3,0,0,0-1.14.63,3.33,3.33,0,0,0-.85,1.5c-.06.2-.1.38-.13.5" transform="translate(-91.73 -304.29)"/><path class="cls-3" d="M439.32,326.31a3.36,3.36,0,0,0-.46-1.49,3.57,3.57,0,0,0-1.35-1.29,3.65,3.65,0,0,0-2-.43,4.59,4.59,0,0,0-1.23.26,3.2,3.2,0,0,0-1.14.64,3.28,3.28,0,0,0-.85,1.5c-.06.2-.1.37-.13.49" transform="translate(-91.73 -304.29)"/><line class="cls-3" x1="334.2" y1="21.77" x2="334.16" y2="29.15"/><line class="cls-3" x1="327.02" y1="21.46" x2="326.95" y2="29.11"/><line class="cls-3" x1="340.41" y1="21.7" x2="340.37" y2="29.07"/><line class="cls-3" x1="347.59" y1="21.86" x2="347.55" y2="29.51"/><circle class="cls-5" cx="561.36" cy="348.53" r="13.9" transform="translate(-109.35 362.64) rotate(-60.64)"/><circle class="cls-5" cx="469.63" cy="44.68" r="17.77"/><circle class="cls-5" cx="467.53" cy="10.15" r="2.75"/><circle class="cls-5" cx="476.87" cy="10.21" r="2.75"/><line class="cls-3" x1="495.62" y1="10.33" x2="492.18" y2="10.31"/><line class="cls-3" x1="488.16" y1="10.28" x2="484.38" y2="10.26"/><line class="cls-3" x1="440.77" y1="17.9" x2="498.89" y2="18.03"/><line class="cls-3" x1="443.07" y1="74.88" x2="496.49" y2="74.65"/><line class="cls-3" x1="442.72" y1="71.91" x2="442.69" y2="76.27"/><line class="cls-3" x1="496.14" y1="72.25" x2="496.12" y2="76.6"/><rect class="cls-3" x="531.23" y="308.04" width="60.76" height="67.64" rx="2.46" transform="translate(-89.57 -307.81) rotate(0.36)"/><rect class="cls-3" x="536.33" y="312.17" width="15.25" height="5.16" rx="0.92" transform="translate(-89.74 -307.7) rotate(0.36)"/><path class="cls-5" d="M548.57,353.47a15.14,15.14,0,0,1,3.21-1.35,17.21,17.21,0,0,1,4.19-.67,12,12,0,0,1,5.17.61c1,.39.86.55,2.08,1.05a12.34,12.34,0,0,0,3.81.94,12.14,12.14,0,0,0,4-.44,15.05,15.05,0,0,0,3.95-1.58" transform="translate(-91.73 -304.29)"/><line class="cls-2" x1="151.4" y1="27.32" x2="141.01" y2="56.83"/><line class="cls-2" x1="216.17" y1="28.41" x2="151.4" y2="27.32"/><line class="cls-2" x1="206.68" y1="56.93" x2="216.12" y2="28.64"/><line class="cls-2" x1="141.01" y1="56.83" x2="206.13" y2="57.12"/><line class="cls-2" x1="141.01" y1="56.83" x2="140.97" y2="64.05"/><line class="cls-2" x1="236.24" y1="64.65" x2="140.97" y2="64.05"/><line class="cls-2" x1="206.68" y1="56.93" x2="206.77" y2="64.47"/><line class="cls-2" x1="216.17" y1="28.41" x2="216.18" y2="63.95"/><line class="cls-2" x1="167.34" y1="27.76" x2="157.87" y2="56.91"/><line class="cls-2" x1="183.79" y1="27.86" x2="174.95" y2="56.98"/><line class="cls-2" x1="199.92" y1="28.59" x2="190.54" y2="57.14"/><line class="cls-2" x1="148.03" y1="36.89" x2="212.99" y2="38.01"/><line class="cls-2" x1="144.65" y1="46.5" x2="209.78" y2="47.64"/><line class="cls-2" x1="236.24" y1="64.65" x2="236.4" y2="38.74"/><line class="cls-2" x1="216.91" y1="38.62" x2="236.4" y2="38.74"/><rect class="cls-2" x="319.1" y="335.32" width="7.57" height="7.57" rx="0.38" transform="translate(-89.6 -306.31) rotate(0.36)"/><path class="cls-2" d="M323,334.67c0-.36-.06-.93-.07-1.65a6.4,6.4,0,0,0-.14-1.95,2.77,2.77,0,0,0-1-1.46,3,3,0,0,0-1.56-.46,3.06,3.06,0,0,0-1.49.1,3.16,3.16,0,0,0-1.42,1.41,11.57,11.57,0,0,0-1.17,2.4c-.45,1.17-.41,1.39-.77,1.79a3.35,3.35,0,0,1-1.65.94,7,7,0,0,1-2.45.22c-.68,0-1.74,0-3.09,0" transform="translate(-91.73 -304.29)"/><line class="cls-2" x1="226.62" y1="44.3" x2="222.91" y2="51.61"/><line class="cls-2" x1="230.24" y1="51.66" x2="226.53" y2="58.86"/><line class="cls-2" x1="222.91" y1="51.61" x2="230.24" y2="51.66"/><line class="cls-6" x1="129.12" y1="38.84" x2="94.94" y2="38.62"/><path class="cls-6" d="M217.25,339.39" transform="translate(-91.73 -304.29)"/><line class="cls-6" x1="129.12" y1="38.84" x2="123.03" y2="44.38"/><line class="cls-6" x1="122.72" y1="33.79" x2="129.12" y2="38.84"/><line class="cls-6" x1="289.97" y1="39.85" x2="255.8" y2="39.63"/><path class="cls-6" d="M378.11,340.4" transform="translate(-91.73 -304.29)"/><line class="cls-6" x1="289.97" y1="39.85" x2="283.89" y2="45.39"/><line class="cls-6" x1="283.57" y1="34.8" x2="289.97" y2="39.85"/><line class="cls-6" x1="422.16" y1="40.68" x2="387.98" y2="40.46"/><path class="cls-6" d="M510.29,341.23" transform="translate(-91.73 -304.29)"/><line class="cls-6" x1="422.16" y1="40.68" x2="416.07" y2="46.22"/><line class="cls-6" x1="415.76" y1="35.63" x2="422.16" y2="40.68"/><line class="cls-6" x1="551.58" y1="43.12" x2="517.41" y2="42.91"/><path class="cls-6" d="M639.72,343.68" transform="translate(-91.73 -304.29)"/><line class="cls-6" x1="551.58" y1="43.12" x2="545.5" y2="48.66"/><line class="cls-6" x1="545.19" y1="38.07" x2="551.58" y2="43.12"/><line class="cls-7" x1="402.72" y1="59.89" x2="546.25" y2="59.15"/></svg>