<svg id="Lag_8" data-name="Lag 8" xmlns="http://www.w3.org/2000/svg" viewBox="0 0 103.75 128.16"><defs><style>.cls-1{fill:none;stroke:#f39200;stroke-miterlimit:10;}</style></defs><path class="cls-1" d="M448.77,437.49a42.66,42.66,0,0,1-7.64-14.22,44.21,44.21,0,0,1-1.53-18.34,54.26,54.26,0,0,1,9.32-25.38c11.27-15.79,27.94-19.69,30.88-20.33s23.32-4.72,41.58,8.86a51.23,51.23,0,0,1,20.49,44.49,49.69,49.69,0,0,1-7.49,22.32" transform="translate(-438.76 -357.65)"/><circle class="cls-1" cx="52.39" cy="51.44" r="24.65"/><line class="cls-1" x1="51.88" y1="127.84" x2="10.01" y2="79.84"/><line class="cls-1" x1="95.62" y1="77.24" x2="51.88" y2="127.84"/></svg>