<svg id="Lag_5" data-name="Lag 5" xmlns="http://www.w3.org/2000/svg" viewBox="0 0 97.31 124.29"><defs><style>.cls-1,.cls-2,.cls-3{fill:none;stroke:#f39200;stroke-miterlimit:10;}.cls-2{stroke-linecap:round;}.cls-3{stroke-width:1.5px;}</style></defs><rect class="cls-1" x="0.5" y="42.77" width="96.31" height="14.52" rx="3.67"/><line class="cls-2" x1="5.54" y1="57.29" x2="15.18" y2="123.79"/><line class="cls-2" x1="91" y1="57.29" x2="81.37" y2="123.79"/><line class="cls-1" x1="15.18" y1="123.79" x2="81.37" y2="123.79"/><ellipse class="cls-3" cx="48.88" cy="88.14" rx="25.3" ry="13.26"/><line class="cls-1" x1="25.72" y1="57.29" x2="27.62" y2="80.95"/><line class="cls-1" x1="48.88" y1="74.87" x2="48.65" y2="57.29"/><line class="cls-1" x1="71.28" y1="57.29" x2="70.16" y2="80.97"/><line class="cls-1" x1="69.18" y1="96.05" x2="67.76" y2="123.79"/><line class="cls-1" x1="48.88" y1="101.4" x2="48.77" y2="123.79"/><line class="cls-1" x1="29.48" y1="96.65" x2="32.45" y2="123.79"/><path class="cls-1" d="M630.53,377.87a14.52,14.52,0,0,0-8.23,1.78,8.69,8.69,0,0,0-4.11,10.07" transform="translate(-604.96 -358.18)"/><path class="cls-1" d="M619.41,389.73a8.3,8.3,0,0,0-5.33-.2c-4.24,1.35-7.42,6.52-8,13" transform="translate(-604.96 -358.18)"/><path class="cls-1" d="M643.66,366.7a11.06,11.06,0,0,0-5.82-.18c-4.65,1.2-8.12,5.79-8.73,11.55" transform="translate(-604.96 -358.18)"/><path class="cls-1" d="M642.78,366.48a11.87,11.87,0,0,1,11.37-7.8" transform="translate(-604.96 -358.18)"/><path class="cls-1" d="M701.08,401.26A11.34,11.34,0,0,0,687.93,391" transform="translate(-604.96 -358.18)"/><path class="cls-1" d="M689.76,390.88c0-.86-.45-6.21-4-9.9a8.6,8.6,0,0,0-8.07-2.74" transform="translate(-604.96 -358.18)"/><path class="cls-1" d="M679.07,378.33a13.12,13.12,0,0,0-5.14-9.16,14,14,0,0,0-10.38-2.53" transform="translate(-604.96 -358.18)"/><path class="cls-1" d="M664.87,366.13a7.87,7.87,0,0,0-4.14-5.76,14,14,0,0,0-8.34-1.59" transform="translate(-604.96 -358.18)"/><path class="cls-2" d="M663.32,386.5a8.56,8.56,0,0,1,6.88-1.6,8.4,8.4,0,0,1,6.19,6.65" transform="translate(-604.96 -358.18)"/><path class="cls-2" d="M648.69,379.21a9.16,9.16,0,0,0-6.52-.48,7.72,7.72,0,0,0-5.3,6.06" transform="translate(-604.96 -358.18)"/></svg>