<svg id="Lag_1" data-name="Lag 1" xmlns="http://www.w3.org/2000/svg" viewBox="0 0 97.08 121.46"><defs><style>.cls-1,.cls-2{fill:none;stroke:#f39204;stroke-miterlimit:10;}.cls-2{stroke-width:1.5px;}</style></defs><path class="cls-1" d="M133.71,166A151.09,151.09,0,0,1,130,190.15a152.16,152.16,0,0,1-8.25,25.07" transform="translate(-104.25 -127.27)"/><path class="cls-1" d="M173.07,166a103.91,103.91,0,0,0,1.83,23.85,105,105,0,0,0,8.56,25.67" transform="translate(-104.25 -127.27)"/><line class="cls-2" x1="11.12" y1="38.72" x2="86.18" y2="38.72"/><rect class="cls-1" x="11.96" y="88.25" width="73.61" height="16.43" rx="4.09"/><rect class="cls-1" x="0.5" y="104.68" width="96.08" height="16.28" rx="2.87"/><line class="cls-1" x1="11.12" y1="0.05" x2="11.12" y2="39.18"/><line class="cls-1" x1="30.54" y1="0.58" x2="11.12" y2="0.58"/><line class="cls-1" x1="30.54" y1="19.65" x2="30.54" y2="0.05"/><line class="cls-1" x1="40.63" y1="19.65" x2="30" y2="19.65"/><line class="cls-1" x1="40.63" y1="0.05" x2="40.63" y2="20.11"/><line class="cls-1" x1="59.43" y1="0.5" x2="40.63" y2="0.5"/><line class="cls-1" x1="59.43" y1="20.11" x2="59.43" y2="0.05"/><line class="cls-1" x1="70.21" y1="19.65" x2="59.43" y2="19.65"/><line class="cls-1" x1="70.21" y1="0.5" x2="70.21" y2="20.11"/><line class="cls-1" x1="85.57" y1="0.5" x2="69.67" y2="0.5"/><line class="cls-1" x1="85.6" y1="38.72" x2="85.6" y2="0.05"/></svg>