<svg xmlns="http://www.w3.org/2000/svg" viewBox="0 0 72.46 131.11"><defs><style>.cls-1{fill:#e7f4f7;}.cls-2{fill:#f2f9fb;}.cls-3{fill:#f3fafc;}.cls-4{fill:#fbfdfd;}.cls-5{fill:#90c0dd;}.cls-6{fill:#7aa2b7;}.cls-7{fill:#fff;}</style></defs><g id="glasflasker"><path class="cls-1" d="M151.13,265.43c-1.58,3.64-15.58.85-19.57,0-.21-.62-.49-1.52-.76-2.61-.55-2.19-1.45-5.74-1.07-9a16.05,16.05,0,0,1,4.89-9.33l-.46-1.07-.92-6.72,7.14-1.23,1.12,6.88a1.58,1.58,0,0,0,0,.92,2.3,2.3,0,0,0,1.37,1.22c2.62,1.15,5.25,4.65,6.12,6.42a13.7,13.7,0,0,1,.61,1.53,11.63,11.63,0,0,1,.46,2.29c.27,2.43.24.88.61,4.44C151.08,263.1,151.29,265.07,151.13,265.43Z" transform="translate(-125.22 -225.65)"/><rect class="cls-2" x="132.21" y="233.36" width="8.6" height="2.85" rx="1.23" transform="translate(-154.85 -205.7) rotate(-7.54)"/><rect class="cls-3" x="31.13" width="8.6" height="2.85" rx="1.23"/><rect class="cls-3" x="179.62" y="231.15" width="8.6" height="2.85" rx="1.23" transform="translate(-84.29 -252.82) rotate(9.5)"/><path class="cls-1" d="M157,228.5l-.29,8.4s-7,3.8-7.24,15l.17.49.39,1.77.85,6.57.29,4.67h17.58l1.09-12.19s1.66-11-5.85-15.93l.11-8.81Z" transform="translate(-125.22 -225.65)"/><path class="cls-1" d="M180.62,233.31,178.85,242s-6.68,3.55-8.9,10.32l-1.24,13.16H189l1.55-8.75v-4.13a18.72,18.72,0,0,0-4.53-9.68l1.1-8.38Z" transform="translate(-125.22 -225.65)"/></g><g id="Lag_17" data-name="Lag 17"><path class="cls-4" d="M134.08,247.34h2.12s-3.15,6-2.52,9.8H131.5S130.82,249.46,134.08,247.34Z" transform="translate(-125.22 -225.65)"/><polygon class="cls-4" points="8.92 11.37 10.98 11.14 12.07 18.37 10.07 18.65 8.92 11.37"/><polygon class="cls-4" points="35.75 3.52 38.1 3.52 38.1 11.31 35.52 11.31 35.75 3.52"/><path class="cls-4" d="M162.4,239.71h2.87s4.24,7,3.09,9.58h-2.23S164.92,240.23,162.4,239.71Z" transform="translate(-125.22 -225.65)"/><polygon class="cls-4" points="40.79 26.28 43.34 26.59 42.69 39.79 40.56 39.79 40.79 26.28"/><polygon class="cls-4" points="59.14 9.19 61.14 9.19 60.14 16.99 57.82 16.99 59.14 9.19"/><path class="cls-4" d="M184,245.39a16.23,16.23,0,0,1,2.75,9.8h2.35s.58-7.45-2.23-9.8Z" transform="translate(-125.22 -225.65)"/><polygon class="cls-4" points="61.14 32.52 63.44 32.52 62.29 39.79 59.88 39.79 61.14 32.52"/><polygon class="cls-4" points="6.88 34.45 8.79 34.45 9.28 39.58 7.3 39.58 6.88 34.45"/></g><g id="Lag_15" data-name="Lag 15"><rect class="cls-5" y="39.79" width="72.46" height="7.76" rx="1.17"/><path class="cls-5" d="M128.09,273.19,131.87,349s.23,7.46,8.71,7.69,43.23,0,43.23,0,8.25-.12,7.79-11.7S195,273.19,195,273.19Z" transform="translate(-125.22 -225.65)"/><polygon class="cls-6" points="2.87 47.54 69.82 47.54 69.27 56.26 2.87 47.54"/><path d="M131.48,341.15l.31,6.19s-.11,6,3.72,7.94a2.67,2.67,0,0,1-1.72,1c-1,.06-4,0-4,0s-1.09-.8-1.06-1.63,0-11.89,0-11.89-.06-1.58,1.23-1.58Z" transform="translate(-125.22 -225.65)"/><path d="M188.41,354.72a10.5,10.5,0,0,0,3.12-6.92c0-4.1,0-6.74,0-6.74H193A2.34,2.34,0,0,1,194.3,343v12a1.49,1.49,0,0,1-1.61,1.23h-4a.77.77,0,0,1-.94-.8Z" transform="translate(-125.22 -225.65)"/><polygon class="cls-7" points="38.98 65.83 29.92 65.83 24.31 75.52 29.68 79.19 35.24 69.9 38.98 65.83"/><polygon class="cls-7" points="50.83 80.85 44.87 84.23 49.91 93.06 51.63 98.79 56.27 90.54 50.83 80.85"/><polygon class="cls-7" points="34.05 94.72 22.99 94.72 17.77 93.12 22.36 101.2 34.05 101.2 34.05 94.72"/><path class="cls-7" d="M142.25,307.24l3.61,1.95-3.21,5.5s-.63,2.53.86,3.21a42.91,42.91,0,0,0,5.27,1.61l4.36-6.94,3.72,1.44-5.73-7.11Z" transform="translate(-125.22 -225.65)"/><path class="cls-7" d="M161.22,295.89l3.84,7.22-2.64,2.18,8.66-.46,3.73-8.31-3.44,2.18-4.19-6.53s-1.49-.86-3.27.86A36.09,36.09,0,0,0,161.22,295.89Z" transform="translate(-125.22 -225.65)"/><path class="cls-7" d="M174.06,319.51l-8.6-.29v-4.35l-3.78,8.48,5,7.8-.23-4.3h7s1.55.07,1.69-2.7A8.18,8.18,0,0,0,174.06,319.51Z" transform="translate(-125.22 -225.65)"/></g></svg>