<svg xmlns="http://www.w3.org/2000/svg" viewBox="0 0 72.58 121.42"><defs><style>.cls-1{fill:#84a374;}.cls-2,.cls-3{fill:none;}.cls-2{stroke:#c8dd9c;}.cls-12,.cls-2,.cls-3,.cls-4{stroke-miterlimit:10;}.cls-2,.cls-3,.cls-4{stroke-width:0.25px;}.cls-3,.cls-4{stroke:#c7dd9b;}.cls-4{fill:#c7dd9b;}.cls-5{fill:#9cbc8a;}.cls-6{fill:#afd186;}.cls-7{fill:#996b5b;}.cls-14,.cls-8{fill:#bc9e80;}.cls-9{fill:#8a9976;}.cls-10{fill:#bace99;}.cls-11{fill:#aa805e;}.cls-12,.cls-17{fill:#fff;}.cls-12{stroke:#1d1d1b;}.cls-13{fill:#ede8e4;}.cls-14{opacity:0.45;}.cls-15{fill:#6a9b77;}.cls-16{fill:#51875d;}</style></defs><g id="indhold_grøn_skraldespan" data-name="indhold, grøn skraldespan"><path class="cls-1" d="M45.42,86.87,44.31,85.8c-.53-.52-.67-.64-.88-.88a4,4,0,0,1-.88-1.34,3.11,3.11,0,0,1-.11-1.34,3.51,3.51,0,0,1-.73,0,4,4,0,0,1-1.83-.72,4.92,4.92,0,0,1-1.57-1.76,5.24,5.24,0,0,1-.07-4.21,2.79,2.79,0,0,1-.65-.19,4.23,4.23,0,0,1-2-1.83,4.06,4.06,0,0,1-.53-3.1,3.9,3.9,0,0,1,1.68-2.25,3.75,3.75,0,0,1-.31-.5,4.26,4.26,0,0,1-.19-3A4.18,4.18,0,0,1,38.5,62a4.06,4.06,0,0,1,3.18.08,4.21,4.21,0,0,1,2.14,2.25l7,22.59Z" transform="translate(-34.91 -56.78)"/></g><g id="streger_i_blald" data-name="streger i blald"><line class="cls-2" x1="10.31" y1="12.46" x2="3.34" y2="6.22"/><line class="cls-3" x1="1.98" y1="15.58" x2="11.49" y2="15.98"/><line class="cls-3" x1="5.49" y1="21.95" x2="13.64" y2="22.91"/><line class="cls-4" x1="10.9" y1="27.57" x2="15.22" y2="27.84"/></g><g id="andet_blad" data-name="andet blad"><path class="cls-5" d="M51.09,86.81l-1.38-1.18c-.66-.57-.83-.7-1.09-1a3.94,3.94,0,0,1-1-1.47,2.68,2.68,0,0,1,0-1.46,7.89,7.89,0,0,1-1,0,5.38,5.38,0,0,1-2.37-.82A5.27,5.27,0,0,1,42.28,79a4.88,4.88,0,0,1,.25-4.6,5.17,5.17,0,0,1-.85-.21,4.73,4.73,0,0,1-2.52-2,3.67,3.67,0,0,1-.46-3.39,5,5,0,0,1,2.42-2.44,3.23,3.23,0,0,1-.37-.55,3.87,3.87,0,0,1,0-3.3A5.32,5.32,0,0,1,44,59.51a6.34,6.34,0,0,1,4.18.12,4.54,4.54,0,0,1,2.65,2.48l7.42,24.76Z" transform="translate(-34.91 -56.78)"/><line class="cls-2" x1="17.38" y1="10.77" x2="8.68" y2="3.88"/><line class="cls-3" x1="6.1" y1="14.08" x2="18.64" y2="14.63"/><line class="cls-3" x1="10.22" y1="21.09" x2="20.91" y2="22.23"/><line class="cls-4" x1="16.9" y1="27.28" x2="22.58" y2="27.62"/></g><g id="sidste_blad" data-name="sidste blad"><path class="cls-6" d="M56.43,61a3,3,0,0,1,0-.68,4,4,0,0,1,2.44-3.25,3.8,3.8,0,0,1,2.26-.19,4.59,4.59,0,0,1,3,2.79,5.58,5.58,0,0,1,.3,3.44,3.92,3.92,0,0,1,.69.26,5.22,5.22,0,0,1,2.45,2.87,5.65,5.65,0,0,1,.23,2.94l-.42-.72a19.13,19.13,0,0,0-2.45-3.67,5.62,5.62,0,0,0-3.63-1.84,3,3,0,0,0-1.76.42,3.43,3.43,0,0,0-1.07,1.26c-.86,1.46-2.45,4.84-2.79,5.58a11.94,11.94,0,0,0-1,4.56l-2.94-9.82a6.19,6.19,0,0,1,.72-1.84A4.48,4.48,0,0,1,54.75,61a3.61,3.61,0,0,1,1.68-.16" transform="translate(-34.91 -56.78)"/></g><g id="streger_sidste_blad" data-name="streger sidste blad"><line class="cls-2" x1="21.92" y1="10.98" x2="17.85" y2="6.55"/><line class="cls-2" x1="25.29" y1="6.29" x2="25.3" y2="0.17"/></g><g id="Lag_11" data-name="Lag 11"><path class="cls-7" d="M69.66,75.05a17.06,17.06,0,0,0-.79-3.39,19.3,19.3,0,0,0-2.08-4.17A10.4,10.4,0,0,0,64,64a4.85,4.85,0,0,0-2.7-1,3.35,3.35,0,0,0-1.44.25c-.79.36-1.19,1-1.88,2.32-.79,1.5-1.19,2.25-1.81,3.66a17.14,17.14,0,0,0-1.27,3.47,12.69,12.69,0,0,0-.25,2.12l.55,1.83,3.08,10.28h9Z" transform="translate(-34.91 -56.78)"/></g><g id="Lag_12" data-name="Lag 12"><ellipse class="cls-8" cx="62.1" cy="78.43" rx="2.69" ry="6.16" transform="matrix(0.99, -0.16, 0.16, 0.99, -46.49, -46.01)"/></g><g id="Lag_13" data-name="Lag 13"><polygon class="cls-9" points="51.63 3.11 49.27 5.25 45.62 19.28 48.09 24.33 51.98 6.74 51.63 3.11"/><polygon class="cls-9" points="50.13 30.09 50.79 30.09 56.11 7.58 55.84 4.6 53.39 6.66 48.56 25.25 50.13 30.09"/><polygon class="cls-9" points="59.74 7.28 56.98 10.33 52.33 30.09 55.3 30.09 60.46 10.18 59.74 7.28"/><polygon class="cls-9" points="63.94 8.08 61.42 10.98 56.79 30.09 59.93 30.09 64.89 10.79 63.94 8.08"/><polygon class="cls-9" points="67.65 11.52 64.89 14.5 61.49 30.09 64.89 30.09 68.37 14.35 67.65 11.52"/></g><g id="Lag_14" data-name="Lag 14"><path class="cls-10" d="M85.21,60.79c-.45-.13-1.37.78-1.26,1.65a1.23,1.23,0,0,0,.5.85,1,1,0,0,0,.9.2C86,63.15,85.82,61,85.21,60.79Z" transform="translate(-34.91 -56.78)"/><path class="cls-10" d="M86.79,63c-.42-.22-1.5.49-1.57,1.36a1.25,1.25,0,0,0,.32.94c.17.19.54.46.84.37C87.09,65.45,87.35,63.27,86.79,63Z" transform="translate(-34.91 -56.78)"/><path class="cls-10" d="M83.77,64.68c-.47-.05-1.23,1-1,1.83a1.22,1.22,0,0,0,.63.76,1,1,0,0,0,.92,0C84.94,66.88,84.4,64.75,83.77,64.68Z" transform="translate(-34.91 -56.78)"/><path class="cls-10" d="M85.68,68.13c-.42-.22-1.5.48-1.57,1.36a1.24,1.24,0,0,0,.32.93c.18.19.54.46.84.38C86,70.6,86.24,68.42,85.68,68.13Z" transform="translate(-34.91 -56.78)"/><path class="cls-10" d="M84.3,72.64c-.41-.22-1.5.48-1.56,1.36a1.23,1.23,0,0,0,.31.93c.18.19.55.46.85.38C84.61,75.11,84.87,72.93,84.3,72.64Z" transform="translate(-34.91 -56.78)"/><path class="cls-10" d="M83.37,77.47c-.42-.21-1.51.49-1.57,1.37a1.27,1.27,0,0,0,.31.93c.18.19.55.46.85.38C83.67,79.94,83.93,77.77,83.37,77.47Z" transform="translate(-34.91 -56.78)"/><path class="cls-10" d="M82.43,69.68c-.47-.06-1.23,1-1,1.83a1.24,1.24,0,0,0,.63.76,1,1,0,0,0,.92,0C83.59,71.87,83.06,69.75,82.43,69.68Z" transform="translate(-34.91 -56.78)"/><path class="cls-10" d="M80.88,75.33c-.47-.06-1.23,1-1,1.83a1.24,1.24,0,0,0,.63.76,1,1,0,0,0,.92,0C82,77.52,81.5,75.4,80.88,75.33Z" transform="translate(-34.91 -56.78)"/><path class="cls-10" d="M89.17,62.38c-.47-.06-1.23,1-1,1.83a1.24,1.24,0,0,0,.63.76,1,1,0,0,0,.92,0C90.33,64.58,89.8,62.45,89.17,62.38Z" transform="translate(-34.91 -56.78)"/><path class="cls-10" d="M87.89,66.05c-.46-.06-1.23,1-1,1.83a1.29,1.29,0,0,0,.63.76,1,1,0,0,0,.93,0C89.06,68.25,88.52,66.12,87.89,66.05Z" transform="translate(-34.91 -56.78)"/><path class="cls-10" d="M86.59,71.49c-.46-.06-1.23,1-1,1.83a1.32,1.32,0,0,0,.63.76,1.05,1.05,0,0,0,.93,0C87.76,73.68,87.22,71.56,86.59,71.49Z" transform="translate(-34.91 -56.78)"/><path class="cls-10" d="M85,76.7c-.46-.06-1.23,1-1,1.83a1.24,1.24,0,0,0,.63.76,1,1,0,0,0,.93,0C86.12,78.89,85.58,76.77,85,76.7Z" transform="translate(-34.91 -56.78)"/><path class="cls-10" d="M91,64.42c-.43-.18-1.44.64-1.41,1.52a1.21,1.21,0,0,0,.41.89c.2.17.59.4.88.28C91.59,66.84,91.62,64.65,91,64.42Z" transform="translate(-34.91 -56.78)"/><path class="cls-10" d="M89.78,69.69c-.44-.17-1.45.64-1.42,1.52a1.27,1.27,0,0,0,.41.9c.2.17.59.4.88.28C90.34,72.11,90.37,69.92,89.78,69.69Z" transform="translate(-34.91 -56.78)"/><path class="cls-10" d="M88.64,74.25c-.44-.17-1.44.64-1.42,1.52a1.26,1.26,0,0,0,.42.89,1,1,0,0,0,.88.29C89.2,76.67,89.23,74.48,88.64,74.25Z" transform="translate(-34.91 -56.78)"/><path class="cls-10" d="M87.36,79.2c-.43-.17-1.44.64-1.41,1.52a1.21,1.21,0,0,0,.41.89,1,1,0,0,0,.88.29C87.92,81.62,88,79.43,87.36,79.2Z" transform="translate(-34.91 -56.78)"/><path class="cls-10" d="M95.26,65.33c-.43-.17-1.44.64-1.41,1.52a1.21,1.21,0,0,0,.41.89,1,1,0,0,0,.88.29C95.82,67.75,95.85,65.56,95.26,65.33Z" transform="translate(-34.91 -56.78)"/><path class="cls-10" d="M94.59,69.13c-.43-.17-1.44.64-1.41,1.52a1.23,1.23,0,0,0,.41.9,1,1,0,0,0,.88.28C95.15,71.55,95.18,69.36,94.59,69.13Z" transform="translate(-34.91 -56.78)"/><path class="cls-10" d="M93.26,74.25c-.44-.17-1.45.64-1.42,1.52a1.25,1.25,0,0,0,.41.89,1,1,0,0,0,.88.29C93.82,76.67,93.84,74.48,93.26,74.25Z" transform="translate(-34.91 -56.78)"/><path class="cls-10" d="M91.61,80.19c-.43-.18-1.44.64-1.42,1.52a1.26,1.26,0,0,0,.42.89,1,1,0,0,0,.88.29C92.17,82.61,92.2,80.42,91.61,80.19Z" transform="translate(-34.91 -56.78)"/><path class="cls-10" d="M91,71.36c-.47-.06-1.23,1-1,1.83a1.22,1.22,0,0,0,.63.76,1,1,0,0,0,.92,0C92.19,73.56,91.65,71.43,91,71.36Z" transform="translate(-34.91 -56.78)"/><path class="cls-10" d="M92.59,66.05c-.46-.06-1.23,1-1,1.83a1.29,1.29,0,0,0,.63.76,1,1,0,0,0,.93,0C93.76,68.25,93.22,66.12,92.59,66.05Z" transform="translate(-34.91 -56.78)"/><path class="cls-10" d="M90.1,76.44c-.47-.06-1.23,1-1,1.83a1.24,1.24,0,0,0,.63.76,1,1,0,0,0,.92,0C91.26,78.64,90.73,76.51,90.1,76.44Z" transform="translate(-34.91 -56.78)"/><path class="cls-10" d="M88.46,81.55c-.47,0-1.23,1-1,1.83a1.22,1.22,0,0,0,.63.76,1,1,0,0,0,.92,0C89.62,83.75,89.09,81.62,88.46,81.55Z" transform="translate(-34.91 -56.78)"/><path class="cls-10" d="M97.18,66.93c-.47-.05-1.23,1-1,1.83a1.22,1.22,0,0,0,.63.76,1,1,0,0,0,.92,0C98.34,69.13,97.81,67,97.18,66.93Z" transform="translate(-34.91 -56.78)"/><path class="cls-10" d="M95.78,72.18c-.47-.05-1.23,1-1,1.84a1.24,1.24,0,0,0,.63.76,1,1,0,0,0,.92,0C96.94,74.38,96.41,72.26,95.78,72.18Z" transform="translate(-34.91 -56.78)"/><path class="cls-10" d="M94.19,77c-.46,0-1.23,1-1,1.83a1.25,1.25,0,0,0,.63.76,1,1,0,0,0,.93.05C95.36,79.18,94.82,77.05,94.19,77Z" transform="translate(-34.91 -56.78)"/><path class="cls-10" d="M92.85,82.21c-.46,0-1.23,1-1,1.84a1.23,1.23,0,0,0,.63.75,1,1,0,0,0,.92,0C94,84.41,93.48,82.28,92.85,82.21Z" transform="translate(-34.91 -56.78)"/><path class="cls-10" d="M100.85,70.12c-.47-.06-1.23,1-1,1.83a1.24,1.24,0,0,0,.63.76,1,1,0,0,0,.92.05C102,72.31,101.48,70.19,100.85,70.12Z" transform="translate(-34.91 -56.78)"/><path class="cls-10" d="M99,75.33c-.47-.06-1.23,1-1,1.83a1.24,1.24,0,0,0,.63.76,1,1,0,0,0,.92,0C100.2,77.52,99.66,75.4,99,75.33Z" transform="translate(-34.91 -56.78)"/><path class="cls-10" d="M98.11,80.68c-.47-.05-1.23,1-1,1.84a1.27,1.27,0,0,0,.63.76,1,1,0,0,0,.92,0C99.27,82.88,98.74,80.76,98.11,80.68Z" transform="translate(-34.91 -56.78)"/><path class="cls-10" d="M96.41,85c-.46,0-1.23,1-1,1.83a1.22,1.22,0,0,0,.63.76,1,1,0,0,0,.92,0C97.58,87.15,97,85,96.41,85Z" transform="translate(-34.91 -56.78)"/><path class="cls-10" d="M99.75,66.38c-.43-.18-1.44.64-1.42,1.52a1.26,1.26,0,0,0,.42.89,1,1,0,0,0,.88.29C100.31,68.8,100.34,66.61,99.75,66.38Z" transform="translate(-34.91 -56.78)"/><path class="cls-10" d="M98.83,69.69c-.43-.17-1.44.64-1.41,1.52a1.23,1.23,0,0,0,.41.9c.2.17.59.4.88.28C99.39,72.11,99.42,69.92,98.83,69.69Z" transform="translate(-34.91 -56.78)"/><path class="cls-10" d="M97.58,75.08c-.44-.17-1.44.64-1.42,1.52a1.27,1.27,0,0,0,.42.9,1,1,0,0,0,.88.28C98.14,77.51,98.17,75.31,97.58,75.08Z" transform="translate(-34.91 -56.78)"/><path class="cls-10" d="M96.18,80.7c-.44-.17-1.44.64-1.42,1.52a1.26,1.26,0,0,0,.42.89,1,1,0,0,0,.88.29C96.74,83.12,96.77,80.93,96.18,80.7Z" transform="translate(-34.91 -56.78)"/><path class="cls-10" d="M103.57,69.46c-.43-.17-1.44.64-1.41,1.52a1.23,1.23,0,0,0,.41.9,1,1,0,0,0,.88.28C104.13,71.88,104.16,69.69,103.57,69.46Z" transform="translate(-34.91 -56.78)"/><path class="cls-10" d="M102.66,73.41c-.44-.17-1.45.64-1.42,1.52a1.25,1.25,0,0,0,.41.89,1,1,0,0,0,.88.29C103.22,75.83,103.24,73.64,102.66,73.41Z" transform="translate(-34.91 -56.78)"/><path class="cls-10" d="M101.25,78.57c-.44-.17-1.44.64-1.42,1.52a1.31,1.31,0,0,0,.41.9c.2.17.59.4.88.28C101.81,81,101.84,78.8,101.25,78.57Z" transform="translate(-34.91 -56.78)"/><path class="cls-10" d="M99.94,84.14c-.43-.18-1.44.64-1.41,1.52a1.21,1.21,0,0,0,.41.89,1,1,0,0,0,.88.28C100.5,86.56,100.53,84.37,99.94,84.14Z" transform="translate(-34.91 -56.78)"/></g><g id="kødben"><path class="cls-11" d="M72.65,71.54c-.39.39-.91.93-1.49,1.61,0,0-1,1.11-1.66,2.12-1,1.45-2.24,11.51-2.24,11.6H85A4.52,4.52,0,0,0,85,86a8.27,8.27,0,0,0-1.26-3.43S83,81.16,82.45,80c-.74-1.5-1.16-2.47-1.37-2.93a19.57,19.57,0,0,0-4.25-5.62Z" transform="translate(-34.91 -56.78)"/><path class="cls-12" d="M84,86.87" transform="translate(-34.91 -56.78)"/><path class="cls-13" d="M72.59,64.55a6.74,6.74,0,0,1-1.83-1.84,2,2,0,0,1,1.32-3.44,2.37,2.37,0,0,1,2.46.75c.18.33.2.83.52.92a.48.48,0,0,0,.34-.06,2.78,2.78,0,0,1,2.7-1.72,2.36,2.36,0,0,1,1.2.8,2.34,2.34,0,0,1-.63,3.84,6.83,6.83,0,0,0-1.49.75,4.46,4.46,0,0,0-.4.34v6.59h-4C72.9,69.38,72.59,64.55,72.59,64.55Z" transform="translate(-34.91 -56.78)"/></g><g id="kødben_skygge" data-name="kødben skygge"><path class="cls-14" d="M76.35,74c-.08.06.55.85,1.1,2.35a14.2,14.2,0,0,1,.78,4.12c.21,3.89-.84,6.34-.63,6.42s3-3.75,2-8C78.92,75.78,76.49,73.85,76.35,74Z" transform="translate(-34.91 -56.78)"/></g><g id="grøn_skraldespan" data-name="grøn skraldespan"><rect class="cls-15" x="0.12" y="30.09" width="72.46" height="7.76" rx="1.17"/><path class="cls-15" d="M37.89,94.62l3.79,75.79s.22,7.45,8.71,7.68,43.22,0,43.22,0,8.26-.12,7.8-11.7,3.44-71.77,3.44-71.77Z" transform="translate(-34.91 -56.78)"/><polygon class="cls-16" points="2.98 37.85 69.94 37.85 69.39 46.56 2.98 37.85"/><path d="M41.28,162.59l.31,6.18s-.11,6,3.73,7.94a2.71,2.71,0,0,1-1.72,1c-1,.06-4.05,0-4.05,0s-1.09-.8-1.06-1.64,0-11.89,0-11.89-.05-1.57,1.24-1.57Z" transform="translate(-34.91 -56.78)"/><path d="M98.22,176.15a10.46,10.46,0,0,0,3.11-6.92c0-4.1,0-6.73,0-6.73h1.37a2.32,2.32,0,0,1,1.35,1.95v12a1.48,1.48,0,0,1-1.6,1.23h-4a.78.78,0,0,1-.94-.8Z" transform="translate(-34.91 -56.78)"/></g><g id="genbrugstegn_grøn_skraldespan" data-name="genbrugstegn, grøn skraldespan"><polygon class="cls-17" points="39.1 56.13 30.04 56.13 24.42 65.82 29.8 69.49 35.36 60.2 39.1 56.13"/><polygon class="cls-17" points="50.95 71.15 44.98 74.54 50.03 83.36 51.75 89.1 56.39 80.84 50.95 71.15"/><polygon class="cls-17" points="34.17 85.03 23.11 85.03 17.89 83.42 22.48 91.5 34.17 91.5 34.17 85.03"/><path class="cls-17" d="M52.05,128.68l3.61,1.94-3.21,5.51s-.63,2.52.86,3.21a42.33,42.33,0,0,0,5.28,1.6L62.94,134l3.73,1.43-5.73-7.11Z" transform="translate(-34.91 -56.78)"/><path class="cls-17" d="M71,117.32l3.84,7.23-2.64,2.18,8.66-.46L84.61,118l-3.44,2.17L77,113.6s-1.49-.86-3.27.86A33.82,33.82,0,0,0,71,117.32Z" transform="translate(-34.91 -56.78)"/><path class="cls-17" d="M83.87,140.94l-8.6-.28V136.3l-3.79,8.48,5,7.8-.23-4.3h7s1.55.08,1.69-2.69A8.18,8.18,0,0,0,83.87,140.94Z" transform="translate(-34.91 -56.78)"/></g></svg>