<svg xmlns="http://www.w3.org/2000/svg" viewBox="0 0 72.96 127.55"><defs><style>.cls-1{fill:#f6ee88;}.cls-2{fill:#e3da7a;}.cls-3{fill:#fff;}.cls-4{fill:#f7f4ef;}.cls-5{fill:#d9d7cf;}.cls-6{fill:#cccac0;}.cls-7{fill:#d7d5cd;}.cls-8{fill:#d6d3c8;}.cls-9{fill:#ed6d7a;}.cls-10{fill:none;stroke:#191815;stroke-miterlimit:10;stroke-width:0.5px;}</style></defs><g id="gul_skraldespan_og_avis" data-name="gul skraldespan og avis"><rect class="cls-1" x="0.5" y="36.23" width="72.46" height="7.76" rx="1.17"/><path class="cls-1" d="M40.4,273l3.78,75.78s.23,7.46,8.71,7.69,43.23,0,43.23,0,8.25-.12,7.79-11.7S107.35,273,107.35,273Z" transform="translate(-37.03 -228.99)"/><polygon class="cls-2" points="3.36 43.99 70.32 43.99 69.77 52.7 3.36 43.99"/><path d="M43.79,340.94l.31,6.19s-.11,6,3.72,7.94a2.67,2.67,0,0,1-1.72,1c-1,.06-4,0-4,0s-1.09-.8-1.06-1.63,0-11.89,0-11.89-.06-1.58,1.23-1.58Z" transform="translate(-37.03 -228.99)"/><path d="M100.72,354.51a10.5,10.5,0,0,0,3.12-6.92c0-4.1,0-6.74,0-6.74h1.38a2.34,2.34,0,0,1,1.35,1.95v12A1.49,1.49,0,0,1,105,356h-4a.77.77,0,0,1-.94-.8Z" transform="translate(-37.03 -228.99)"/><polygon class="cls-3" points="39.48 62.27 30.42 62.27 24.8 71.96 30.18 75.63 35.74 66.34 39.48 62.27"/><polygon class="cls-3" points="51.33 77.29 45.36 80.67 50.41 89.5 52.13 95.24 56.77 86.98 51.33 77.29"/><polygon class="cls-3" points="34.55 91.17 23.48 91.17 18.27 89.56 22.85 97.64 34.55 97.64 34.55 91.17"/><path class="cls-3" d="M54.55,307l3.62,2L55,314.48s-.63,2.53.86,3.21a42.91,42.91,0,0,0,5.27,1.61l4.36-6.94,3.72,1.44-5.73-7.11Z" transform="translate(-37.03 -228.99)"/><path class="cls-3" d="M73.53,295.68l3.84,7.22-2.64,2.18,8.66-.46,3.73-8.31-3.44,2.18L79.49,292s-1.49-.86-3.27.86A36.09,36.09,0,0,0,73.53,295.68Z" transform="translate(-37.03 -228.99)"/><path class="cls-3" d="M86.37,319.3l-8.6-.29v-4.35L74,323.14l5,7.8-.23-4.3h7s1.54.07,1.69-2.7A8.18,8.18,0,0,0,86.37,319.3Z" transform="translate(-37.03 -228.99)"/><polygon class="cls-4" points="44.31 0 64.49 36.23 8.77 36.44 1.89 23.25 44.31 0"/><polygon class="cls-5" points="3.36 26.07 0 28.09 4.41 36.23 8.77 36.44 3.36 26.07"/></g><g id="tekst_på_avisen" data-name="tekst på avisen"><rect class="cls-6" x="45.08" y="250.56" width="44.12" height="1.61" transform="translate(-151.25 -164.18) rotate(-29.24)"/><rect class="cls-6" x="69.89" y="247.32" width="19.32" height="1.61" transform="translate(-148.09 -158.53) rotate(-29.24)"/><rect class="cls-6" x="71.88" y="250.88" width="19.32" height="1.61" transform="translate(-149.57 -157.11) rotate(-29.24)"/><rect class="cls-6" x="73.72" y="254.82" width="19.32" height="1.61" transform="translate(-151.26 -155.71) rotate(-29.24)"/><rect class="cls-6" x="75.63" y="258.22" width="19.32" height="1.61" transform="translate(-152.68 -154.34) rotate(-29.24)"/><polygon class="cls-7" points="32.45 24.02 39.15 36.23 12.73 36.23 12.15 34.97 32.45 24.02"/><rect class="cls-8" x="68.39" y="239.1" width="14.6" height="3.48" transform="translate(-145.02 -161.35) rotate(-29.24)"/><polygon class="cls-9" points="57.33 29.06 59.9 33.71 56.01 36.23 44.14 36.52 57.33 29.06"/><line class="cls-10" x1="9.4" y1="24.88" x2="12.15" y2="29.75"/><line class="cls-10" x1="15.25" y1="27.8" x2="9.4" y2="24.88"/><line class="cls-10" x1="12.32" y1="22.99" x2="15.25" y2="27.8"/><line class="cls-10" x1="17.54" y1="20.75" x2="14.56" y2="22.37"/><line class="cls-10" x1="18.63" y1="22.82" x2="15.76" y2="24.36"/><line class="cls-10" x1="20.03" y1="24.99" x2="16.76" y2="26.63"/><line class="cls-10" x1="14.45" y1="22.07" x2="17.2" y2="26.63"/><line class="cls-10" x1="18.52" y1="19.72" x2="22.64" y2="24.02"/><line class="cls-10" x1="21.44" y1="18" x2="22.64" y2="24.02"/><line class="cls-10" x1="25.65" y1="22.24" x2="21.44" y2="18"/><line class="cls-10" x1="24.31" y1="16.45" x2="25.65" y2="22.24"/><path class="cls-10" d="M65.35,243.55a2.51,2.51,0,0,0-2.12,1.67c-.13.46-.14,1.26.29,1.54s1.07-.38,2.4-.28a1.72,1.72,0,0,1,1.38.57,1.38,1.38,0,0,1,.06,1.09c-.42,1.13-2.18,1.3-2.41,1.32a4.59,4.59,0,0,1-.75,0" transform="translate(-37.03 -228.99)"/></g></svg>