<?xml version="1.0" encoding="utf-8"?>
<!-- Generator: Adobe Illustrator 25.2.1, SVG Export Plug-In . SVG Version: 6.00 Build 0)  -->
<svg version="1.1" id="Lag_1" xmlns="http://www.w3.org/2000/svg" xmlns:xlink="http://www.w3.org/1999/xlink" x="0px" y="0px"
	 viewBox="0 0 427.9 354.3" style="enable-background:new 0 0 427.9 354.3;" xml:space="preserve">
<style type="text/css">
	.st0{display:none;}
	.st1{display:inline;fill:none;stroke:#E79B00;stroke-miterlimit:10;}
	.st2{display:inline;}
	.st3{fill:none;stroke:#E79B00;stroke-miterlimit:10;}
</style>
<g id="Lag_1_1_" class="st0">
</g>
<g id="Lag_2_1_" class="st0">
	<polyline class="st1" points="-58.9,147 -59.3,24.4 312,23.4 312.7,283.5 -59.4,284.5 -59.6,213.7 	"/>
	<path class="st1" d="M-58.9,152.8l53.5-0.1c-0.1,2.1-0.2,4.9-0.8,8.2c-0.8,4.7-3.7,21.9-18.8,34.6C-39.4,207.6-55.8,208-60.4,208"
		/>
	<path class="st1" d="M-58.9,146.4l63.4-1.2c-0.6-4.5-1-11.5,0.8-19.8c1.3-6,4.7-16.7,13.9-26.4c3.2-3.4,15-14.9,32.9-16.6
		c3.4-0.3,6.2-0.2,8.2,0l1,55.2h16.6L77.5,24"/>
	<polyline class="st1" points="100.8,283.5 100.7,237.3 -59.5,237.7 	"/>
	<path class="st1" d="M-2.3,24.7l0.1,45.7c0,0,2.5,11-9,11.1s-47.7,0.1-47.7,0.1"/>
	<polyline class="st1" points="63.9,24.6 64,49.7 29.4,49.8 29.3,24.7 	"/>
	<polygon class="st1" points="60.5,47.7 58.5,33.1 35.9,32.2 30.9,47.6 	"/>
	<circle class="st1" cx="45.6" cy="39.3" r="2.2"/>
	<path class="st1" d="M-9.3,115.9c-0.1-2-0.7-3.4-0.8-3.7c-1-2.1-2.9-3.8-7-5.5c-2.7-1.1-5.7-1.9-13.2-2.6c-8.3-0.8-12.5-1.2-17.3,0
		c-3.5,0.9-6.1,2.2-7.8,3.1v16.9c0.3,0.5,0.7,1.2,1.4,1.8c0.3,0.3,1.1,1,2.5,1.4c3.4,1.2,9.8,1,11.5,1c4.6-0.1,3.5,0.3,7.8,0.2
		c5.3-0.1,9.5-0.3,14.2-2.1c2.7-1.1,5.3-2.1,7-4.8C-9.3,119.1-9.3,116.3-9.3,115.9z"/>
	<line class="st1" x1="-41.9" y1="105.5" x2="-42" y2="125.7"/>
</g>
<g id="Lag_3" class="st0">
	<g id="CMk7l9_1_" class="st2">
	</g>
</g>
<g id="Lag_4">
	<path class="st3" d="M216.7,30.3v178.1h38l-0.7-44c0,0,40.7,4,40.7,40h109.4V30.3H32v179.4v88.7h102l-0.7-39.4
		c40-0.7,43.4,38,43.4,38h29.4v35.4h135.4v-128"/>
	<path class="st3" d="M32,209.7l114.1-1.3c0,0,5.3-42,42.7-42.7V209l28-0.7"/>
	<path class="st3" d="M128,208.4v15.3c0,0-40-0.7-43.4,42H130v33.4"/>
	<path class="st3" d="M311.5,217"/>
	<polyline class="st3" points="205.4,303.1 312.8,303.1 312.8,217 340.2,217 	"/>
	<polyline class="st3" points="256.8,303.1 256.8,332.4 287.5,303.8 287.5,332.4 	"/>
	<circle class="st3" cx="327.5" cy="245.2" r="12"/>
	<path class="st3" d="M31.3,257.1h32c0,0,8.7-2,8.7,5.3s0,34.7,0,34.7"/>
	<polyline class="st3" points="89.3,298.4 90.7,281.1 116.7,281.1 120.1,298.6 	"/>
	<circle class="st3" cx="105" cy="289.3" r="2.8"/>
	<path class="st3" d="M37.9,227.5c2-0.4,4.9-0.8,8.3-0.9c3.8-0.1,7.5-0.2,11.7,1.2c3.3,1.1,7.3,2.5,8.7,6.2c0.8,2.3,0.5,5.1-0.9,7.1
		c-1.2,1.7-3.1,2.6-6.5,3.4s-8.7,2.3-15.8,0.9c-2.1-0.4-5.2-1.3-8.7-3.1v-13.1L37.9,227.5z"/>
	<line class="st3" x1="43.9" y1="229" x2="43.9" y2="243.4"/>
</g>
</svg>
