<svg id="wc" xmlns="http://www.w3.org/2000/svg" viewBox="0 0 92.82 92.83"><defs><style>.cls-1{fill:none;stroke:#f39204;stroke-miterlimit:10;}</style></defs><rect class="cls-1" x="0.5" y="0.5" width="30.61" height="7.22" rx="1.15"/><rect class="cls-1" x="3.48" y="7.72" width="24.08" height="39.1" rx="1.32"/><path class="cls-1" d="M120.1,73.64a6.21,6.21,0,0,0,2.69,0,5.72,5.72,0,0,0,2.69-1.37,4.17,4.17,0,0,0,1.29-2.07,3.81,3.81,0,0,0-.39-2.63,4.85,4.85,0,0,0-2.56-2.3,5.74,5.74,0,0,0-3.72-.11" transform="translate(-92.54 -51.02)"/><path class="cls-1" d="M164.43,118.13l-.16.46-.15.68-.08,1c.26,2.79.35,5.08.39,6.65.08,3.35-.07,4.34.38,6.42a14.66,14.66,0,0,0,1.76,5,36.55,36.55,0,0,1,2.21,3.74c.27.54.48,1,.61,1.3H117.92a34.14,34.14,0,0,0,.91-3.44,34.86,34.86,0,0,0,.81-8.25,18.84,18.84,0,0,0-.81-6,17.54,17.54,0,0,0-3.89-6.3,37.69,37.69,0,0,0-4.7-4c-3.74-2.94-4.41-3-6-4.82a20.9,20.9,0,0,1-2.86-4.24,15.61,15.61,0,0,1-1.49-3.9,14.77,14.77,0,0,1-.35-3.78v-.81" transform="translate(-92.54 -51.02)"/><path class="cls-1" d="M137.29,143.35a41.87,41.87,0,0,0,2.68-5.66,28.11,28.11,0,0,0,1.6-5.42A27.05,27.05,0,0,0,142,129a54.68,54.68,0,0,0-.08-5.66c0-.79-.12-3.11-.15-4l-.2-.78" transform="translate(-92.54 -51.02)"/><path class="cls-1" d="M124.15,98.64c0,.1,0,.2,0,.3a22.42,22.42,0,0,0,2.94,8.41,24.16,24.16,0,0,0,6.26,6.8,20.2,20.2,0,0,0,7.27,4.13,29,29,0,0,0,5.73.76,69.76,69.76,0,0,0,7.41.23c4.36-.07,6.53-.1,8.72-.61a26.14,26.14,0,0,0,15-9.93,22.45,22.45,0,0,0,3-5.58,14.67,14.67,0,0,0,.84-3.9,15.45,15.45,0,0,0,0-1.68H120.1l-.84.17" transform="translate(-92.54 -51.02)"/><line class="cls-1" x1="31.62" y1="47.72" x2="31.45" y2="46.55"/><path class="cls-1" d="M126.29,97.57" transform="translate(-92.54 -51.02)"/><path class="cls-1" d="M124.16,91.15v0Z" transform="translate(-92.54 -51.02)"/><path class="cls-1" d="M123.65,91.54h57.57a3.51,3.51,0,0,1,.8,0,3.34,3.34,0,0,1,2.44,1.32,2.9,2.9,0,0,1,.12,2.69,3.74,3.74,0,0,1-3.09,2" transform="translate(-92.54 -51.02)"/><line class="cls-1" x1="31.62" y1="40.52" x2="31.62" y2="46.55"/></svg>