<svg id="Lag_2" data-name="Lag 2" xmlns="http://www.w3.org/2000/svg" viewBox="0 0 106.02 126.98"><defs><style>.cls-1,.cls-2{fill:none;stroke:#f39200;stroke-miterlimit:10;}.cls-2{stroke-width:1.5px;}</style></defs><rect class="cls-1" x="0.5" y="0.5" width="105.02" height="117.95" rx="11.74"/><rect class="cls-1" x="7.46" y="118.45" width="91.41" height="8.03" rx="3.06"/><circle class="cls-1" cx="53.16" cy="72.42" r="25.11"/><circle class="cls-1" cx="53" cy="72.42" r="32.1"/><rect class="cls-1" x="9.9" y="10.45" width="27.52" height="9.63" rx="0.96"/><circle class="cls-1" cx="50.96" cy="15.27" r="4.89"/><circle class="cls-1" cx="65.81" cy="15.27" r="4.89"/><rect class="cls-1" x="77.24" y="13.74" width="7.03" height="2.75" rx="1.18"/><rect class="cls-1" x="89.64" y="13.74" width="7.03" height="2.75" rx="1.18"/><line class="cls-1" x1="1.26" y1="27.57" x2="104.91" y2="28.03"/><path class="cls-2" d="M221.15,202.68a22.48,22.48,0,0,1-8.94,3.06,26.7,26.7,0,0,1-12.41-1.83,38.24,38.24,0,0,1-4.81-2.14c-3.67-1.77-10.08-2.75-22,1.37" transform="translate(-143.91 -123.6)"/></svg>