<svg id="vandhane" xmlns="http://www.w3.org/2000/svg" viewBox="0 0 84.6 87.67"><defs><style>.cls-1,.cls-2{fill:none;stroke:#f39204;stroke-miterlimit:10;}.cls-2{stroke-linecap:round;}</style></defs><rect class="cls-1" x="9.4" y="21.21" width="27.17" height="5.85" rx="1.11"/><path class="cls-1" d="M381,65v0Z" transform="translate(-367.39 -56.22)"/><path class="cls-2" d="M381,65c0-.15,0-.36,0-.62a8.37,8.37,0,0,1,2.44-5.27,8.5,8.5,0,0,1,5.2-2.37h43.95a2.4,2.4,0,0,1,.76,0,3.18,3.18,0,0,1,2.37,2.37,2.85,2.85,0,0,1-.22,2.22,3,3,0,0,1-3,1.22l-28,.23c-.15.05-.36.12-.61.23a6.39,6.39,0,0,0-3.67,4.43l-.08,10" transform="translate(-367.39 -56.22)"/><path class="cls-1" d="M373.17,121.26V88a3.68,3.68,0,0,1,0-.47,5.19,5.19,0,0,1,2.05-3.4,7.55,7.55,0,0,1,1.88-1.16" transform="translate(-367.39 -56.22)"/><path class="cls-2" d="M404.43,82.92l42.49.35a4.2,4.2,0,0,1,.62,0,4.36,4.36,0,0,1,2.67,1.38c.18.19,1.88,2.08,1.07,4.13a3.81,3.81,0,0,1-2.22,2.06L404,101.31c-.26,0-.62.13-1,.25a7.87,7.87,0,0,0-2.38,1.06,6.56,6.56,0,0,0-2.3,2.95,6.94,6.94,0,0,0-.31,1.21v4.76" transform="translate(-367.39 -56.22)"/><line class="cls-2" x1="30.56" y1="55.83" x2="30.56" y2="65.42"/><rect class="cls-2" x="2.64" y="65.42" width="30.73" height="21.75" rx="0.59"/><line class="cls-2" x1="35.93" y1="72.11" x2="0.5" y2="72.19"/><path class="cls-1" d="M435.27,94v8.23a3.6,3.6,0,0,0,1.88,1.57,1.63,1.63,0,0,0,.7,0h9.64A2.74,2.74,0,0,0,449,102a2.33,2.33,0,0,0,0-1V90.84" transform="translate(-367.39 -56.22)"/><path class="cls-1" d="M450.29,126.73a7.3,7.3,0,0,1,.11,1.14,9,9,0,0,1-.69,3.44,8.8,8.8,0,0,1-1.49,3,7.38,7.38,0,0,1-3.78,2.3,8.59,8.59,0,0,1-5.16-.23,7.55,7.55,0,0,1-4.82-4.82,12.88,12.88,0,0,1-.57-4c0-.34,0-.62,0-.8l8.28-18.35Z" transform="translate(-367.39 -56.22)"/><line class="cls-1" x1="13.65" y1="21.21" x2="13.65" y2="8.18"/></svg>